%
M48
M72
T01C0.0118
T02C0.0236
T03C0.0320
T04C0.0350
T05C0.0354
T06C0.0390
T07C0.0394
T08C0.0433
T09C0.0600
T10C0.0630
T11C0.0642
T12C0.0669
T13C0.0670
T14C0.1102
T15C0.1500
%
T01
X8485Y52383
X8780Y52580
X9075Y52777
X9075Y52383
X8485Y52777
X12035Y52777
X12330Y52580
X12625Y52777
X12625Y52383
X12035Y52383
T02
X130030Y11780
X129530Y9780
X119230Y12730
X119780Y14780
X114580Y12430
X109780Y12430
X104980Y12430
X101580Y17980
X101580Y19980
X99080Y20280
X96980Y19880
X94980Y21280
X93780Y21280
X93330Y22680
X91480Y22680
X91480Y21780
X91480Y20280
X89380Y19880
X87480Y21280
X86080Y21280
X83880Y21780
X83880Y22680
X85780Y22680
X85380Y24680
X83780Y25380
X83380Y25780
X82580Y25380
X81180Y25380
X79980Y25380
X78480Y23680
X77980Y23680
X78180Y22680
X78380Y21280
X79880Y21280
X81680Y19880
X83880Y20280
X76280Y20280
X74080Y19880
X72280Y21280
X70780Y21280
X68680Y21780
X68680Y22680
X70530Y22730
X68680Y20280
X66480Y19880
X64780Y21280
X63180Y21280
X61080Y21780
X61080Y22680
X62880Y22730
X61080Y20280
X58880Y19880
X57280Y21280
X54934Y20934
X54380Y20380
X50980Y21380
X49580Y22580
X45580Y22380
X44980Y23080
X48580Y24780
X47080Y25380
X44780Y27380
X38580Y24180
X45580Y20180
X50380Y19680
X40980Y16780
X35480Y18880
X32980Y18880
X31780Y18880
X30780Y18880
X29780Y18880
X28680Y18880
X27680Y18880
X26580Y18880
X28480Y26480
X29980Y26880
X30480Y27280
X31980Y27780
X32480Y28280
X33980Y28680
X34480Y29080
X40080Y31780
X40680Y31780
X38380Y34280
X38380Y35280
X39980Y36180
X40580Y36180
X43580Y36980
X43880Y36380
X46680Y37680
X47380Y38380
X48480Y39180
X48980Y39180
X49480Y39180
X49980Y39180
X51180Y40080
X51780Y40080
X52580Y39680
X52580Y39180
X53280Y40080
X53880Y39980
X54780Y41380
X54780Y41880
X53380Y41880
X56330Y43580
X56830Y43580
X58680Y44080
X58830Y43380
X59430Y43380
X61180Y43580
X61180Y42780
X62480Y42080
X62880Y42980
X63380Y42980
X65280Y43080
X65280Y42580
X67780Y44580
X68280Y44580
X68780Y44580
X69280Y44580
X69780Y44580
X73180Y44580
X73680Y44580
X74180Y44580
X74680Y44580
X75180Y44580
X76180Y43880
X76180Y43380
X75480Y42380
X74880Y42380
X76280Y41280
X76780Y41280
X78880Y40580
X78880Y40080
X78880Y39580
X80080Y40480
X80080Y41180
X82780Y41180
X82780Y40480
X78080Y42580
X75780Y39180
X75280Y39180
X76580Y37680
X76580Y37180
X77280Y36880
X77280Y36180
X77280Y35580
X77280Y35080
X77280Y34580
X77280Y34080
X78180Y34280
X78180Y33680
X78480Y32980
X79180Y32780
X79180Y33280
X80880Y32780
X82880Y32780
X83680Y32880
X84280Y32880
X84880Y32880
X85480Y32880
X86080Y32880
X86930Y32630
X84180Y31680
X82280Y31980
X81580Y31980
X78980Y30980
X79880Y29980
X81480Y29880
X81980Y29880
X83080Y28380
X84180Y28380
X84980Y30480
X80680Y28380
X78980Y28380
X76780Y28380
X76280Y28380
X75180Y28880
X67780Y32680
X65580Y32680
X65080Y32680
X63280Y31580
X61480Y32080
X61480Y32580
X64880Y33480
X63928Y34228
X62380Y34580
X61680Y34580
X61080Y34380
X63480Y35280
X63980Y35280
X63980Y35780
X65180Y35730
X67880Y36480
X69080Y37380
X69580Y37380
X70080Y37380
X72780Y35880
X74780Y35480
X74780Y34080
X74080Y33980
X74380Y33280
X72780Y32680
X63480Y27980
X62980Y27780
X62480Y27780
X61480Y27780
X60980Y27780
X60480Y27780
X59980Y27780
X59480Y27780
X58980Y27780
X58280Y27680
X58780Y26380
X58480Y25380
X59680Y25380
X61180Y25380
X64580Y25380
X66080Y25380
X67280Y25380
X68280Y26280
X68680Y25380
X72380Y25380
X73680Y25380
X74880Y25380
X76180Y25380
X76280Y22680
X76280Y21780
X87480Y25380
X87980Y26480
X88480Y26480
X88780Y25380
X90180Y25380
X90680Y26480
X91180Y26480
X91480Y25380
X95080Y25380
X96380Y25380
X97780Y25380
X99180Y25380
X98280Y26780
X95980Y26780
X95480Y26780
X99180Y28480
X99180Y29580
X99080Y22680
X99080Y21780
X100980Y22680
X117580Y29280
X121180Y31480
X121180Y32180
X123680Y34080
X125580Y32280
X129980Y32380
X129980Y31580
X132380Y32480
X134380Y32380
X134880Y34080
X133180Y38980
X131480Y39480
X131480Y39980
X131480Y40480
X128880Y40480
X128880Y39980
X128880Y39480
X128980Y38380
X126680Y37980
X125780Y36580
X126280Y35880
X128180Y35430
X124080Y36580
X131180Y38380
X135280Y39530
X135280Y41130
X135280Y42630
X135280Y44230
X135280Y45830
X133480Y46830
X135280Y47330
X135280Y48930
X135280Y50430
X135280Y52030
X131380Y51830
X130680Y51830
X120180Y58980
X110180Y58980
X88180Y53180
X87180Y53180
X82780Y53180
X81780Y53180
X76280Y48680
X73780Y48680
X72180Y48180
X71280Y48680
X70280Y47180
X68780Y48680
X66780Y48230
X66280Y48680
X64780Y47180
X63780Y48680
X57480Y45280
X56980Y45280
X61930Y44530
X70380Y42880
X69480Y39880
X68180Y38980
X67680Y38980
X64180Y38280
X64180Y37580
X64880Y37580
X65180Y37080
X70980Y38980
X71480Y38980
X85880Y37180
X85880Y36480
X89480Y37580
X89480Y38080
X88280Y41180
X88280Y41680
X89480Y43880
X89780Y44380
X87780Y45480
X94350Y50510
X96530Y51730
X97730Y52230
X98780Y52230
X100230Y51430
X100730Y51430
X110180Y49480
X113680Y48480
X113930Y46930
X112980Y46880
X114980Y46980
X115680Y46980
X116708Y46980
X117680Y46980
X118455Y46955
X118080Y48480
X120180Y49480
X128980Y47030
X120580Y44280
X117580Y44280
X116680Y44280
X115680Y44280
X114980Y44280
X113880Y44280
X117980Y41380
X116680Y41080
X113780Y40880
X112780Y40680
X110180Y40280
X109180Y40280
X108180Y40280
X107180Y40280
X106180Y40280
X105180Y40280
X104180Y40280
X108880Y47080
X122880Y41380
X122880Y40580
X128880Y40980
X130680Y43280
X131380Y43280
X49380Y54280
X48880Y54280
X48930Y51280
X51580Y51030
X49380Y49180
X48780Y49180
X46530Y47480
X46530Y46980
X42730Y46980
X42730Y47480
X40880Y47180
X40280Y46580
X39680Y46480
X39680Y45780
X40880Y45080
X40280Y44480
X39680Y44380
X39680Y43680
X40880Y42980
X40280Y42380
X39680Y42280
X39680Y41580
X42730Y45080
X42730Y45580
X46530Y45580
X46530Y45080
X39680Y47880
X39680Y48580
X40280Y48780
X40880Y49280
X39680Y49980
X39680Y50680
X40280Y50880
X40880Y51380
X39680Y52080
X39680Y52780
X40280Y52980
X40880Y53480
X40780Y54180
X40280Y54180
X39580Y54180
X21480Y52980
X21480Y51480
X19180Y50880
X19180Y50280
X18580Y49780
X17980Y49780
X17380Y49780
X16780Y49780
X15280Y49980
X15280Y50780
X15280Y51580
X15280Y52380
X14580Y52030
X13980Y51380
X13530Y52030
X12580Y50780
X12580Y50180
X12580Y49680
X12580Y49180
X13380Y49180
X13980Y49180
X14580Y48380
X15280Y48380
X15280Y47580
X14580Y47580
X14580Y46780
X15280Y46780
X15280Y45980
X14580Y45980
X13780Y45980
X11880Y45980
X11880Y45180
X9980Y45980
X9980Y46680
X9980Y47380
X9980Y48080
X9180Y48080
X9180Y47380
X9180Y46680
X9180Y45980
X8380Y45980
X6480Y46080
X6480Y45280
X6480Y44480
X7280Y44480
X7280Y43680
X7280Y42880
X6480Y42880
X6480Y43680
X11880Y43680
X11880Y44380
X12680Y44380
X12680Y43680
X17480Y46130
X17480Y46680
X17980Y46880
X18480Y46880
X18980Y46880
X20480Y46880
X18980Y45880
X18480Y45880
X17980Y45880
X11880Y46780
X11880Y47580
X11880Y48380
X9980Y49380
X9980Y50180
X9980Y50780
X11080Y51880
X10280Y52580
X10280Y53080
X7480Y51880
X6480Y51880
X6480Y52680
X6480Y53480
X6480Y51080
X6480Y50080
X6480Y49280
X6480Y48480
X6480Y47680
X6480Y46880
X15280Y49180
X16780Y51380
X17380Y51380
X17980Y51380
X18580Y51380
X21480Y49580
X28480Y44030
X28480Y43530
X28480Y42130
X28480Y41630
X24680Y41630
X24680Y42130
X24680Y43530
X24680Y44030
X18780Y40580
X18780Y38680
X18780Y36780
X18780Y34880
X18780Y32980
X18780Y31080
X18780Y29180
X18780Y27180
X40980Y9530
X56980Y25380
X50180Y27380
X54580Y29180
X52580Y29780
X54280Y30580
X54280Y31080
X55880Y31580
X58080Y31380
X58080Y30380
X57480Y30380
X56580Y29980
X62080Y30180
X55030Y33880
X54330Y33880
X53780Y34280
X53280Y34280
X52680Y35080
X52180Y35080
X51680Y35080
X51180Y35080
X50680Y36130
X49480Y35480
X47880Y35480
X50680Y37880
X49180Y32480
X49180Y31980
X57630Y52280
X56030Y53330
X23380Y58380
X22580Y58380
X19680Y59280
X18880Y59280
X18080Y59280
X17280Y59280
X16480Y59280
X16480Y58680
X16480Y58080
X16480Y57480
X16480Y56780
X16480Y56180
X16480Y55580
X17280Y55580
X18080Y55580
X18880Y55580
X19680Y55580
X19680Y54780
X19480Y53980
X14380Y54280
X14380Y54780
X13780Y55980
X22580Y56580
X23380Y56580
X129480Y23130
X129530Y20130
T03
X35980Y25280
X34980Y25280
X33980Y25280
X32980Y25280
X31980Y25280
X30980Y25280
X29980Y25280
X28980Y25280
X27980Y25280
X26980Y25280
X26980Y22280
X27980Y22280
X28980Y22280
X29980Y22280
X30980Y22280
X31980Y22280
X32980Y22280
X33980Y22280
X34980Y22280
X35980Y22280
X35980Y14380
X34980Y14380
X33980Y14380
X32980Y14380
X31980Y14380
X30980Y14380
X29980Y14380
X28980Y14380
X27980Y14380
X26980Y14380
X26980Y11380
X27980Y11380
X28980Y11380
X29980Y11380
X30980Y11380
X31980Y11380
X32980Y11380
X33980Y11380
X34980Y11380
X35980Y11380
X23593Y30705
X23593Y31705
X23593Y32705
X23593Y33705
X23593Y34705
X23593Y35705
X23593Y36705
X23593Y37705
X23593Y38705
X20593Y38705
X20593Y37705
X20593Y36705
X20593Y35705
X20593Y34705
X20593Y33705
X20593Y32705
X20593Y31705
X20593Y30705
T04
X29880Y28700
X29880Y36570
T05
X97180Y4930
X96530Y7180
X100530Y7180
X100430Y9480
X102430Y10980
X107380Y9930
X112030Y9980
X105030Y7180
X105430Y4930
X102180Y4930
X110780Y6230
X96430Y9480
X92430Y9480
X88680Y9480
X84930Y9480
X80930Y9480
X77180Y9480
X73430Y9480
X69430Y9480
X68530Y7180
X61430Y9480
X52180Y9480
X49680Y9480
X112030Y15980
X112030Y13980
X107380Y13930
X102430Y13980
X102430Y15980
X107380Y16080
X89030Y7180
X84530Y7180
X77780Y7180
X90830Y58030
X89830Y58030
X88830Y58030
X87830Y58030
X86830Y58030
X85830Y58030
X84830Y58030
X84830Y57030
X85830Y57030
X86830Y57030
X87830Y57030
X88830Y57030
X89830Y57030
X90830Y57030
X79780Y50980
X80780Y50980
X81780Y50980
X82780Y50980
X85180Y50980
X86180Y50980
X87180Y50980
X88180Y50980
X88180Y47980
X87180Y47980
X86180Y47980
X85180Y47980
X82780Y47980
X81780Y47980
X80780Y47980
X79780Y47980
T06
X39780Y25880
X38980Y25880
X39380Y23880
X38980Y17230
X39780Y17230
X39380Y15230
X39780Y10030
X38980Y10030
X39380Y8030
T07
X9330Y11918
X10330Y11918
X11330Y11918
X13830Y13818
X14830Y13818
X15830Y13818
X11330Y15718
X10330Y15718
X9330Y15718
X13830Y17618
X14830Y17618
X15830Y17618
X11330Y19518
X10330Y19518
X9330Y19518
X13830Y21418
X14830Y21418
X15830Y21418
X11330Y23318
X10330Y23318
X9330Y23318
X9330Y29605
X10330Y29605
X11330Y29605
X13930Y31505
X14930Y31505
X15930Y31505
X11330Y33405
X10330Y33405
X9330Y33405
X13930Y35305
X14930Y35305
X15930Y35305
X11330Y37205
X10330Y37205
X9330Y37205
X13930Y39105
X14930Y39105
X15930Y39105
X11330Y41005
X10330Y41005
X9330Y41005
X13930Y27705
X14930Y27705
X15930Y27705
X42080Y25780
X42080Y24780
X42080Y23780
X42080Y26780
X42080Y27780
X42080Y28780
X42080Y17730
X42080Y16730
X42080Y15730
X42080Y14730
X42080Y13730
X42080Y12730
X42080Y10530
X42080Y9530
X42080Y8530
X42080Y7530
X42080Y6530
X42080Y5530
X133980Y7980
X132980Y7980
X134980Y7980
X134980Y10480
X133980Y10480
X132980Y10480
X132980Y12980
X133980Y12980
X134980Y12980
X134980Y15480
X133980Y15480
X132980Y15480
X132980Y17980
X133980Y17980
X134980Y17980
X134980Y20480
X133980Y20480
X132980Y20480
X132980Y22980
X133980Y22980
X134980Y22980
X134980Y25480
X133980Y25480
X132980Y25480
X132480Y36380
X131480Y36380
X130480Y36380
X122480Y25480
X123480Y25480
X124480Y25480
X124480Y22980
X123480Y22980
X122480Y22980
X122480Y20480
X123480Y20480
X124480Y20480
X124480Y17980
X123480Y17980
X122480Y17980
X122480Y15480
X123480Y15480
X124480Y15480
X124480Y12980
X123480Y12980
X122480Y12980
X122480Y10480
X123480Y10480
X124480Y10480
X124480Y7980
X123480Y7980
X122480Y7980
X100080Y12480
X100080Y13480
X100080Y11480
X96280Y11480
X96280Y12480
X96280Y13480
X92480Y13480
X92480Y12480
X92480Y11480
X88680Y11480
X88680Y12480
X88680Y13480
X84880Y13480
X84880Y12480
X84880Y11480
X81080Y11480
X81080Y12480
X81080Y13480
X77280Y13480
X77280Y12480
X77280Y11480
X73480Y11480
X73480Y12480
X73480Y13480
X69680Y13480
X69680Y12480
X69680Y11480
X65880Y11480
X65880Y12480
X65880Y13480
X62080Y13480
X62080Y12480
X62080Y11480
X58280Y11480
X58280Y12480
X58280Y13480
X56380Y15880
X56380Y16880
X56380Y17880
X60180Y17880
X60180Y16880
X60180Y15880
X63980Y15880
X63980Y16880
X63980Y17880
X67780Y17880
X67780Y16880
X67780Y15880
X71580Y15880
X71580Y16880
X71580Y17880
X75380Y17880
X75380Y16880
X75380Y15880
X79180Y15880
X79180Y16880
X79180Y17880
X82980Y17880
X82980Y16880
X82980Y15880
X86780Y15880
X86780Y16880
X86780Y17880
X90580Y17880
X90580Y16880
X90580Y15880
X94380Y15880
X94380Y16880
X94380Y17880
X98180Y17880
X98180Y16880
X98180Y15880
X55380Y43380
X54380Y43380
X53380Y43380
X52380Y43380
X41680Y55180
X42680Y55180
X43680Y55180
X45180Y55180
X46180Y55180
X47180Y55180
X47180Y58180
X46180Y58180
X45180Y58180
X43680Y58180
X42680Y58180
X41680Y58180
X41680Y52280
X42680Y52280
X43680Y52280
X63780Y53580
X63780Y52580
X63780Y51580
X66280Y51580
X66280Y52580
X66280Y53580
X68780Y53580
X68780Y52580
X68780Y51580
X71280Y51580
X71280Y52580
X71280Y53580
X73780Y53580
X73780Y52580
X76280Y52580
X76280Y53580
X76280Y51580
X73780Y51580
X112180Y45480
X111180Y45480
X110180Y45480
X109180Y45480
X108180Y45480
X107180Y45480
X106180Y45480
X105180Y45480
X104180Y45480
X103180Y45480
X102180Y45480
X101180Y45480
X100180Y45480
X99180Y45480
X98180Y45480
X97180Y45480
X96180Y45480
X95180Y45480
X94180Y45480
X93180Y45480
X15830Y10018
X14830Y10018
X13830Y10018
T08
X120008Y48682
T09
X129180Y7350
X118880Y10350
X114080Y10350
X109280Y10350
X104480Y10350
X104480Y19210
X109280Y19210
X114080Y19210
X118880Y19210
X129180Y17750
X129180Y16210
X129180Y26610
X45250Y51380
X54110Y51380
T10
X4493Y911
X1011Y12068
X16993Y911
X25630Y911
X38130Y911
X46430Y911
X58930Y911
X66830Y911
X79330Y911
X87330Y911
X99830Y911
X107921Y911
X111039Y911
X121530Y911
X134030Y911
X141049Y12930
X141049Y25430
X141049Y35635
X1011Y24568
X1011Y35330
X1011Y47830
X25521Y49649
X28639Y49649
X32621Y49649
X35739Y49649
X35739Y45149
X32621Y45149
X32621Y54249
X28639Y54249
X25521Y54249
X35739Y54249
X35739Y59249
X32621Y59249
X28639Y59249
X25521Y59249
X10739Y59249
X7621Y59249
X50421Y59249
X59921Y59249
X64400Y59249
X78460Y59249
X111740Y48682
X132721Y59249
X135839Y59249
X141049Y51225
X100389Y59249
X97271Y59249
T11
X141049Y7580
X47443Y13361
X51680Y13361
T12
X3727Y2580
X5286Y2580
X6845Y2580
X9963Y2580
X11522Y2580
X13081Y2580
X14640Y2580
X16199Y2580
X17758Y2580
X24864Y2580
X26423Y2580
X27982Y2580
X29541Y2580
X32660Y2580
X34219Y2580
X35778Y2580
X37337Y2580
X38896Y2580
X45664Y2580
X47223Y2580
X48782Y2580
X50341Y2580
X51900Y2580
X55019Y2580
X56578Y2580
X58137Y2580
X59696Y2580
X66064Y2580
X67623Y2580
X69182Y2580
X70741Y2580
X72300Y2580
X73860Y2580
X76978Y2580
X78537Y2580
X80096Y2580
X86564Y2580
X88123Y2580
X89682Y2580
X91241Y2580
X92800Y2580
X94360Y2580
X95919Y2580
X99037Y2580
X100596Y2580
X120764Y2580
X122323Y2580
X123882Y2580
X125441Y2580
X127000Y2580
X128560Y2580
X130119Y2580
X131678Y2580
X133237Y2580
X139380Y6800
X139380Y8360
X139380Y12164
X139380Y13723
X139380Y15282
X139380Y16841
X139380Y18400
X139380Y19960
X139380Y21519
X139380Y23078
X139380Y26196
X139380Y34855
X139380Y36414
X139380Y37973
X139380Y39532
X139380Y41091
X139380Y42650
X139380Y44210
X139380Y45769
X139380Y47328
X139380Y48887
X139380Y50446
X139380Y52005
X79225Y57580
X77666Y57580
X74548Y57580
X72989Y57580
X71430Y57580
X69871Y57580
X68312Y57580
X66753Y57580
X65194Y57580
X63635Y57580
X60687Y57580
X57569Y57580
X56010Y57580
X54450Y57580
X52891Y57580
X51332Y57580
X49773Y57580
X2680Y48596
X2680Y45478
X2680Y43919
X2680Y42360
X2680Y40800
X2680Y39241
X2680Y37682
X2680Y36123
X2680Y34564
X2680Y25333
X2680Y23774
X2680Y20656
X2680Y19097
X2680Y17538
X2680Y15979
X2680Y14420
X2680Y12861
X2680Y11302
X46663Y15030
X48222Y15030
X50900Y15030
X52460Y15030
T13
X107141Y2580
X108700Y2580
X111819Y2580
X6841Y57580
X8400Y57580
X11519Y57580
X24741Y57580
X26300Y57580
X27860Y57580
X29419Y57580
X31841Y57580
X33400Y57580
X34960Y57580
X36519Y57580
X24741Y52580
X26300Y52580
X27860Y52580
X29419Y52580
X31841Y52580
X33400Y52580
X34960Y52580
X36519Y52580
X24741Y47980
X26300Y47980
X27860Y47980
X29419Y47980
X31841Y47980
X33400Y47980
X34960Y47980
X36519Y47980
X31841Y43480
X33400Y43480
X34960Y43480
X36519Y43480
X96491Y57580
X98050Y57580
X99610Y57580
X131941Y57580
X133500Y57580
X135060Y57580
X136619Y57580
T14
X119080Y29480
X91080Y29480
X91080Y45480
X119080Y45480
T15
X139780Y1980
X139780Y58330
X1980Y58330
X1980Y6680
X21330Y1980
X42280Y1980
X62880Y1980
X83330Y1980
X103780Y1980
X115280Y1980
X139780Y30880
X114480Y30880
X70880Y30880
X1980Y30880
X39180Y58330
X60180Y52780
X105430Y58330
M30
