%
M48
M72
T01C0.0120
T02C0.0315
T03C0.0394
%
T01
X5270Y2780
X8400Y12050
X9050Y12050
X9050Y12950
X8400Y12950
X8400Y13850
X9050Y13850
X9050Y15050
X8400Y15050
X8400Y15800
X9050Y15800
X9050Y16550
X8400Y16550
X8400Y17420
X9050Y17420
X9050Y20150
X8700Y20150
X8700Y20500
X8350Y20500
X8350Y20150
X8000Y20150
X8000Y20500
X9400Y20150
X9750Y20150
X11500Y21900
X11500Y22200
X12300Y21900
X12300Y21600
X12900Y22200
X12900Y22600
X13250Y22600
X13250Y22200
X13600Y22200
X13950Y22200
X13600Y22600
X13600Y23000
X13250Y23000
X12900Y23000
X12900Y23400
X12900Y23800
X13250Y23800
X13250Y23400
X13950Y21750
X15000Y21550
X15000Y21200
X15000Y20850
X15000Y20500
X15000Y20150
X15400Y19950
X15850Y19950
X15850Y21750
X15400Y21750
X18110Y18570
X18930Y17390
X19787Y19360
X19930Y20740
X19430Y20740
X18980Y20740
X18980Y21790
X19430Y21790
X19930Y21790
X15500Y16750
X14850Y16750
X14850Y15950
X15500Y15950
X15500Y14750
X14850Y14750
X14850Y13750
X14850Y13100
X15500Y13100
X15500Y13750
X16050Y13750
X18940Y14240
X18950Y9520
X16530Y5560
X16180Y5560
X15830Y5560
X15820Y4780
X16170Y4780
X16520Y4780
X5800Y14150
X5800Y14750
X6500Y22500
X6500Y22900
X9850Y22650
X10150Y22650
X10150Y23450
X10450Y23450
T02
X2600Y5000
X2600Y6000
X2600Y7000
X2600Y8000
X2600Y9000
X2600Y10000
X2600Y11000
X2600Y12000
X2600Y13000
X2600Y14000
X2600Y15000
X2600Y16000
X2600Y17000
X2600Y18000
X2600Y19000
X2600Y20000
X2600Y21000
X2600Y22000
X2600Y23000
X2600Y24000
X1600Y24000
X1600Y23000
X1600Y22000
X1600Y21000
X1600Y20000
X1600Y19000
X1600Y18000
X1600Y17000
X1600Y16000
X1600Y15000
X1600Y14000
X1600Y13000
X1600Y12000
X1600Y11000
X1600Y10000
X1600Y9000
X1600Y8000
X1600Y7000
X1600Y6000
X1600Y5000
T03
X19500Y24200
X18950Y8332
X18950Y18568
X19500Y23200
M30
