G75*
%MOIN*%
%OFA0B0*%
%FSLAX25Y25*%
%IPPOS*%
%LPD*%
%AMOC8*
5,1,8,0,0,1.08239X$1,22.5*
%
%ADD10C,0.01000*%
%ADD11R,0.02362X0.03543*%
%ADD12R,0.06299X0.03543*%
%ADD13R,0.03543X0.06299*%
%ADD14R,0.03543X0.02362*%
%ADD15C,0.04724*%
%ADD16R,0.10827X0.03937*%
%ADD17C,0.00000*%
%ADD18R,0.24409X0.03937*%
%ADD19R,0.11811X0.06299*%
%ADD20C,0.05906*%
%ADD21R,0.05906X0.01181*%
%ADD22R,0.07874X0.04331*%
%ADD23R,0.07874X0.12992*%
%ADD24R,0.12598X0.06299*%
%ADD25R,0.06299X0.12598*%
%ADD26R,0.04200X0.08500*%
%ADD27R,0.05000X0.05000*%
%ADD28C,0.00500*%
%ADD29C,0.00600*%
%ADD30C,0.02400*%
%ADD31C,0.00800*%
%ADD32C,0.03200*%
%ADD33C,0.02200*%
%ADD34C,0.04000*%
%ADD35C,0.01200*%
D10*
X0001500Y0038000D02*
X0042500Y0038000D01*
X0042500Y0001500D01*
X0201000Y0001500D01*
X0201242Y0001503D01*
X0201483Y0001512D01*
X0201724Y0001526D01*
X0201965Y0001547D01*
X0202205Y0001573D01*
X0202445Y0001605D01*
X0202684Y0001643D01*
X0202921Y0001686D01*
X0203158Y0001736D01*
X0203393Y0001791D01*
X0203627Y0001851D01*
X0203859Y0001918D01*
X0204090Y0001989D01*
X0204319Y0002067D01*
X0204546Y0002150D01*
X0204771Y0002238D01*
X0204994Y0002332D01*
X0205214Y0002431D01*
X0205432Y0002536D01*
X0205647Y0002645D01*
X0205860Y0002760D01*
X0206070Y0002880D01*
X0206276Y0003005D01*
X0206480Y0003135D01*
X0206681Y0003270D01*
X0206878Y0003410D01*
X0207072Y0003554D01*
X0207262Y0003703D01*
X0207448Y0003857D01*
X0207631Y0004015D01*
X0207810Y0004177D01*
X0207985Y0004344D01*
X0208156Y0004515D01*
X0208323Y0004690D01*
X0208485Y0004869D01*
X0208643Y0005052D01*
X0208797Y0005238D01*
X0208946Y0005428D01*
X0209090Y0005622D01*
X0209230Y0005819D01*
X0209365Y0006020D01*
X0209495Y0006224D01*
X0209620Y0006430D01*
X0209740Y0006640D01*
X0209855Y0006853D01*
X0209964Y0007068D01*
X0210069Y0007286D01*
X0210168Y0007506D01*
X0210262Y0007729D01*
X0210350Y0007954D01*
X0210433Y0008181D01*
X0210511Y0008410D01*
X0210582Y0008641D01*
X0210649Y0008873D01*
X0210709Y0009107D01*
X0210764Y0009342D01*
X0210814Y0009579D01*
X0210857Y0009816D01*
X0210895Y0010055D01*
X0210927Y0010295D01*
X0210953Y0010535D01*
X0210974Y0010776D01*
X0210988Y0011017D01*
X0210997Y0011258D01*
X0211000Y0011500D01*
X0211000Y0240000D01*
X0210997Y0240242D01*
X0210988Y0240483D01*
X0210974Y0240724D01*
X0210953Y0240965D01*
X0210927Y0241205D01*
X0210895Y0241445D01*
X0210857Y0241684D01*
X0210814Y0241921D01*
X0210764Y0242158D01*
X0210709Y0242393D01*
X0210649Y0242627D01*
X0210582Y0242859D01*
X0210511Y0243090D01*
X0210433Y0243319D01*
X0210350Y0243546D01*
X0210262Y0243771D01*
X0210168Y0243994D01*
X0210069Y0244214D01*
X0209964Y0244432D01*
X0209855Y0244647D01*
X0209740Y0244860D01*
X0209620Y0245070D01*
X0209495Y0245276D01*
X0209365Y0245480D01*
X0209230Y0245681D01*
X0209090Y0245878D01*
X0208946Y0246072D01*
X0208797Y0246262D01*
X0208643Y0246448D01*
X0208485Y0246631D01*
X0208323Y0246810D01*
X0208156Y0246985D01*
X0207985Y0247156D01*
X0207810Y0247323D01*
X0207631Y0247485D01*
X0207448Y0247643D01*
X0207262Y0247797D01*
X0207072Y0247946D01*
X0206878Y0248090D01*
X0206681Y0248230D01*
X0206480Y0248365D01*
X0206276Y0248495D01*
X0206070Y0248620D01*
X0205860Y0248740D01*
X0205647Y0248855D01*
X0205432Y0248964D01*
X0205214Y0249069D01*
X0204994Y0249168D01*
X0204771Y0249262D01*
X0204546Y0249350D01*
X0204319Y0249433D01*
X0204090Y0249511D01*
X0203859Y0249582D01*
X0203627Y0249649D01*
X0203393Y0249709D01*
X0203158Y0249764D01*
X0202921Y0249814D01*
X0202684Y0249857D01*
X0202445Y0249895D01*
X0202205Y0249927D01*
X0201965Y0249953D01*
X0201724Y0249974D01*
X0201483Y0249988D01*
X0201242Y0249997D01*
X0201000Y0250000D01*
X0011500Y0250000D01*
X0011258Y0249997D01*
X0011017Y0249988D01*
X0010776Y0249974D01*
X0010535Y0249953D01*
X0010295Y0249927D01*
X0010055Y0249895D01*
X0009816Y0249857D01*
X0009579Y0249814D01*
X0009342Y0249764D01*
X0009107Y0249709D01*
X0008873Y0249649D01*
X0008641Y0249582D01*
X0008410Y0249511D01*
X0008181Y0249433D01*
X0007954Y0249350D01*
X0007729Y0249262D01*
X0007506Y0249168D01*
X0007286Y0249069D01*
X0007068Y0248964D01*
X0006853Y0248855D01*
X0006640Y0248740D01*
X0006430Y0248620D01*
X0006224Y0248495D01*
X0006020Y0248365D01*
X0005819Y0248230D01*
X0005622Y0248090D01*
X0005428Y0247946D01*
X0005238Y0247797D01*
X0005052Y0247643D01*
X0004869Y0247485D01*
X0004690Y0247323D01*
X0004515Y0247156D01*
X0004344Y0246985D01*
X0004177Y0246810D01*
X0004015Y0246631D01*
X0003857Y0246448D01*
X0003703Y0246262D01*
X0003554Y0246072D01*
X0003410Y0245878D01*
X0003270Y0245681D01*
X0003135Y0245480D01*
X0003005Y0245276D01*
X0002880Y0245070D01*
X0002760Y0244860D01*
X0002645Y0244647D01*
X0002536Y0244432D01*
X0002431Y0244214D01*
X0002332Y0243994D01*
X0002238Y0243771D01*
X0002150Y0243546D01*
X0002067Y0243319D01*
X0001989Y0243090D01*
X0001918Y0242859D01*
X0001851Y0242627D01*
X0001791Y0242393D01*
X0001736Y0242158D01*
X0001686Y0241921D01*
X0001643Y0241684D01*
X0001605Y0241445D01*
X0001573Y0241205D01*
X0001547Y0240965D01*
X0001526Y0240724D01*
X0001512Y0240483D01*
X0001503Y0240242D01*
X0001500Y0240000D01*
X0001500Y0038000D01*
X0104104Y0196284D02*
X0104898Y0196072D01*
X0105717Y0196000D01*
X0138000Y0196000D01*
X0138000Y0203000D01*
X0126000Y0203000D01*
X0126000Y0207000D01*
X0109247Y0207000D01*
X0108895Y0207035D01*
X0108557Y0207137D01*
X0108245Y0207304D01*
X0107972Y0207528D01*
X0107426Y0208074D01*
X0107033Y0208553D01*
X0106741Y0209100D01*
X0106561Y0209693D01*
X0106500Y0210310D01*
X0106500Y0214830D01*
X0106423Y0215617D01*
X0106193Y0216373D01*
X0105821Y0217070D01*
X0105319Y0217681D01*
X0102115Y0220885D01*
X0101538Y0221358D01*
X0100880Y0221710D01*
X0100166Y0221927D01*
X0099423Y0222000D01*
X0089500Y0222000D01*
X0089500Y0213500D01*
X0101000Y0213500D01*
X0101000Y0200717D01*
X0101072Y0199898D01*
X0101284Y0199104D01*
X0101632Y0198358D01*
X0102104Y0197685D01*
X0102685Y0197104D01*
X0103358Y0196632D01*
X0104104Y0196284D01*
X0104383Y0196210D02*
X0138000Y0196210D01*
X0138000Y0197208D02*
X0102580Y0197208D01*
X0101738Y0198207D02*
X0138000Y0198207D01*
X0138000Y0199205D02*
X0101257Y0199205D01*
X0101045Y0200204D02*
X0138000Y0200204D01*
X0138000Y0201202D02*
X0101000Y0201202D01*
X0101000Y0202201D02*
X0138000Y0202201D01*
X0140200Y0202201D02*
X0177201Y0202201D01*
X0178199Y0203199D02*
X0140200Y0203199D01*
X0140200Y0203911D02*
X0140000Y0204111D01*
X0140000Y0204500D01*
X0139611Y0204500D01*
X0138911Y0205200D01*
X0128200Y0205200D01*
X0128200Y0207911D01*
X0128000Y0208111D01*
X0128000Y0213300D01*
X0142411Y0213300D01*
X0142611Y0213500D01*
X0144000Y0213500D01*
X0144000Y0239500D01*
X0167610Y0239500D01*
X0183500Y0223610D01*
X0183500Y0208500D01*
X0171000Y0196000D01*
X0140200Y0196000D01*
X0140200Y0203911D01*
X0140000Y0204198D02*
X0179198Y0204198D01*
X0180196Y0205196D02*
X0138915Y0205196D01*
X0140200Y0201202D02*
X0176202Y0201202D01*
X0175204Y0200204D02*
X0140200Y0200204D01*
X0140200Y0199205D02*
X0174205Y0199205D01*
X0173207Y0198207D02*
X0140200Y0198207D01*
X0140200Y0197208D02*
X0172208Y0197208D01*
X0171210Y0196210D02*
X0140200Y0196210D01*
X0128200Y0206195D02*
X0181195Y0206195D01*
X0182193Y0207193D02*
X0128200Y0207193D01*
X0128000Y0208192D02*
X0183192Y0208192D01*
X0183500Y0209190D02*
X0128000Y0209190D01*
X0128000Y0210189D02*
X0183500Y0210189D01*
X0183500Y0211187D02*
X0128000Y0211187D01*
X0128000Y0212186D02*
X0183500Y0212186D01*
X0183500Y0213184D02*
X0128000Y0213184D01*
X0127500Y0215500D02*
X0127500Y0239600D01*
X0141500Y0239600D01*
X0141500Y0215500D01*
X0127500Y0215500D01*
X0127500Y0216180D02*
X0141500Y0216180D01*
X0141500Y0217178D02*
X0127500Y0217178D01*
X0127500Y0218177D02*
X0141500Y0218177D01*
X0141500Y0219175D02*
X0127500Y0219175D01*
X0127500Y0220174D02*
X0141500Y0220174D01*
X0141500Y0221172D02*
X0127500Y0221172D01*
X0127500Y0222171D02*
X0141500Y0222171D01*
X0141500Y0223170D02*
X0127500Y0223170D01*
X0127500Y0224168D02*
X0141500Y0224168D01*
X0141500Y0225167D02*
X0127500Y0225167D01*
X0127500Y0226165D02*
X0141500Y0226165D01*
X0141500Y0227164D02*
X0127500Y0227164D01*
X0127500Y0228162D02*
X0141500Y0228162D01*
X0141500Y0229161D02*
X0127500Y0229161D01*
X0127500Y0230159D02*
X0141500Y0230159D01*
X0141500Y0231158D02*
X0127500Y0231158D01*
X0127500Y0232156D02*
X0141500Y0232156D01*
X0141500Y0233155D02*
X0127500Y0233155D01*
X0127500Y0234153D02*
X0141500Y0234153D01*
X0141500Y0235152D02*
X0127500Y0235152D01*
X0127500Y0236150D02*
X0141500Y0236150D01*
X0141500Y0237149D02*
X0127500Y0237149D01*
X0127500Y0238147D02*
X0141500Y0238147D01*
X0141500Y0239146D02*
X0127500Y0239146D01*
X0144000Y0239146D02*
X0167964Y0239146D01*
X0168963Y0238147D02*
X0144000Y0238147D01*
X0144000Y0237149D02*
X0169961Y0237149D01*
X0170960Y0236150D02*
X0144000Y0236150D01*
X0144000Y0235152D02*
X0171958Y0235152D01*
X0172957Y0234153D02*
X0144000Y0234153D01*
X0144000Y0233155D02*
X0173955Y0233155D01*
X0174954Y0232156D02*
X0144000Y0232156D01*
X0144000Y0231158D02*
X0175952Y0231158D01*
X0176951Y0230159D02*
X0144000Y0230159D01*
X0144000Y0229161D02*
X0177949Y0229161D01*
X0178948Y0228162D02*
X0144000Y0228162D01*
X0144000Y0227164D02*
X0179946Y0227164D01*
X0180945Y0226165D02*
X0144000Y0226165D01*
X0144000Y0225167D02*
X0181943Y0225167D01*
X0182942Y0224168D02*
X0144000Y0224168D01*
X0144000Y0223170D02*
X0183500Y0223170D01*
X0183500Y0222171D02*
X0144000Y0222171D01*
X0144000Y0221172D02*
X0183500Y0221172D01*
X0183500Y0220174D02*
X0144000Y0220174D01*
X0144000Y0219175D02*
X0183500Y0219175D01*
X0183500Y0218177D02*
X0144000Y0218177D01*
X0144000Y0217178D02*
X0183500Y0217178D01*
X0183500Y0216180D02*
X0144000Y0216180D01*
X0144000Y0215181D02*
X0183500Y0215181D01*
X0183500Y0214183D02*
X0144000Y0214183D01*
X0126000Y0206195D02*
X0101000Y0206195D01*
X0101000Y0207193D02*
X0108452Y0207193D01*
X0107329Y0208192D02*
X0101000Y0208192D01*
X0101000Y0209190D02*
X0106713Y0209190D01*
X0106512Y0210189D02*
X0101000Y0210189D01*
X0101000Y0211187D02*
X0106500Y0211187D01*
X0106500Y0212186D02*
X0101000Y0212186D01*
X0101000Y0213184D02*
X0106500Y0213184D01*
X0106500Y0214183D02*
X0089500Y0214183D01*
X0089500Y0215181D02*
X0106465Y0215181D01*
X0106252Y0216180D02*
X0089500Y0216180D01*
X0089500Y0217178D02*
X0105731Y0217178D01*
X0104823Y0218177D02*
X0089500Y0218177D01*
X0089500Y0219175D02*
X0103825Y0219175D01*
X0102826Y0220174D02*
X0089500Y0220174D01*
X0089500Y0221172D02*
X0101765Y0221172D01*
X0099100Y0211500D02*
X0079000Y0211500D01*
X0079000Y0200000D01*
X0099100Y0200000D01*
X0099100Y0211500D01*
X0099100Y0211187D02*
X0079000Y0211187D01*
X0079000Y0210189D02*
X0099100Y0210189D01*
X0099100Y0209190D02*
X0079000Y0209190D01*
X0079000Y0208192D02*
X0099100Y0208192D01*
X0099100Y0207193D02*
X0079000Y0207193D01*
X0079000Y0206195D02*
X0099100Y0206195D01*
X0099100Y0205196D02*
X0079000Y0205196D01*
X0079000Y0204198D02*
X0099100Y0204198D01*
X0099100Y0203199D02*
X0079000Y0203199D01*
X0079000Y0202201D02*
X0099100Y0202201D01*
X0099100Y0201202D02*
X0079000Y0201202D01*
X0079000Y0200204D02*
X0099100Y0200204D01*
X0101000Y0203199D02*
X0126000Y0203199D01*
X0126000Y0204198D02*
X0101000Y0204198D01*
X0101000Y0205196D02*
X0126000Y0205196D01*
X0181134Y0189618D02*
X0181134Y0185700D01*
X0181100Y0185700D01*
X0181134Y0185700D02*
X0181134Y0181744D01*
X0181134Y0173900D02*
X0189300Y0173900D01*
X0197866Y0173900D01*
X0197866Y0173870D01*
X0197866Y0189600D02*
X0197866Y0189618D01*
X0197866Y0193600D01*
X0201500Y0205500D02*
X0186000Y0205500D01*
X0186000Y0236500D01*
X0201500Y0236500D01*
X0201500Y0205500D01*
X0201500Y0206195D02*
X0186000Y0206195D01*
X0186000Y0207193D02*
X0201500Y0207193D01*
X0201500Y0208192D02*
X0186000Y0208192D01*
X0186000Y0209190D02*
X0201500Y0209190D01*
X0201500Y0210189D02*
X0186000Y0210189D01*
X0186000Y0211187D02*
X0201500Y0211187D01*
X0201500Y0212186D02*
X0186000Y0212186D01*
X0186000Y0213184D02*
X0201500Y0213184D01*
X0201500Y0214183D02*
X0186000Y0214183D01*
X0186000Y0215181D02*
X0201500Y0215181D01*
X0201500Y0216180D02*
X0186000Y0216180D01*
X0186000Y0217178D02*
X0201500Y0217178D01*
X0201500Y0218177D02*
X0186000Y0218177D01*
X0186000Y0219175D02*
X0201500Y0219175D01*
X0201500Y0220174D02*
X0186000Y0220174D01*
X0186000Y0221172D02*
X0201500Y0221172D01*
X0201500Y0222171D02*
X0186000Y0222171D01*
X0186000Y0223170D02*
X0201500Y0223170D01*
X0201500Y0224168D02*
X0186000Y0224168D01*
X0186000Y0225167D02*
X0201500Y0225167D01*
X0201500Y0226165D02*
X0186000Y0226165D01*
X0186000Y0227164D02*
X0201500Y0227164D01*
X0201500Y0228162D02*
X0186000Y0228162D01*
X0186000Y0229161D02*
X0201500Y0229161D01*
X0201500Y0230159D02*
X0186000Y0230159D01*
X0186000Y0231158D02*
X0201500Y0231158D01*
X0201500Y0232156D02*
X0186000Y0232156D01*
X0186000Y0233155D02*
X0201500Y0233155D01*
X0201500Y0234153D02*
X0186000Y0234153D01*
X0186000Y0235152D02*
X0201500Y0235152D01*
X0201500Y0236150D02*
X0186000Y0236150D01*
X0181134Y0173900D02*
X0181134Y0173870D01*
X0181134Y0142400D02*
X0189400Y0142400D01*
X0197866Y0142400D01*
X0197866Y0142374D01*
X0181134Y0142374D02*
X0181134Y0142400D01*
X0181134Y0095130D02*
X0189500Y0095130D01*
X0189500Y0095200D01*
X0189500Y0095130D02*
X0197866Y0095130D01*
D11*
X0151453Y0131000D03*
X0151453Y0137500D03*
X0145547Y0137500D03*
X0145547Y0131000D03*
X0145547Y0147500D03*
X0151453Y0147500D03*
X0151453Y0159500D03*
X0145547Y0159500D03*
X0145547Y0167500D03*
X0151453Y0167500D03*
X0145953Y0228500D03*
X0140047Y0228500D03*
X0093953Y0226500D03*
X0088047Y0226500D03*
X0087547Y0174200D03*
X0093453Y0174200D03*
X0093453Y0165500D03*
X0087547Y0165500D03*
X0087547Y0158000D03*
X0093453Y0158000D03*
X0093453Y0150500D03*
X0087547Y0150500D03*
X0087547Y0138500D03*
X0093453Y0138500D03*
X0093453Y0129500D03*
X0087547Y0129500D03*
X0087547Y0120500D03*
X0093453Y0120500D03*
X0067953Y0141500D03*
X0062047Y0141500D03*
X0062047Y0147500D03*
X0067953Y0147500D03*
D12*
X0115000Y0202791D03*
X0115000Y0214209D03*
X0095000Y0218709D03*
X0095000Y0207291D03*
D13*
X0096709Y0234500D03*
X0085291Y0234500D03*
X0137291Y0236500D03*
X0148709Y0236500D03*
D14*
X0123000Y0211453D03*
X0123000Y0205547D03*
X0086000Y0210047D03*
X0086000Y0215953D03*
X0160500Y0133953D03*
X0160500Y0128047D03*
X0048200Y0045753D03*
X0048200Y0039847D03*
X0048200Y0033753D03*
X0048200Y0027847D03*
D15*
X0026000Y0050000D03*
X0026000Y0060000D03*
X0026000Y0070000D03*
X0026000Y0080000D03*
X0026000Y0090000D03*
X0026000Y0100000D03*
X0026000Y0110000D03*
X0026000Y0120000D03*
X0026000Y0130000D03*
X0026000Y0140000D03*
X0026000Y0150000D03*
X0026000Y0160000D03*
X0026000Y0170000D03*
X0026000Y0180000D03*
X0026000Y0190000D03*
X0026000Y0200000D03*
X0026000Y0210000D03*
X0026000Y0220000D03*
X0026000Y0230000D03*
X0026000Y0240000D03*
X0016000Y0240000D03*
X0016000Y0230000D03*
X0016000Y0220000D03*
X0016000Y0210000D03*
X0016000Y0200000D03*
X0016000Y0190000D03*
X0016000Y0180000D03*
X0016000Y0170000D03*
X0016000Y0160000D03*
X0016000Y0150000D03*
X0016000Y0140000D03*
X0016000Y0130000D03*
X0016000Y0120000D03*
X0016000Y0110000D03*
X0016000Y0100000D03*
X0016000Y0090000D03*
X0016000Y0080000D03*
X0016000Y0070000D03*
X0016000Y0060000D03*
X0016000Y0050000D03*
D16*
X0181134Y0079382D03*
X0181134Y0087256D03*
X0181134Y0095130D03*
X0181134Y0103004D03*
X0181134Y0110878D03*
X0181134Y0118752D03*
X0181134Y0126626D03*
X0181134Y0134500D03*
X0181134Y0142374D03*
X0181134Y0150248D03*
X0181134Y0158122D03*
X0181134Y0165996D03*
X0181134Y0173870D03*
X0181134Y0181744D03*
X0181134Y0189618D03*
X0197866Y0189618D03*
X0197866Y0181744D03*
X0197866Y0173870D03*
X0197866Y0165996D03*
X0197866Y0158122D03*
X0197866Y0150248D03*
X0197866Y0142374D03*
X0197866Y0134500D03*
X0197866Y0126626D03*
X0197866Y0118752D03*
X0197866Y0110878D03*
X0197866Y0103004D03*
X0197866Y0095130D03*
X0197866Y0087256D03*
X0197866Y0079382D03*
D17*
X0187531Y0083319D02*
X0187533Y0083407D01*
X0187539Y0083495D01*
X0187549Y0083583D01*
X0187563Y0083671D01*
X0187580Y0083757D01*
X0187602Y0083843D01*
X0187627Y0083927D01*
X0187657Y0084011D01*
X0187689Y0084093D01*
X0187726Y0084173D01*
X0187766Y0084252D01*
X0187810Y0084329D01*
X0187857Y0084404D01*
X0187907Y0084476D01*
X0187961Y0084547D01*
X0188017Y0084614D01*
X0188077Y0084680D01*
X0188139Y0084742D01*
X0188205Y0084802D01*
X0188272Y0084858D01*
X0188343Y0084912D01*
X0188415Y0084962D01*
X0188490Y0085009D01*
X0188567Y0085053D01*
X0188646Y0085093D01*
X0188726Y0085130D01*
X0188808Y0085162D01*
X0188892Y0085192D01*
X0188976Y0085217D01*
X0189062Y0085239D01*
X0189148Y0085256D01*
X0189236Y0085270D01*
X0189324Y0085280D01*
X0189412Y0085286D01*
X0189500Y0085288D01*
X0189588Y0085286D01*
X0189676Y0085280D01*
X0189764Y0085270D01*
X0189852Y0085256D01*
X0189938Y0085239D01*
X0190024Y0085217D01*
X0190108Y0085192D01*
X0190192Y0085162D01*
X0190274Y0085130D01*
X0190354Y0085093D01*
X0190433Y0085053D01*
X0190510Y0085009D01*
X0190585Y0084962D01*
X0190657Y0084912D01*
X0190728Y0084858D01*
X0190795Y0084802D01*
X0190861Y0084742D01*
X0190923Y0084680D01*
X0190983Y0084614D01*
X0191039Y0084547D01*
X0191093Y0084476D01*
X0191143Y0084404D01*
X0191190Y0084329D01*
X0191234Y0084252D01*
X0191274Y0084173D01*
X0191311Y0084093D01*
X0191343Y0084011D01*
X0191373Y0083927D01*
X0191398Y0083843D01*
X0191420Y0083757D01*
X0191437Y0083671D01*
X0191451Y0083583D01*
X0191461Y0083495D01*
X0191467Y0083407D01*
X0191469Y0083319D01*
X0191467Y0083231D01*
X0191461Y0083143D01*
X0191451Y0083055D01*
X0191437Y0082967D01*
X0191420Y0082881D01*
X0191398Y0082795D01*
X0191373Y0082711D01*
X0191343Y0082627D01*
X0191311Y0082545D01*
X0191274Y0082465D01*
X0191234Y0082386D01*
X0191190Y0082309D01*
X0191143Y0082234D01*
X0191093Y0082162D01*
X0191039Y0082091D01*
X0190983Y0082024D01*
X0190923Y0081958D01*
X0190861Y0081896D01*
X0190795Y0081836D01*
X0190728Y0081780D01*
X0190657Y0081726D01*
X0190585Y0081676D01*
X0190510Y0081629D01*
X0190433Y0081585D01*
X0190354Y0081545D01*
X0190274Y0081508D01*
X0190192Y0081476D01*
X0190108Y0081446D01*
X0190024Y0081421D01*
X0189938Y0081399D01*
X0189852Y0081382D01*
X0189764Y0081368D01*
X0189676Y0081358D01*
X0189588Y0081352D01*
X0189500Y0081350D01*
X0189412Y0081352D01*
X0189324Y0081358D01*
X0189236Y0081368D01*
X0189148Y0081382D01*
X0189062Y0081399D01*
X0188976Y0081421D01*
X0188892Y0081446D01*
X0188808Y0081476D01*
X0188726Y0081508D01*
X0188646Y0081545D01*
X0188567Y0081585D01*
X0188490Y0081629D01*
X0188415Y0081676D01*
X0188343Y0081726D01*
X0188272Y0081780D01*
X0188205Y0081836D01*
X0188139Y0081896D01*
X0188077Y0081958D01*
X0188017Y0082024D01*
X0187961Y0082091D01*
X0187907Y0082162D01*
X0187857Y0082234D01*
X0187810Y0082309D01*
X0187766Y0082386D01*
X0187726Y0082465D01*
X0187689Y0082545D01*
X0187657Y0082627D01*
X0187627Y0082711D01*
X0187602Y0082795D01*
X0187580Y0082881D01*
X0187563Y0082967D01*
X0187549Y0083055D01*
X0187539Y0083143D01*
X0187533Y0083231D01*
X0187531Y0083319D01*
X0187531Y0185681D02*
X0187533Y0185769D01*
X0187539Y0185857D01*
X0187549Y0185945D01*
X0187563Y0186033D01*
X0187580Y0186119D01*
X0187602Y0186205D01*
X0187627Y0186289D01*
X0187657Y0186373D01*
X0187689Y0186455D01*
X0187726Y0186535D01*
X0187766Y0186614D01*
X0187810Y0186691D01*
X0187857Y0186766D01*
X0187907Y0186838D01*
X0187961Y0186909D01*
X0188017Y0186976D01*
X0188077Y0187042D01*
X0188139Y0187104D01*
X0188205Y0187164D01*
X0188272Y0187220D01*
X0188343Y0187274D01*
X0188415Y0187324D01*
X0188490Y0187371D01*
X0188567Y0187415D01*
X0188646Y0187455D01*
X0188726Y0187492D01*
X0188808Y0187524D01*
X0188892Y0187554D01*
X0188976Y0187579D01*
X0189062Y0187601D01*
X0189148Y0187618D01*
X0189236Y0187632D01*
X0189324Y0187642D01*
X0189412Y0187648D01*
X0189500Y0187650D01*
X0189588Y0187648D01*
X0189676Y0187642D01*
X0189764Y0187632D01*
X0189852Y0187618D01*
X0189938Y0187601D01*
X0190024Y0187579D01*
X0190108Y0187554D01*
X0190192Y0187524D01*
X0190274Y0187492D01*
X0190354Y0187455D01*
X0190433Y0187415D01*
X0190510Y0187371D01*
X0190585Y0187324D01*
X0190657Y0187274D01*
X0190728Y0187220D01*
X0190795Y0187164D01*
X0190861Y0187104D01*
X0190923Y0187042D01*
X0190983Y0186976D01*
X0191039Y0186909D01*
X0191093Y0186838D01*
X0191143Y0186766D01*
X0191190Y0186691D01*
X0191234Y0186614D01*
X0191274Y0186535D01*
X0191311Y0186455D01*
X0191343Y0186373D01*
X0191373Y0186289D01*
X0191398Y0186205D01*
X0191420Y0186119D01*
X0191437Y0186033D01*
X0191451Y0185945D01*
X0191461Y0185857D01*
X0191467Y0185769D01*
X0191469Y0185681D01*
X0191467Y0185593D01*
X0191461Y0185505D01*
X0191451Y0185417D01*
X0191437Y0185329D01*
X0191420Y0185243D01*
X0191398Y0185157D01*
X0191373Y0185073D01*
X0191343Y0184989D01*
X0191311Y0184907D01*
X0191274Y0184827D01*
X0191234Y0184748D01*
X0191190Y0184671D01*
X0191143Y0184596D01*
X0191093Y0184524D01*
X0191039Y0184453D01*
X0190983Y0184386D01*
X0190923Y0184320D01*
X0190861Y0184258D01*
X0190795Y0184198D01*
X0190728Y0184142D01*
X0190657Y0184088D01*
X0190585Y0184038D01*
X0190510Y0183991D01*
X0190433Y0183947D01*
X0190354Y0183907D01*
X0190274Y0183870D01*
X0190192Y0183838D01*
X0190108Y0183808D01*
X0190024Y0183783D01*
X0189938Y0183761D01*
X0189852Y0183744D01*
X0189764Y0183730D01*
X0189676Y0183720D01*
X0189588Y0183714D01*
X0189500Y0183712D01*
X0189412Y0183714D01*
X0189324Y0183720D01*
X0189236Y0183730D01*
X0189148Y0183744D01*
X0189062Y0183761D01*
X0188976Y0183783D01*
X0188892Y0183808D01*
X0188808Y0183838D01*
X0188726Y0183870D01*
X0188646Y0183907D01*
X0188567Y0183947D01*
X0188490Y0183991D01*
X0188415Y0184038D01*
X0188343Y0184088D01*
X0188272Y0184142D01*
X0188205Y0184198D01*
X0188139Y0184258D01*
X0188077Y0184320D01*
X0188017Y0184386D01*
X0187961Y0184453D01*
X0187907Y0184524D01*
X0187857Y0184596D01*
X0187810Y0184671D01*
X0187766Y0184748D01*
X0187726Y0184827D01*
X0187689Y0184907D01*
X0187657Y0184989D01*
X0187627Y0185073D01*
X0187602Y0185157D01*
X0187580Y0185243D01*
X0187563Y0185329D01*
X0187549Y0185417D01*
X0187539Y0185505D01*
X0187533Y0185593D01*
X0187531Y0185681D01*
D18*
X0184500Y0055685D03*
X0184500Y0047811D03*
X0184500Y0039937D03*
X0184500Y0032063D03*
X0184500Y0024189D03*
X0184500Y0016315D03*
D19*
X0193949Y0006866D03*
X0193949Y0065134D03*
D20*
X0195000Y0232000D03*
X0195000Y0242000D03*
D21*
X0135248Y0171138D03*
X0135248Y0169169D03*
X0135248Y0167201D03*
X0135248Y0165232D03*
X0135248Y0163264D03*
X0135248Y0161295D03*
X0135248Y0159327D03*
X0135248Y0157358D03*
X0135248Y0155390D03*
X0135248Y0153421D03*
X0135248Y0151453D03*
X0135248Y0149484D03*
X0135248Y0147516D03*
X0135248Y0145547D03*
X0135248Y0143579D03*
X0135248Y0141610D03*
X0135248Y0139642D03*
X0135248Y0137673D03*
X0135248Y0135705D03*
X0135248Y0133736D03*
X0135248Y0131768D03*
X0135248Y0129799D03*
X0135248Y0127831D03*
X0135248Y0125862D03*
X0103752Y0125862D03*
X0103752Y0127831D03*
X0103752Y0129799D03*
X0103752Y0131768D03*
X0103752Y0133736D03*
X0103752Y0135705D03*
X0103752Y0137673D03*
X0103752Y0139642D03*
X0103752Y0141610D03*
X0103752Y0143579D03*
X0103752Y0145547D03*
X0103752Y0147516D03*
X0103752Y0149484D03*
X0103752Y0151453D03*
X0103752Y0153421D03*
X0103752Y0155390D03*
X0103752Y0157358D03*
X0103752Y0159327D03*
X0103752Y0161295D03*
X0103752Y0163264D03*
X0103752Y0165232D03*
X0103752Y0167201D03*
X0103752Y0169169D03*
X0103752Y0171138D03*
D22*
X0133000Y0199445D03*
X0133000Y0208500D03*
X0133000Y0217555D03*
D23*
X0156228Y0208500D03*
D24*
X0173370Y0213000D03*
X0194630Y0213000D03*
D25*
X0150000Y0037630D03*
X0150000Y0016370D03*
D26*
X0065000Y0235600D03*
X0055000Y0235600D03*
X0045000Y0235600D03*
D27*
X0055000Y0200600D03*
D28*
X0038600Y0200406D02*
X0071400Y0200406D01*
X0071400Y0199908D02*
X0038600Y0199908D01*
X0038600Y0199409D02*
X0071400Y0199409D01*
X0071400Y0198910D02*
X0038600Y0198910D01*
X0038600Y0198412D02*
X0071400Y0198412D01*
X0071400Y0197913D02*
X0038600Y0197913D01*
X0038600Y0197415D02*
X0071400Y0197415D01*
X0071400Y0196916D02*
X0038600Y0196916D01*
X0038600Y0196418D02*
X0071400Y0196418D01*
X0071400Y0195919D02*
X0038600Y0195919D01*
X0038600Y0195421D02*
X0071400Y0195421D01*
X0071400Y0194922D02*
X0038600Y0194922D01*
X0038600Y0194424D02*
X0071400Y0194424D01*
X0071400Y0193925D02*
X0038600Y0193925D01*
X0038600Y0193427D02*
X0071400Y0193427D01*
X0071400Y0192928D02*
X0038600Y0192928D01*
X0038600Y0192430D02*
X0071400Y0192430D01*
X0071400Y0191931D02*
X0038600Y0191931D01*
X0038600Y0191433D02*
X0071400Y0191433D01*
X0071400Y0190934D02*
X0038600Y0190934D01*
X0038600Y0190436D02*
X0071400Y0190436D01*
X0071400Y0189937D02*
X0038600Y0189937D01*
X0038600Y0189439D02*
X0071400Y0189439D01*
X0071400Y0188940D02*
X0038600Y0188940D01*
X0038600Y0188442D02*
X0071400Y0188442D01*
X0071400Y0187943D02*
X0038600Y0187943D01*
X0038600Y0187445D02*
X0071400Y0187445D01*
X0071400Y0187300D02*
X0071400Y0207300D01*
X0038600Y0207300D01*
X0038600Y0187300D01*
X0033750Y0187300D01*
X0033750Y0179800D01*
X0076250Y0179800D01*
X0076250Y0187300D01*
X0071400Y0187300D01*
X0076250Y0186946D02*
X0033750Y0186946D01*
X0033750Y0186448D02*
X0076250Y0186448D01*
X0076250Y0185949D02*
X0033750Y0185949D01*
X0033750Y0185451D02*
X0076250Y0185451D01*
X0076250Y0184952D02*
X0033750Y0184952D01*
X0033750Y0184454D02*
X0076250Y0184454D01*
X0076250Y0183955D02*
X0033750Y0183955D01*
X0033750Y0183457D02*
X0076250Y0183457D01*
X0076250Y0182958D02*
X0033750Y0182958D01*
X0033750Y0182460D02*
X0076250Y0182460D01*
X0076250Y0181961D02*
X0033750Y0181961D01*
X0033750Y0181463D02*
X0076250Y0181463D01*
X0076250Y0180964D02*
X0033750Y0180964D01*
X0033750Y0180466D02*
X0076250Y0180466D01*
X0076250Y0179967D02*
X0033750Y0179967D01*
X0038600Y0200905D02*
X0071400Y0200905D01*
X0071400Y0201403D02*
X0038600Y0201403D01*
X0038600Y0201902D02*
X0071400Y0201902D01*
X0071400Y0202400D02*
X0038600Y0202400D01*
X0038600Y0202899D02*
X0071400Y0202899D01*
X0071400Y0203397D02*
X0038600Y0203397D01*
X0038600Y0203896D02*
X0071400Y0203896D01*
X0071400Y0204394D02*
X0038600Y0204394D01*
X0038600Y0204893D02*
X0071400Y0204893D01*
X0071400Y0205391D02*
X0038600Y0205391D01*
X0038600Y0205890D02*
X0071400Y0205890D01*
X0071400Y0206388D02*
X0038600Y0206388D01*
X0038600Y0206887D02*
X0071400Y0206887D01*
D29*
X0076500Y0206789D02*
X0033000Y0206789D01*
X0033000Y0206191D02*
X0076500Y0206191D01*
X0076500Y0205592D02*
X0033000Y0205592D01*
X0033000Y0204994D02*
X0076500Y0204994D01*
X0076500Y0204395D02*
X0033000Y0204395D01*
X0033000Y0203797D02*
X0076500Y0203797D01*
X0076500Y0203198D02*
X0033000Y0203198D01*
X0033000Y0202600D02*
X0076500Y0202600D01*
X0076500Y0202001D02*
X0033000Y0202001D01*
X0033000Y0201403D02*
X0076500Y0201403D01*
X0076500Y0200804D02*
X0033000Y0200804D01*
X0033000Y0200206D02*
X0076500Y0200206D01*
X0076500Y0199607D02*
X0033000Y0199607D01*
X0033000Y0199009D02*
X0076500Y0199009D01*
X0076500Y0198500D02*
X0095500Y0198500D01*
X0095500Y0194546D01*
X0075254Y0174300D01*
X0035246Y0174300D01*
X0033300Y0176246D01*
X0033300Y0190746D01*
X0033000Y0191046D01*
X0033000Y0241000D01*
X0051500Y0241000D01*
X0051500Y0240571D01*
X0051400Y0240471D01*
X0051400Y0230729D01*
X0051500Y0230629D01*
X0051500Y0216500D01*
X0053097Y0216500D01*
X0054304Y0216000D01*
X0055696Y0216000D01*
X0056903Y0216500D01*
X0076500Y0216500D01*
X0076500Y0198500D01*
X0076500Y0207388D02*
X0033000Y0207388D01*
X0033000Y0207986D02*
X0076500Y0207986D01*
X0076500Y0208585D02*
X0033000Y0208585D01*
X0033000Y0209183D02*
X0076500Y0209183D01*
X0076500Y0209782D02*
X0033000Y0209782D01*
X0033000Y0210380D02*
X0076500Y0210380D01*
X0076500Y0210979D02*
X0033000Y0210979D01*
X0033000Y0211577D02*
X0076500Y0211577D01*
X0076500Y0212176D02*
X0033000Y0212176D01*
X0033000Y0212774D02*
X0076500Y0212774D01*
X0076500Y0213373D02*
X0033000Y0213373D01*
X0033000Y0213972D02*
X0076500Y0213972D01*
X0076500Y0214570D02*
X0033000Y0214570D01*
X0033000Y0215169D02*
X0076500Y0215169D01*
X0076500Y0215767D02*
X0033000Y0215767D01*
X0033000Y0216366D02*
X0053421Y0216366D01*
X0051500Y0216964D02*
X0033000Y0216964D01*
X0033000Y0217563D02*
X0051500Y0217563D01*
X0051500Y0218161D02*
X0033000Y0218161D01*
X0033000Y0218760D02*
X0051500Y0218760D01*
X0051500Y0219358D02*
X0033000Y0219358D01*
X0033000Y0219957D02*
X0051500Y0219957D01*
X0051500Y0220555D02*
X0033000Y0220555D01*
X0033000Y0221154D02*
X0051500Y0221154D01*
X0051500Y0221752D02*
X0033000Y0221752D01*
X0033000Y0222351D02*
X0051500Y0222351D01*
X0051500Y0222949D02*
X0033000Y0222949D01*
X0033000Y0223548D02*
X0051500Y0223548D01*
X0051500Y0224146D02*
X0033000Y0224146D01*
X0033000Y0224745D02*
X0051500Y0224745D01*
X0051500Y0225343D02*
X0033000Y0225343D01*
X0033000Y0225942D02*
X0051500Y0225942D01*
X0051500Y0226540D02*
X0033000Y0226540D01*
X0033000Y0227139D02*
X0051500Y0227139D01*
X0051500Y0227737D02*
X0033000Y0227737D01*
X0033000Y0228336D02*
X0051500Y0228336D01*
X0051500Y0228934D02*
X0033000Y0228934D01*
X0033000Y0229533D02*
X0051500Y0229533D01*
X0051500Y0230131D02*
X0033000Y0230131D01*
X0033000Y0230730D02*
X0051400Y0230730D01*
X0051400Y0231328D02*
X0033000Y0231328D01*
X0033000Y0231927D02*
X0051400Y0231927D01*
X0051400Y0232525D02*
X0033000Y0232525D01*
X0033000Y0233124D02*
X0051400Y0233124D01*
X0051400Y0233722D02*
X0033000Y0233722D01*
X0033000Y0234321D02*
X0051400Y0234321D01*
X0051400Y0234919D02*
X0033000Y0234919D01*
X0033000Y0235518D02*
X0051400Y0235518D01*
X0051400Y0236116D02*
X0033000Y0236116D01*
X0033000Y0236715D02*
X0051400Y0236715D01*
X0051400Y0237313D02*
X0033000Y0237313D01*
X0033000Y0237912D02*
X0051400Y0237912D01*
X0051400Y0238510D02*
X0033000Y0238510D01*
X0033000Y0239109D02*
X0051400Y0239109D01*
X0051400Y0239708D02*
X0033000Y0239708D01*
X0033000Y0240306D02*
X0051400Y0240306D01*
X0051500Y0240905D02*
X0033000Y0240905D01*
X0016000Y0230000D02*
X0003500Y0217500D01*
X0003500Y0142000D01*
X0011000Y0134500D01*
X0017000Y0134500D01*
X0019500Y0132000D01*
X0019500Y0127000D01*
X0023000Y0123500D01*
X0095500Y0123500D01*
X0099831Y0127831D01*
X0103752Y0127831D01*
X0103752Y0129799D02*
X0099799Y0129799D01*
X0095000Y0125000D01*
X0023500Y0125000D01*
X0021000Y0127500D01*
X0021000Y0133000D01*
X0017500Y0136500D01*
X0011000Y0136500D01*
X0005000Y0142500D01*
X0005000Y0209000D01*
X0016000Y0220000D01*
X0016000Y0210000D02*
X0006500Y0200500D01*
X0006500Y0148000D01*
X0010787Y0143713D01*
X0049213Y0143713D01*
X0057500Y0152000D01*
X0069500Y0152000D01*
X0071000Y0150500D01*
X0071000Y0148500D01*
X0073500Y0146000D01*
X0097000Y0146000D01*
X0098516Y0147516D01*
X0103752Y0147516D01*
X0103752Y0149484D02*
X0098484Y0149484D01*
X0096500Y0147500D01*
X0074000Y0147500D01*
X0072500Y0149000D01*
X0072500Y0151000D01*
X0070000Y0153500D01*
X0057000Y0153500D01*
X0048807Y0145307D01*
X0011193Y0145307D01*
X0008000Y0148500D01*
X0008000Y0189000D01*
X0015500Y0196500D01*
X0022500Y0196500D01*
X0026000Y0200000D01*
X0030000Y0197500D02*
X0027500Y0195000D01*
X0016000Y0195000D01*
X0009500Y0188500D01*
X0009500Y0149000D01*
X0011914Y0146586D01*
X0048086Y0146586D01*
X0057000Y0155500D01*
X0070000Y0155500D01*
X0072079Y0153421D01*
X0103752Y0153421D01*
X0103752Y0151453D02*
X0096953Y0151453D01*
X0096000Y0150500D01*
X0093453Y0150500D01*
X0090500Y0150500D01*
X0087547Y0158000D02*
X0084000Y0158000D01*
X0090500Y0165500D02*
X0093453Y0165500D01*
X0095500Y0165500D01*
X0097736Y0163264D01*
X0103752Y0163264D01*
X0103752Y0165232D02*
X0098768Y0165232D01*
X0095500Y0168500D01*
X0068000Y0168500D01*
X0053000Y0153500D01*
X0019500Y0153500D01*
X0016000Y0150000D01*
X0016000Y0140000D02*
X0022500Y0133500D01*
X0022500Y0128000D01*
X0024000Y0126500D01*
X0077500Y0126500D01*
X0083500Y0132500D01*
X0096500Y0132500D01*
X0097736Y0133736D01*
X0103752Y0133736D01*
X0103752Y0131768D02*
X0098768Y0131768D01*
X0096500Y0129500D01*
X0093453Y0129500D01*
X0096000Y0134000D02*
X0083000Y0134000D01*
X0077000Y0128000D01*
X0028000Y0128000D01*
X0026000Y0130000D01*
X0021000Y0121500D02*
X0016000Y0126500D01*
X0016000Y0130000D01*
X0021000Y0121500D02*
X0021000Y0118500D01*
X0023500Y0116000D01*
X0027000Y0116000D01*
X0031000Y0112000D01*
X0031000Y0108500D01*
X0029000Y0106500D01*
X0016500Y0106500D01*
X0009000Y0099000D01*
X0009000Y0079500D01*
X0012000Y0076500D01*
X0018500Y0076500D01*
X0020500Y0078500D01*
X0020500Y0081500D01*
X0024000Y0085000D01*
X0027000Y0085000D01*
X0032500Y0090500D01*
X0104000Y0090500D01*
X0117500Y0104000D01*
X0117500Y0154000D01*
X0110205Y0161295D01*
X0103752Y0161295D01*
X0103752Y0159327D02*
X0110173Y0159327D01*
X0116000Y0153500D01*
X0116000Y0104500D01*
X0103500Y0092000D01*
X0028000Y0092000D01*
X0026000Y0090000D01*
X0024500Y0093500D02*
X0022500Y0091500D01*
X0022500Y0086500D01*
X0016000Y0080000D01*
X0020500Y0076500D02*
X0019000Y0075000D01*
X0012500Y0075000D01*
X0011000Y0073500D01*
X0011000Y0047000D01*
X0013095Y0044905D01*
X0020905Y0044905D01*
X0026000Y0050000D01*
X0021000Y0055000D02*
X0044500Y0055000D01*
X0048200Y0051300D01*
X0048200Y0045753D01*
X0048200Y0039847D02*
X0048200Y0033753D01*
X0048200Y0036800D01*
X0065800Y0036800D01*
X0073600Y0029000D01*
X0156000Y0029000D01*
X0159063Y0032063D01*
X0184500Y0032063D01*
X0130500Y0058000D02*
X0114500Y0042000D01*
X0010402Y0042000D01*
X0005222Y0047180D01*
X0005222Y0107722D01*
X0012000Y0114500D01*
X0021500Y0114500D01*
X0026000Y0110000D01*
X0025000Y0105000D02*
X0022000Y0102000D01*
X0022000Y0099000D01*
X0016000Y0093000D01*
X0016000Y0090000D01*
X0018500Y0085500D02*
X0013000Y0085500D01*
X0011000Y0087500D01*
X0011000Y0095000D01*
X0016000Y0100000D01*
X0024000Y0095000D02*
X0021000Y0092000D01*
X0021000Y0088000D01*
X0018500Y0085500D01*
X0020500Y0076500D02*
X0028000Y0076500D01*
X0040500Y0089000D01*
X0104500Y0089000D01*
X0119000Y0103500D01*
X0119000Y0157000D01*
X0108799Y0167201D01*
X0103752Y0167201D01*
X0103752Y0169169D02*
X0099332Y0169169D01*
X0096500Y0172001D01*
X0096500Y0173500D01*
X0095800Y0174200D01*
X0093453Y0174200D01*
X0087547Y0174200D02*
X0084000Y0174200D01*
X0079614Y0178659D02*
X0033300Y0178659D01*
X0033300Y0178061D02*
X0079015Y0178061D01*
X0078417Y0177462D02*
X0033300Y0177462D01*
X0033300Y0176864D02*
X0077818Y0176864D01*
X0077220Y0176265D02*
X0033300Y0176265D01*
X0033879Y0175667D02*
X0076621Y0175667D01*
X0076023Y0175068D02*
X0034477Y0175068D01*
X0035076Y0174470D02*
X0075424Y0174470D01*
X0076000Y0172500D02*
X0034500Y0172500D01*
X0031500Y0175500D01*
X0031500Y0190000D01*
X0028000Y0193500D01*
X0019500Y0193500D01*
X0016000Y0190000D01*
X0026000Y0190000D02*
X0030000Y0186000D01*
X0030000Y0175000D01*
X0034000Y0171000D01*
X0076500Y0171000D01*
X0097500Y0192000D01*
X0151000Y0192000D01*
X0162000Y0181000D01*
X0162000Y0175000D01*
X0157500Y0170500D01*
X0143000Y0170500D01*
X0141669Y0169169D01*
X0135248Y0169169D01*
X0135248Y0167201D02*
X0145248Y0167201D01*
X0145547Y0167500D01*
X0148500Y0167500D01*
X0143000Y0164000D02*
X0158000Y0164000D01*
X0163500Y0169500D01*
X0163500Y0181500D01*
X0151500Y0193500D01*
X0097000Y0193500D01*
X0076000Y0172500D01*
X0080212Y0179258D02*
X0033300Y0179258D01*
X0033300Y0179856D02*
X0080811Y0179856D01*
X0081409Y0180455D02*
X0033300Y0180455D01*
X0033300Y0181053D02*
X0082008Y0181053D01*
X0082606Y0181652D02*
X0033300Y0181652D01*
X0033300Y0182250D02*
X0083205Y0182250D01*
X0083803Y0182849D02*
X0033300Y0182849D01*
X0033300Y0183447D02*
X0084402Y0183447D01*
X0085000Y0184046D02*
X0033300Y0184046D01*
X0033300Y0184644D02*
X0085599Y0184644D01*
X0086197Y0185243D02*
X0033300Y0185243D01*
X0033300Y0185841D02*
X0086796Y0185841D01*
X0087394Y0186440D02*
X0033300Y0186440D01*
X0033300Y0187039D02*
X0087993Y0187039D01*
X0088591Y0187637D02*
X0033300Y0187637D01*
X0033300Y0188236D02*
X0089190Y0188236D01*
X0089788Y0188834D02*
X0033300Y0188834D01*
X0033300Y0189433D02*
X0090387Y0189433D01*
X0090985Y0190031D02*
X0033300Y0190031D01*
X0033300Y0190630D02*
X0091584Y0190630D01*
X0092183Y0191228D02*
X0033000Y0191228D01*
X0033000Y0191827D02*
X0092781Y0191827D01*
X0093380Y0192425D02*
X0033000Y0192425D01*
X0033000Y0193024D02*
X0093978Y0193024D01*
X0094577Y0193622D02*
X0033000Y0193622D01*
X0033000Y0194221D02*
X0095175Y0194221D01*
X0095500Y0194819D02*
X0033000Y0194819D01*
X0033000Y0195418D02*
X0095500Y0195418D01*
X0095500Y0196016D02*
X0033000Y0196016D01*
X0033000Y0196615D02*
X0095500Y0196615D01*
X0095500Y0197213D02*
X0033000Y0197213D01*
X0033000Y0197812D02*
X0095500Y0197812D01*
X0095500Y0198410D02*
X0033000Y0198410D01*
X0030000Y0197500D02*
X0030000Y0206000D01*
X0026000Y0210000D01*
X0056579Y0216366D02*
X0076500Y0216366D01*
X0103752Y0171138D02*
X0110362Y0171138D01*
X0120500Y0161000D01*
X0120500Y0103000D01*
X0105000Y0087500D01*
X0041500Y0087500D01*
X0029000Y0075000D01*
X0021000Y0075000D01*
X0019500Y0073500D01*
X0014000Y0073500D01*
X0012500Y0072000D01*
X0012500Y0067000D01*
X0014500Y0065000D01*
X0021000Y0065000D01*
X0026000Y0060000D01*
X0021000Y0055000D02*
X0016000Y0060000D01*
X0016000Y0070000D02*
X0021000Y0070000D01*
X0024500Y0073500D01*
X0027500Y0073500D01*
X0029500Y0071500D01*
X0112500Y0071500D01*
X0126000Y0085000D01*
X0126000Y0168000D01*
X0129138Y0171138D01*
X0135248Y0171138D01*
X0135248Y0165232D02*
X0141768Y0165232D01*
X0143000Y0164000D01*
X0145547Y0159500D02*
X0148500Y0159500D01*
X0145547Y0159500D02*
X0145374Y0159327D01*
X0135248Y0159327D01*
X0135248Y0157358D02*
X0141642Y0157358D01*
X0142500Y0156500D01*
X0165500Y0156500D01*
X0175000Y0166000D01*
X0181130Y0166000D01*
X0181134Y0165996D01*
X0187500Y0162000D02*
X0191496Y0165996D01*
X0197866Y0165996D01*
X0197866Y0158122D02*
X0191622Y0158122D01*
X0187700Y0154200D01*
X0173100Y0154200D01*
X0170900Y0152000D01*
X0143500Y0152000D01*
X0142953Y0151453D01*
X0135248Y0151453D01*
X0135248Y0153421D02*
X0170421Y0153421D01*
X0175122Y0158122D01*
X0181134Y0158122D01*
X0187500Y0162000D02*
X0173000Y0162000D01*
X0166000Y0155000D01*
X0142000Y0155000D01*
X0141610Y0155390D01*
X0135248Y0155390D01*
X0135248Y0149484D02*
X0142984Y0149484D01*
X0144000Y0150500D01*
X0151000Y0150500D01*
X0151500Y0150000D01*
X0151500Y0147547D01*
X0151453Y0147500D01*
X0148500Y0147500D02*
X0145547Y0147500D01*
X0145531Y0147516D01*
X0135248Y0147516D01*
X0135248Y0145547D02*
X0142453Y0145547D01*
X0143500Y0144500D01*
X0169500Y0144500D01*
X0175248Y0150248D01*
X0181134Y0150248D01*
X0186500Y0146000D02*
X0190748Y0150248D01*
X0197866Y0150248D01*
X0186500Y0146000D02*
X0173000Y0146000D01*
X0170000Y0143000D01*
X0143000Y0143000D01*
X0142421Y0143579D01*
X0135248Y0143579D01*
X0135248Y0141610D02*
X0165390Y0141610D01*
X0172500Y0134500D01*
X0181134Y0134500D01*
X0187500Y0130500D02*
X0174500Y0130500D01*
X0164500Y0140500D01*
X0143000Y0140500D01*
X0142142Y0139642D01*
X0135248Y0139642D01*
X0135248Y0137673D02*
X0139327Y0137673D01*
X0140300Y0136700D01*
X0144747Y0136700D01*
X0145547Y0137500D01*
X0148500Y0137500D01*
X0145547Y0131000D02*
X0142500Y0131000D01*
X0139764Y0133736D01*
X0135248Y0133736D01*
X0135248Y0131768D02*
X0139732Y0131768D01*
X0143500Y0128000D01*
X0151000Y0128000D01*
X0151453Y0128453D01*
X0151453Y0131000D01*
X0155000Y0131000D01*
X0157500Y0128000D02*
X0156000Y0126500D01*
X0142500Y0126500D01*
X0139201Y0129799D01*
X0135248Y0129799D01*
X0135248Y0127831D02*
X0131331Y0127831D01*
X0129000Y0125500D01*
X0129000Y0058500D01*
X0114000Y0043500D01*
X0011288Y0043500D01*
X0007245Y0047544D01*
X0007245Y0101245D01*
X0016000Y0110000D01*
X0025000Y0105000D02*
X0110000Y0105000D01*
X0111500Y0106500D01*
X0111500Y0139000D01*
X0108890Y0141610D01*
X0103752Y0141610D01*
X0103752Y0139642D02*
X0097642Y0139642D01*
X0096500Y0138500D01*
X0093453Y0138500D01*
X0090500Y0138500D01*
X0096000Y0134000D02*
X0097705Y0135705D01*
X0103752Y0135705D01*
X0103752Y0137673D02*
X0108327Y0137673D01*
X0110000Y0136000D01*
X0110000Y0119000D01*
X0108500Y0117500D01*
X0028500Y0117500D01*
X0026000Y0120000D01*
X0024000Y0095000D02*
X0102500Y0095000D01*
X0113000Y0105500D01*
X0113000Y0139500D01*
X0108921Y0143579D01*
X0103752Y0143579D01*
X0103752Y0145547D02*
X0098547Y0145547D01*
X0097500Y0144500D01*
X0067953Y0144500D01*
X0067953Y0141500D01*
X0067953Y0144500D02*
X0067953Y0147500D01*
X0084000Y0129500D02*
X0087547Y0129500D01*
X0090500Y0120500D02*
X0093453Y0120500D01*
X0097500Y0120500D01*
X0098500Y0121500D01*
X0098500Y0124500D01*
X0099862Y0125862D01*
X0103752Y0125862D01*
X0114500Y0105000D02*
X0103000Y0093500D01*
X0024500Y0093500D01*
X0026000Y0070000D02*
X0113000Y0070000D01*
X0127500Y0084500D01*
X0127500Y0160000D01*
X0130764Y0163264D01*
X0135248Y0163264D01*
X0114500Y0151500D02*
X0114500Y0105000D01*
X0130500Y0124500D02*
X0130500Y0058000D01*
X0130500Y0124500D02*
X0131862Y0125862D01*
X0135248Y0125862D01*
X0135248Y0135705D02*
X0139305Y0135705D01*
X0140300Y0136700D01*
X0157500Y0128000D02*
X0160453Y0128000D01*
X0160500Y0128047D01*
X0187500Y0130500D02*
X0191500Y0134500D01*
X0197866Y0134500D01*
X0114500Y0151500D02*
X0110610Y0155390D01*
X0103752Y0155390D01*
D30*
X0090500Y0158000D03*
X0084000Y0158000D03*
X0084000Y0150500D03*
X0090500Y0150500D03*
X0090500Y0138500D03*
X0084000Y0138500D03*
X0084000Y0129500D03*
X0090500Y0129500D03*
X0090500Y0120500D03*
X0084000Y0120500D03*
X0058000Y0141500D03*
X0058000Y0147500D03*
X0084000Y0165500D03*
X0090500Y0165500D03*
X0090500Y0174200D03*
X0084000Y0174200D03*
X0083500Y0201500D03*
X0083500Y0205000D03*
X0087000Y0205000D03*
X0087000Y0201500D03*
X0090500Y0201500D03*
X0094000Y0201500D03*
X0097500Y0201500D03*
X0080000Y0201500D03*
X0080000Y0205000D03*
X0098500Y0226500D03*
X0101500Y0226500D03*
X0101500Y0234500D03*
X0104500Y0234500D03*
X0115000Y0222000D03*
X0115000Y0219000D03*
X0123000Y0219000D03*
X0123000Y0216000D03*
X0129000Y0222000D03*
X0129000Y0226000D03*
X0132500Y0226000D03*
X0132500Y0222000D03*
X0136000Y0222000D03*
X0139500Y0222000D03*
X0136000Y0226000D03*
X0136000Y0230000D03*
X0132500Y0230000D03*
X0129000Y0230000D03*
X0129000Y0234000D03*
X0129000Y0238000D03*
X0132500Y0238000D03*
X0132500Y0234000D03*
X0139500Y0217500D03*
X0150000Y0215500D03*
X0150000Y0212000D03*
X0150000Y0208500D03*
X0150000Y0205000D03*
X0150000Y0201500D03*
X0154000Y0199500D03*
X0158500Y0199500D03*
X0158500Y0217500D03*
X0154000Y0217500D03*
X0181100Y0185700D03*
X0189300Y0173900D03*
X0197866Y0193600D03*
X0199300Y0207400D03*
X0194300Y0207400D03*
X0189800Y0207400D03*
X0189800Y0217900D03*
X0194300Y0217900D03*
X0199300Y0217900D03*
X0155000Y0167500D03*
X0148500Y0167500D03*
X0148500Y0159500D03*
X0155000Y0159500D03*
X0155000Y0147500D03*
X0148500Y0147500D03*
X0148500Y0137500D03*
X0148500Y0131000D03*
X0155000Y0131000D03*
X0155000Y0137500D03*
X0160500Y0137500D03*
X0189400Y0142400D03*
X0189500Y0095200D03*
X0165300Y0055600D03*
X0161800Y0055600D03*
X0158300Y0055600D03*
X0158200Y0047800D03*
X0161700Y0047800D03*
X0165200Y0047800D03*
X0052700Y0027800D03*
X0055000Y0219500D03*
X0055000Y0223000D03*
D31*
X0090500Y0174200D02*
X0093453Y0174200D01*
X0087547Y0165500D02*
X0084000Y0165500D01*
X0090500Y0158000D02*
X0093453Y0158000D01*
X0096500Y0158000D01*
X0097142Y0157358D01*
X0103752Y0157358D01*
X0087547Y0150500D02*
X0084000Y0150500D01*
X0084000Y0138500D02*
X0087547Y0138500D01*
X0090500Y0129500D02*
X0093453Y0129500D01*
X0087547Y0120500D02*
X0084000Y0120500D01*
X0062047Y0141500D02*
X0058000Y0141500D01*
X0058000Y0147500D02*
X0062047Y0147500D01*
X0145547Y0131000D02*
X0148500Y0131000D01*
X0151453Y0137500D02*
X0155000Y0137500D01*
X0160500Y0137500D02*
X0160500Y0133953D01*
X0155000Y0147500D02*
X0151453Y0147500D01*
X0151453Y0159500D02*
X0155000Y0159500D01*
X0155000Y0167500D02*
X0151453Y0167500D01*
X0158185Y0047811D02*
X0158196Y0047800D01*
X0158200Y0047800D01*
X0052700Y0027847D02*
X0052700Y0027800D01*
X0052700Y0027847D02*
X0048200Y0027847D01*
D32*
X0150000Y0037630D02*
X0150000Y0052000D01*
X0158185Y0052000D01*
X0158185Y0047811D01*
X0184500Y0047811D01*
X0184500Y0055685D02*
X0158185Y0055685D01*
X0158185Y0052000D01*
X0115000Y0214209D02*
X0115000Y0222000D01*
X0104500Y0234500D02*
X0096709Y0234500D01*
D33*
X0093953Y0226500D02*
X0101500Y0226500D01*
X0123000Y0219000D02*
X0123000Y0211453D01*
D34*
X0095000Y0218709D02*
X0085500Y0218709D01*
X0075209Y0218709D01*
X0069500Y0213000D01*
X0049000Y0213000D01*
X0045000Y0217000D01*
X0045000Y0235600D01*
X0031600Y0235600D01*
X0026000Y0230000D01*
X0030400Y0235600D02*
X0026000Y0240000D01*
X0030400Y0235600D02*
X0031600Y0235600D01*
X0055000Y0235600D02*
X0055000Y0219500D01*
X0066100Y0234500D02*
X0065000Y0235600D01*
X0066100Y0234500D02*
X0085291Y0234500D01*
X0085291Y0226500D01*
X0088047Y0226500D01*
X0085291Y0234500D02*
X0085291Y0240291D01*
X0090500Y0245500D01*
X0195000Y0245500D01*
X0202595Y0245500D01*
X0206500Y0241595D01*
X0206500Y0024189D01*
X0184500Y0024189D01*
X0184500Y0016370D02*
X0203216Y0016370D01*
X0206500Y0019654D01*
X0206500Y0024189D01*
X0184500Y0016370D02*
X0150000Y0016370D01*
X0184500Y0016315D02*
X0184500Y0016370D01*
X0195000Y0242000D02*
X0195000Y0245500D01*
D35*
X0085500Y0218709D02*
X0085500Y0216453D01*
X0086000Y0215953D01*
M02*
