G75*
%MOIN*%
%OFA0B0*%
%FSLAX25Y25*%
%IPPOS*%
%LPD*%
%AMOC8*
5,1,8,0,0,1.08239X$1,22.5*
%
%ADD10C,0.01000*%
%ADD11C,0.00000*%
%ADD12C,0.00500*%
%ADD13R,0.00400X0.00066*%
%ADD14R,0.00670X0.00067*%
%ADD15R,0.00930X0.00067*%
%ADD16R,0.01070X0.00066*%
%ADD17R,0.01330X0.00067*%
%ADD18R,0.01470X0.00067*%
%ADD19R,0.01540X0.00066*%
%ADD20R,0.01660X0.00067*%
%ADD21R,0.01800X0.00067*%
%ADD22R,0.01940X0.00066*%
%ADD23R,0.02060X0.00067*%
%ADD24R,0.02200X0.00067*%
%ADD25R,0.02340X0.00066*%
%ADD26R,0.02400X0.00067*%
%ADD27R,0.02530X0.00067*%
%ADD28R,0.02670X0.00066*%
%ADD29R,0.02800X0.00067*%
%ADD30R,0.02860X0.00067*%
%ADD31R,0.03000X0.00066*%
%ADD32R,0.03070X0.00067*%
%ADD33R,0.03200X0.00067*%
%ADD34R,0.03330X0.00066*%
%ADD35R,0.03400X0.00067*%
%ADD36R,0.03470X0.00067*%
%ADD37R,0.01930X0.00066*%
%ADD38R,0.01670X0.00067*%
%ADD39R,0.01670X0.00066*%
%ADD40R,0.01270X0.00066*%
%ADD41R,0.01270X0.00067*%
%ADD42R,0.01260X0.00067*%
%ADD43R,0.01600X0.00066*%
%ADD44R,0.01200X0.00066*%
%ADD45R,0.01600X0.00067*%
%ADD46R,0.01200X0.00067*%
%ADD47R,0.01130X0.00067*%
%ADD48R,0.01530X0.00066*%
%ADD49R,0.01530X0.00067*%
%ADD50R,0.01130X0.00066*%
%ADD51R,0.01140X0.00067*%
%ADD52R,0.01140X0.00066*%
%ADD53R,0.01540X0.00067*%
%ADD54R,0.01060X0.00067*%
%ADD55R,0.01070X0.00067*%
%ADD56R,0.01060X0.00066*%
%ADD57R,0.00070X0.00067*%
%ADD58R,0.00330X0.00066*%
%ADD59R,0.00540X0.00067*%
%ADD60R,0.00660X0.00067*%
%ADD61R,0.00870X0.00066*%
%ADD62R,0.01340X0.00066*%
%ADD63R,0.01460X0.00067*%
%ADD64R,0.01730X0.00066*%
%ADD65R,0.01870X0.00067*%
%ADD66R,0.02000X0.00067*%
%ADD67R,0.02130X0.00066*%
%ADD68R,0.02270X0.00067*%
%ADD69R,0.02530X0.00066*%
%ADD70R,0.02600X0.00067*%
%ADD71R,0.02740X0.00067*%
%ADD72R,0.02860X0.00066*%
%ADD73R,0.03000X0.00067*%
%ADD74R,0.00600X0.00067*%
%ADD75R,0.00860X0.00067*%
%ADD76R,0.01000X0.00066*%
%ADD77R,0.01470X0.00066*%
%ADD78R,0.01740X0.00067*%
%ADD79R,0.01660X0.00066*%
%ADD80R,0.01740X0.00066*%
%ADD81R,0.00870X0.00067*%
%ADD82R,0.00800X0.00066*%
%ADD83R,0.01460X0.00066*%
%ADD84R,0.02270X0.00066*%
%ADD85R,0.02730X0.00066*%
%ADD86R,0.02930X0.00067*%
%ADD87R,0.00800X0.00067*%
%ADD88R,0.04600X0.00067*%
%ADD89R,0.04600X0.00066*%
%ADD90R,0.04660X0.00067*%
%ADD91R,0.04730X0.00067*%
%ADD92R,0.00860X0.00066*%
%ADD93R,0.04800X0.00066*%
%ADD94R,0.04870X0.00067*%
%ADD95R,0.01400X0.00066*%
%ADD96R,0.04930X0.00066*%
%ADD97R,0.01400X0.00067*%
%ADD98R,0.04930X0.00067*%
%ADD99R,0.05000X0.00067*%
%ADD100R,0.05000X0.00066*%
%ADD101R,0.05070X0.00067*%
%ADD102R,0.05060X0.00067*%
%ADD103R,0.05060X0.00066*%
%ADD104R,0.05130X0.00067*%
%ADD105R,0.00470X0.00067*%
%ADD106R,0.00930X0.00066*%
%ADD107R,0.01800X0.00066*%
%ADD108R,0.02140X0.00067*%
%ADD109R,0.01730X0.00067*%
%ADD110R,0.01260X0.00066*%
%ADD111R,0.03800X0.00067*%
%ADD112R,0.00940X0.00067*%
%ADD113R,0.04200X0.00067*%
%ADD114R,0.04670X0.00066*%
%ADD115R,0.01340X0.00067*%
%ADD116R,0.05460X0.00067*%
%ADD117R,0.01330X0.00066*%
%ADD118R,0.05870X0.00066*%
%ADD119R,0.06340X0.00067*%
%ADD120R,0.08200X0.00067*%
%ADD121R,0.00200X0.00066*%
%ADD122R,0.08330X0.00066*%
%ADD123R,0.00330X0.00067*%
%ADD124R,0.08460X0.00067*%
%ADD125R,0.08540X0.00067*%
%ADD126R,0.00600X0.00066*%
%ADD127R,0.08670X0.00066*%
%ADD128R,0.00730X0.00067*%
%ADD129R,0.08800X0.00067*%
%ADD130R,0.08870X0.00067*%
%ADD131R,0.01870X0.00066*%
%ADD132R,0.08930X0.00066*%
%ADD133R,0.09070X0.00067*%
%ADD134R,0.05200X0.00067*%
%ADD135R,0.03130X0.00067*%
%ADD136R,0.04460X0.00066*%
%ADD137R,0.02800X0.00066*%
%ADD138R,0.04000X0.00067*%
%ADD139R,0.03530X0.00067*%
%ADD140R,0.02540X0.00067*%
%ADD141R,0.03800X0.00066*%
%ADD142R,0.03060X0.00066*%
%ADD143R,0.02400X0.00066*%
%ADD144R,0.01930X0.00067*%
%ADD145R,0.04070X0.00067*%
%ADD146R,0.02070X0.00067*%
%ADD147R,0.04330X0.00067*%
%ADD148R,0.02330X0.00067*%
%ADD149R,0.02200X0.00066*%
%ADD150R,0.02260X0.00067*%
%ADD151R,0.05200X0.00066*%
%ADD152R,0.02140X0.00066*%
%ADD153R,0.02670X0.00067*%
%ADD154R,0.05330X0.00067*%
%ADD155R,0.00060X0.00067*%
%ADD156R,0.02130X0.00067*%
%ADD157R,0.00270X0.00067*%
%ADD158R,0.05600X0.00066*%
%ADD159R,0.00470X0.00066*%
%ADD160R,0.02060X0.00066*%
%ADD161R,0.05730X0.00067*%
%ADD162R,0.05800X0.00067*%
%ADD163R,0.05800X0.00066*%
%ADD164R,0.00660X0.00066*%
%ADD165R,0.02070X0.00066*%
%ADD166R,0.05670X0.00066*%
%ADD167R,0.02000X0.00066*%
%ADD168R,0.05670X0.00067*%
%ADD169R,0.05530X0.00067*%
%ADD170R,0.05470X0.00066*%
%ADD171R,0.05140X0.00067*%
%ADD172R,0.01940X0.00067*%
%ADD173R,0.00740X0.00066*%
%ADD174R,0.00940X0.00066*%
%ADD175R,0.00740X0.00067*%
%ADD176R,0.04860X0.00067*%
%ADD177R,0.04670X0.00067*%
%ADD178R,0.04530X0.00066*%
%ADD179R,0.00730X0.00066*%
%ADD180R,0.04400X0.00067*%
%ADD181R,0.01860X0.00067*%
%ADD182R,0.00670X0.00066*%
%ADD183R,0.04070X0.00066*%
%ADD184R,0.00070X0.00066*%
%ADD185R,0.05340X0.00067*%
%ADD186R,0.04660X0.00066*%
%ADD187R,0.03600X0.00067*%
%ADD188R,0.03340X0.00067*%
%ADD189R,0.03140X0.00066*%
%ADD190R,0.01860X0.00066*%
%ADD191R,0.02940X0.00067*%
%ADD192R,0.02660X0.00067*%
%ADD193R,0.02600X0.00066*%
%ADD194R,0.02540X0.00066*%
%ADD195R,0.04260X0.00067*%
%ADD196R,0.03870X0.00066*%
%ADD197R,0.03260X0.00066*%
%ADD198R,0.03730X0.00067*%
%ADD199R,0.04270X0.00067*%
%ADD200R,0.03400X0.00066*%
%ADD201R,0.06130X0.00066*%
%ADD202R,0.03270X0.00067*%
%ADD203R,0.06140X0.00067*%
%ADD204R,0.06270X0.00067*%
%ADD205R,0.06270X0.00066*%
%ADD206R,0.06330X0.00067*%
%ADD207R,0.02730X0.00067*%
%ADD208R,0.06400X0.00066*%
%ADD209R,0.00400X0.00067*%
%ADD210R,0.06400X0.00067*%
%ADD211R,0.02330X0.00066*%
%ADD212R,0.02340X0.00067*%
%ADD213R,0.01000X0.00067*%
%ADD214R,0.00460X0.00067*%
%ADD215R,0.00130X0.00066*%
%ADD216R,0.03070X0.00066*%
%ADD217R,0.00260X0.00066*%
%ADD218R,0.00130X0.00067*%
%ADD219R,0.00340X0.00066*%
%ADD220R,0.00530X0.00067*%
%ADD221R,0.02460X0.00066*%
%ADD222R,0.00200X0.00067*%
%ADD223R,0.03060X0.00067*%
%ADD224R,0.02470X0.00066*%
%ADD225R,0.02470X0.00067*%
%ADD226R,0.00460X0.00066*%
%ADD227R,0.03200X0.00066*%
%ADD228R,0.00540X0.00066*%
%ADD229R,0.03600X0.00066*%
%ADD230R,0.03870X0.00067*%
%ADD231R,0.04060X0.00067*%
%ADD232R,0.04470X0.00066*%
%ADD233R,0.08400X0.00067*%
%ADD234R,0.02460X0.00067*%
%ADD235R,0.08470X0.00066*%
%ADD236R,0.08470X0.00067*%
%ADD237R,0.08340X0.00066*%
%ADD238R,0.08260X0.00067*%
%ADD239R,0.08000X0.00066*%
%ADD240R,0.07730X0.00067*%
%ADD241R,0.07460X0.00067*%
%ADD242R,0.07200X0.00066*%
%ADD243R,0.07000X0.00067*%
%ADD244R,0.06860X0.00067*%
%ADD245R,0.06730X0.00066*%
%ADD246R,0.06600X0.00067*%
%ADD247R,0.04130X0.00067*%
%ADD248R,0.03270X0.00066*%
%ADD249R,0.03940X0.00066*%
%ADD250R,0.02870X0.00067*%
%ADD251R,0.03470X0.00066*%
%ADD252R,0.03740X0.00067*%
%ADD253R,0.10400X0.00066*%
%ADD254R,0.10340X0.00067*%
%ADD255R,0.10270X0.00067*%
%ADD256R,0.10140X0.00066*%
%ADD257R,0.10070X0.00067*%
%ADD258R,0.09940X0.00067*%
%ADD259R,0.09870X0.00066*%
%ADD260R,0.09740X0.00067*%
%ADD261R,0.09600X0.00067*%
%ADD262R,0.07530X0.00066*%
%ADD263R,0.07200X0.00067*%
%ADD264R,0.06470X0.00066*%
%ADD265R,0.06070X0.00067*%
%ADD266R,0.05600X0.00067*%
%ADD267R,0.05140X0.00066*%
%ADD268R,0.04530X0.00067*%
%ADD269R,0.03930X0.00067*%
%ADD270R,0.03670X0.00066*%
%ADD271R,0.00260X0.00067*%
%ADD272R,0.03330X0.00067*%
%ADD273R,0.03670X0.00067*%
%ADD274R,0.03860X0.00066*%
%ADD275R,0.05260X0.00067*%
%ADD276R,0.05460X0.00066*%
%ADD277R,0.05540X0.00067*%
%ADD278R,0.05730X0.00066*%
%ADD279R,0.05860X0.00067*%
%ADD280R,0.06000X0.00067*%
%ADD281R,0.06140X0.00066*%
%ADD282R,0.06200X0.00067*%
%ADD283R,0.06260X0.00067*%
%ADD284R,0.06540X0.00067*%
%ADD285R,0.06800X0.00067*%
%ADD286R,0.06870X0.00067*%
%ADD287R,0.07000X0.00066*%
%ADD288R,0.03540X0.00066*%
%ADD289R,0.07070X0.00067*%
%ADD290R,0.07130X0.00067*%
%ADD291R,0.07340X0.00067*%
%ADD292R,0.04800X0.00067*%
%ADD293R,0.08930X0.00067*%
%ADD294R,0.08540X0.00066*%
%ADD295R,0.05330X0.00066*%
%ADD296R,0.08270X0.00067*%
%ADD297R,0.07930X0.00067*%
%ADD298R,0.07600X0.00066*%
%ADD299R,0.06000X0.00066*%
%ADD300R,0.07260X0.00067*%
%ADD301R,0.06600X0.00066*%
%ADD302R,0.03740X0.00066*%
%ADD303R,0.03260X0.00067*%
%ADD304R,0.04940X0.00067*%
%ADD305R,0.03460X0.00066*%
%ADD306R,0.03530X0.00066*%
%ADD307R,0.04140X0.00067*%
%ADD308R,0.04340X0.00066*%
%ADD309R,0.03940X0.00067*%
%ADD310R,0.04870X0.00066*%
%ADD311R,0.05260X0.00066*%
%ADD312R,0.05270X0.00067*%
%ADD313R,0.05340X0.00066*%
%ADD314R,0.05400X0.00067*%
%ADD315R,0.05470X0.00067*%
%ADD316R,0.05400X0.00066*%
%ADD317R,0.05530X0.00066*%
%ADD318R,0.03460X0.00067*%
%ADD319R,0.05270X0.00066*%
%ADD320R,0.07330X0.00066*%
%ADD321R,0.07470X0.00067*%
%ADD322R,0.07600X0.00067*%
%ADD323R,0.07800X0.00066*%
%ADD324R,0.08070X0.00067*%
%ADD325R,0.08200X0.00066*%
%ADD326R,0.04740X0.00067*%
%ADD327R,0.04740X0.00066*%
%ADD328R,0.04540X0.00067*%
%ADD329R,0.04200X0.00066*%
%ADD330R,0.04470X0.00067*%
%ADD331R,0.04400X0.00066*%
%ADD332R,0.03660X0.00066*%
%ADD333R,0.02870X0.00066*%
%ADD334R,0.04270X0.00066*%
%ADD335R,0.04060X0.00066*%
%ADD336R,0.02740X0.00066*%
%ADD337R,0.04340X0.00067*%
%ADD338R,0.04730X0.00066*%
%ADD339R,0.05130X0.00066*%
%ADD340R,0.05540X0.00066*%
%ADD341R,0.06130X0.00067*%
%ADD342R,0.06060X0.00066*%
%ADD343R,0.05940X0.00067*%
%ADD344R,0.05070X0.00066*%
%ADD345R,0.02660X0.00066*%
%ADD346R,0.02940X0.00066*%
%ADD347R,0.03130X0.00066*%
%ADD348R,0.08600X0.00067*%
%ADD349R,0.08130X0.00067*%
%ADD350R,0.07870X0.00067*%
%ADD351R,0.07400X0.00067*%
%ADD352R,0.06870X0.00066*%
%ADD353R,0.05740X0.00067*%
D10*
X0001500Y0038000D02*
X0042500Y0038000D01*
X0042500Y0001500D01*
X0201000Y0001500D01*
X0201242Y0001503D01*
X0201483Y0001512D01*
X0201724Y0001526D01*
X0201965Y0001547D01*
X0202205Y0001573D01*
X0202445Y0001605D01*
X0202684Y0001643D01*
X0202921Y0001686D01*
X0203158Y0001736D01*
X0203393Y0001791D01*
X0203627Y0001851D01*
X0203859Y0001918D01*
X0204090Y0001989D01*
X0204319Y0002067D01*
X0204546Y0002150D01*
X0204771Y0002238D01*
X0204994Y0002332D01*
X0205214Y0002431D01*
X0205432Y0002536D01*
X0205647Y0002645D01*
X0205860Y0002760D01*
X0206070Y0002880D01*
X0206276Y0003005D01*
X0206480Y0003135D01*
X0206681Y0003270D01*
X0206878Y0003410D01*
X0207072Y0003554D01*
X0207262Y0003703D01*
X0207448Y0003857D01*
X0207631Y0004015D01*
X0207810Y0004177D01*
X0207985Y0004344D01*
X0208156Y0004515D01*
X0208323Y0004690D01*
X0208485Y0004869D01*
X0208643Y0005052D01*
X0208797Y0005238D01*
X0208946Y0005428D01*
X0209090Y0005622D01*
X0209230Y0005819D01*
X0209365Y0006020D01*
X0209495Y0006224D01*
X0209620Y0006430D01*
X0209740Y0006640D01*
X0209855Y0006853D01*
X0209964Y0007068D01*
X0210069Y0007286D01*
X0210168Y0007506D01*
X0210262Y0007729D01*
X0210350Y0007954D01*
X0210433Y0008181D01*
X0210511Y0008410D01*
X0210582Y0008641D01*
X0210649Y0008873D01*
X0210709Y0009107D01*
X0210764Y0009342D01*
X0210814Y0009579D01*
X0210857Y0009816D01*
X0210895Y0010055D01*
X0210927Y0010295D01*
X0210953Y0010535D01*
X0210974Y0010776D01*
X0210988Y0011017D01*
X0210997Y0011258D01*
X0211000Y0011500D01*
X0211000Y0240000D01*
X0210997Y0240242D01*
X0210988Y0240483D01*
X0210974Y0240724D01*
X0210953Y0240965D01*
X0210927Y0241205D01*
X0210895Y0241445D01*
X0210857Y0241684D01*
X0210814Y0241921D01*
X0210764Y0242158D01*
X0210709Y0242393D01*
X0210649Y0242627D01*
X0210582Y0242859D01*
X0210511Y0243090D01*
X0210433Y0243319D01*
X0210350Y0243546D01*
X0210262Y0243771D01*
X0210168Y0243994D01*
X0210069Y0244214D01*
X0209964Y0244432D01*
X0209855Y0244647D01*
X0209740Y0244860D01*
X0209620Y0245070D01*
X0209495Y0245276D01*
X0209365Y0245480D01*
X0209230Y0245681D01*
X0209090Y0245878D01*
X0208946Y0246072D01*
X0208797Y0246262D01*
X0208643Y0246448D01*
X0208485Y0246631D01*
X0208323Y0246810D01*
X0208156Y0246985D01*
X0207985Y0247156D01*
X0207810Y0247323D01*
X0207631Y0247485D01*
X0207448Y0247643D01*
X0207262Y0247797D01*
X0207072Y0247946D01*
X0206878Y0248090D01*
X0206681Y0248230D01*
X0206480Y0248365D01*
X0206276Y0248495D01*
X0206070Y0248620D01*
X0205860Y0248740D01*
X0205647Y0248855D01*
X0205432Y0248964D01*
X0205214Y0249069D01*
X0204994Y0249168D01*
X0204771Y0249262D01*
X0204546Y0249350D01*
X0204319Y0249433D01*
X0204090Y0249511D01*
X0203859Y0249582D01*
X0203627Y0249649D01*
X0203393Y0249709D01*
X0203158Y0249764D01*
X0202921Y0249814D01*
X0202684Y0249857D01*
X0202445Y0249895D01*
X0202205Y0249927D01*
X0201965Y0249953D01*
X0201724Y0249974D01*
X0201483Y0249988D01*
X0201242Y0249997D01*
X0201000Y0250000D01*
X0011500Y0250000D01*
X0011258Y0249997D01*
X0011017Y0249988D01*
X0010776Y0249974D01*
X0010535Y0249953D01*
X0010295Y0249927D01*
X0010055Y0249895D01*
X0009816Y0249857D01*
X0009579Y0249814D01*
X0009342Y0249764D01*
X0009107Y0249709D01*
X0008873Y0249649D01*
X0008641Y0249582D01*
X0008410Y0249511D01*
X0008181Y0249433D01*
X0007954Y0249350D01*
X0007729Y0249262D01*
X0007506Y0249168D01*
X0007286Y0249069D01*
X0007068Y0248964D01*
X0006853Y0248855D01*
X0006640Y0248740D01*
X0006430Y0248620D01*
X0006224Y0248495D01*
X0006020Y0248365D01*
X0005819Y0248230D01*
X0005622Y0248090D01*
X0005428Y0247946D01*
X0005238Y0247797D01*
X0005052Y0247643D01*
X0004869Y0247485D01*
X0004690Y0247323D01*
X0004515Y0247156D01*
X0004344Y0246985D01*
X0004177Y0246810D01*
X0004015Y0246631D01*
X0003857Y0246448D01*
X0003703Y0246262D01*
X0003554Y0246072D01*
X0003410Y0245878D01*
X0003270Y0245681D01*
X0003135Y0245480D01*
X0003005Y0245276D01*
X0002880Y0245070D01*
X0002760Y0244860D01*
X0002645Y0244647D01*
X0002536Y0244432D01*
X0002431Y0244214D01*
X0002332Y0243994D01*
X0002238Y0243771D01*
X0002150Y0243546D01*
X0002067Y0243319D01*
X0001989Y0243090D01*
X0001918Y0242859D01*
X0001851Y0242627D01*
X0001791Y0242393D01*
X0001736Y0242158D01*
X0001686Y0241921D01*
X0001643Y0241684D01*
X0001605Y0241445D01*
X0001573Y0241205D01*
X0001547Y0240965D01*
X0001526Y0240724D01*
X0001512Y0240483D01*
X0001503Y0240242D01*
X0001500Y0240000D01*
X0001500Y0038000D01*
D11*
X0187531Y0083319D02*
X0187533Y0083407D01*
X0187539Y0083495D01*
X0187549Y0083583D01*
X0187563Y0083671D01*
X0187580Y0083757D01*
X0187602Y0083843D01*
X0187627Y0083927D01*
X0187657Y0084011D01*
X0187689Y0084093D01*
X0187726Y0084173D01*
X0187766Y0084252D01*
X0187810Y0084329D01*
X0187857Y0084404D01*
X0187907Y0084476D01*
X0187961Y0084547D01*
X0188017Y0084614D01*
X0188077Y0084680D01*
X0188139Y0084742D01*
X0188205Y0084802D01*
X0188272Y0084858D01*
X0188343Y0084912D01*
X0188415Y0084962D01*
X0188490Y0085009D01*
X0188567Y0085053D01*
X0188646Y0085093D01*
X0188726Y0085130D01*
X0188808Y0085162D01*
X0188892Y0085192D01*
X0188976Y0085217D01*
X0189062Y0085239D01*
X0189148Y0085256D01*
X0189236Y0085270D01*
X0189324Y0085280D01*
X0189412Y0085286D01*
X0189500Y0085288D01*
X0189588Y0085286D01*
X0189676Y0085280D01*
X0189764Y0085270D01*
X0189852Y0085256D01*
X0189938Y0085239D01*
X0190024Y0085217D01*
X0190108Y0085192D01*
X0190192Y0085162D01*
X0190274Y0085130D01*
X0190354Y0085093D01*
X0190433Y0085053D01*
X0190510Y0085009D01*
X0190585Y0084962D01*
X0190657Y0084912D01*
X0190728Y0084858D01*
X0190795Y0084802D01*
X0190861Y0084742D01*
X0190923Y0084680D01*
X0190983Y0084614D01*
X0191039Y0084547D01*
X0191093Y0084476D01*
X0191143Y0084404D01*
X0191190Y0084329D01*
X0191234Y0084252D01*
X0191274Y0084173D01*
X0191311Y0084093D01*
X0191343Y0084011D01*
X0191373Y0083927D01*
X0191398Y0083843D01*
X0191420Y0083757D01*
X0191437Y0083671D01*
X0191451Y0083583D01*
X0191461Y0083495D01*
X0191467Y0083407D01*
X0191469Y0083319D01*
X0191467Y0083231D01*
X0191461Y0083143D01*
X0191451Y0083055D01*
X0191437Y0082967D01*
X0191420Y0082881D01*
X0191398Y0082795D01*
X0191373Y0082711D01*
X0191343Y0082627D01*
X0191311Y0082545D01*
X0191274Y0082465D01*
X0191234Y0082386D01*
X0191190Y0082309D01*
X0191143Y0082234D01*
X0191093Y0082162D01*
X0191039Y0082091D01*
X0190983Y0082024D01*
X0190923Y0081958D01*
X0190861Y0081896D01*
X0190795Y0081836D01*
X0190728Y0081780D01*
X0190657Y0081726D01*
X0190585Y0081676D01*
X0190510Y0081629D01*
X0190433Y0081585D01*
X0190354Y0081545D01*
X0190274Y0081508D01*
X0190192Y0081476D01*
X0190108Y0081446D01*
X0190024Y0081421D01*
X0189938Y0081399D01*
X0189852Y0081382D01*
X0189764Y0081368D01*
X0189676Y0081358D01*
X0189588Y0081352D01*
X0189500Y0081350D01*
X0189412Y0081352D01*
X0189324Y0081358D01*
X0189236Y0081368D01*
X0189148Y0081382D01*
X0189062Y0081399D01*
X0188976Y0081421D01*
X0188892Y0081446D01*
X0188808Y0081476D01*
X0188726Y0081508D01*
X0188646Y0081545D01*
X0188567Y0081585D01*
X0188490Y0081629D01*
X0188415Y0081676D01*
X0188343Y0081726D01*
X0188272Y0081780D01*
X0188205Y0081836D01*
X0188139Y0081896D01*
X0188077Y0081958D01*
X0188017Y0082024D01*
X0187961Y0082091D01*
X0187907Y0082162D01*
X0187857Y0082234D01*
X0187810Y0082309D01*
X0187766Y0082386D01*
X0187726Y0082465D01*
X0187689Y0082545D01*
X0187657Y0082627D01*
X0187627Y0082711D01*
X0187602Y0082795D01*
X0187580Y0082881D01*
X0187563Y0082967D01*
X0187549Y0083055D01*
X0187539Y0083143D01*
X0187533Y0083231D01*
X0187531Y0083319D01*
X0187531Y0185681D02*
X0187533Y0185769D01*
X0187539Y0185857D01*
X0187549Y0185945D01*
X0187563Y0186033D01*
X0187580Y0186119D01*
X0187602Y0186205D01*
X0187627Y0186289D01*
X0187657Y0186373D01*
X0187689Y0186455D01*
X0187726Y0186535D01*
X0187766Y0186614D01*
X0187810Y0186691D01*
X0187857Y0186766D01*
X0187907Y0186838D01*
X0187961Y0186909D01*
X0188017Y0186976D01*
X0188077Y0187042D01*
X0188139Y0187104D01*
X0188205Y0187164D01*
X0188272Y0187220D01*
X0188343Y0187274D01*
X0188415Y0187324D01*
X0188490Y0187371D01*
X0188567Y0187415D01*
X0188646Y0187455D01*
X0188726Y0187492D01*
X0188808Y0187524D01*
X0188892Y0187554D01*
X0188976Y0187579D01*
X0189062Y0187601D01*
X0189148Y0187618D01*
X0189236Y0187632D01*
X0189324Y0187642D01*
X0189412Y0187648D01*
X0189500Y0187650D01*
X0189588Y0187648D01*
X0189676Y0187642D01*
X0189764Y0187632D01*
X0189852Y0187618D01*
X0189938Y0187601D01*
X0190024Y0187579D01*
X0190108Y0187554D01*
X0190192Y0187524D01*
X0190274Y0187492D01*
X0190354Y0187455D01*
X0190433Y0187415D01*
X0190510Y0187371D01*
X0190585Y0187324D01*
X0190657Y0187274D01*
X0190728Y0187220D01*
X0190795Y0187164D01*
X0190861Y0187104D01*
X0190923Y0187042D01*
X0190983Y0186976D01*
X0191039Y0186909D01*
X0191093Y0186838D01*
X0191143Y0186766D01*
X0191190Y0186691D01*
X0191234Y0186614D01*
X0191274Y0186535D01*
X0191311Y0186455D01*
X0191343Y0186373D01*
X0191373Y0186289D01*
X0191398Y0186205D01*
X0191420Y0186119D01*
X0191437Y0186033D01*
X0191451Y0185945D01*
X0191461Y0185857D01*
X0191467Y0185769D01*
X0191469Y0185681D01*
X0191467Y0185593D01*
X0191461Y0185505D01*
X0191451Y0185417D01*
X0191437Y0185329D01*
X0191420Y0185243D01*
X0191398Y0185157D01*
X0191373Y0185073D01*
X0191343Y0184989D01*
X0191311Y0184907D01*
X0191274Y0184827D01*
X0191234Y0184748D01*
X0191190Y0184671D01*
X0191143Y0184596D01*
X0191093Y0184524D01*
X0191039Y0184453D01*
X0190983Y0184386D01*
X0190923Y0184320D01*
X0190861Y0184258D01*
X0190795Y0184198D01*
X0190728Y0184142D01*
X0190657Y0184088D01*
X0190585Y0184038D01*
X0190510Y0183991D01*
X0190433Y0183947D01*
X0190354Y0183907D01*
X0190274Y0183870D01*
X0190192Y0183838D01*
X0190108Y0183808D01*
X0190024Y0183783D01*
X0189938Y0183761D01*
X0189852Y0183744D01*
X0189764Y0183730D01*
X0189676Y0183720D01*
X0189588Y0183714D01*
X0189500Y0183712D01*
X0189412Y0183714D01*
X0189324Y0183720D01*
X0189236Y0183730D01*
X0189148Y0183744D01*
X0189062Y0183761D01*
X0188976Y0183783D01*
X0188892Y0183808D01*
X0188808Y0183838D01*
X0188726Y0183870D01*
X0188646Y0183907D01*
X0188567Y0183947D01*
X0188490Y0183991D01*
X0188415Y0184038D01*
X0188343Y0184088D01*
X0188272Y0184142D01*
X0188205Y0184198D01*
X0188139Y0184258D01*
X0188077Y0184320D01*
X0188017Y0184386D01*
X0187961Y0184453D01*
X0187907Y0184524D01*
X0187857Y0184596D01*
X0187810Y0184671D01*
X0187766Y0184748D01*
X0187726Y0184827D01*
X0187689Y0184907D01*
X0187657Y0184989D01*
X0187627Y0185073D01*
X0187602Y0185157D01*
X0187580Y0185243D01*
X0187563Y0185329D01*
X0187549Y0185417D01*
X0187539Y0185505D01*
X0187533Y0185593D01*
X0187531Y0185681D01*
D12*
X0182250Y0224250D02*
X0182250Y0226952D01*
X0180899Y0226952D01*
X0180448Y0226502D01*
X0180448Y0225601D01*
X0180899Y0225151D01*
X0182250Y0225151D01*
X0179303Y0224700D02*
X0178853Y0225151D01*
X0177502Y0225151D01*
X0177502Y0225601D02*
X0177502Y0224250D01*
X0178853Y0224250D01*
X0179303Y0224700D01*
X0178853Y0226052D02*
X0177952Y0226052D01*
X0177502Y0225601D01*
X0176357Y0225151D02*
X0175456Y0226052D01*
X0175006Y0226052D01*
X0176357Y0226052D02*
X0176357Y0224250D01*
X0173902Y0224250D02*
X0173902Y0226952D01*
X0172550Y0226052D02*
X0173902Y0225151D01*
X0172550Y0224250D01*
X0171446Y0224700D02*
X0171446Y0225601D01*
X0170996Y0226052D01*
X0170095Y0226052D01*
X0169645Y0225601D01*
X0169645Y0225151D01*
X0171446Y0225151D01*
X0171446Y0224700D02*
X0170996Y0224250D01*
X0170095Y0224250D01*
X0168500Y0224250D02*
X0168500Y0226052D01*
X0168500Y0225151D02*
X0167599Y0226052D01*
X0167148Y0226052D01*
X0167640Y0229250D02*
X0168540Y0229250D01*
X0168991Y0229700D01*
X0168090Y0230601D02*
X0167640Y0230601D01*
X0167189Y0230151D01*
X0167189Y0229700D01*
X0167640Y0229250D01*
X0167640Y0230601D02*
X0167189Y0231052D01*
X0167189Y0231502D01*
X0167640Y0231952D01*
X0168540Y0231952D01*
X0168991Y0231502D01*
X0169645Y0233800D02*
X0171446Y0233800D01*
X0172591Y0234700D02*
X0173041Y0234250D01*
X0173942Y0234250D01*
X0174393Y0234700D01*
X0175456Y0234250D02*
X0176357Y0234250D01*
X0175907Y0234250D02*
X0175907Y0236952D01*
X0176357Y0236952D02*
X0175456Y0236952D01*
X0174393Y0236502D02*
X0173942Y0236952D01*
X0173041Y0236952D01*
X0172591Y0236502D01*
X0172591Y0236052D01*
X0173041Y0235601D01*
X0172591Y0235151D01*
X0172591Y0234700D01*
X0173041Y0235601D02*
X0173492Y0235601D01*
X0173492Y0238349D02*
X0173041Y0238349D01*
X0172591Y0238800D01*
X0172591Y0241052D01*
X0173942Y0241052D01*
X0174393Y0240601D01*
X0174393Y0239700D01*
X0173942Y0239250D01*
X0172591Y0239250D01*
X0171446Y0239250D02*
X0171446Y0241952D01*
X0170996Y0241052D02*
X0170095Y0241052D01*
X0169645Y0240601D01*
X0169645Y0239250D01*
X0168500Y0239700D02*
X0168049Y0239250D01*
X0167148Y0239250D01*
X0166698Y0239700D01*
X0166698Y0240601D01*
X0167148Y0241052D01*
X0168049Y0241052D01*
X0168500Y0240601D01*
X0168500Y0239700D01*
X0168500Y0236952D02*
X0168500Y0234250D01*
X0166698Y0234250D01*
X0165553Y0235151D02*
X0165553Y0236952D01*
X0165553Y0235151D02*
X0164652Y0234250D01*
X0163752Y0235151D01*
X0163752Y0236952D01*
X0162607Y0236952D02*
X0162607Y0234250D01*
X0161255Y0234250D01*
X0160805Y0234700D01*
X0160805Y0236502D01*
X0161255Y0236952D01*
X0162607Y0236952D01*
X0163098Y0239250D02*
X0163098Y0241052D01*
X0161746Y0241052D01*
X0161296Y0240601D01*
X0161296Y0239250D01*
X0160151Y0239700D02*
X0160151Y0240601D01*
X0159701Y0241052D01*
X0158800Y0241052D01*
X0158350Y0240601D01*
X0158350Y0240151D01*
X0160151Y0240151D01*
X0160151Y0239700D02*
X0159701Y0239250D01*
X0158800Y0239250D01*
X0157205Y0239250D02*
X0157205Y0241052D01*
X0155853Y0241052D01*
X0155403Y0240601D01*
X0155403Y0239250D01*
X0154258Y0239700D02*
X0153808Y0239250D01*
X0152457Y0239250D01*
X0152457Y0238800D02*
X0152457Y0241052D01*
X0153808Y0241052D01*
X0154258Y0240601D01*
X0154258Y0239700D01*
X0153357Y0238349D02*
X0152907Y0238349D01*
X0152457Y0238800D01*
X0151312Y0239250D02*
X0150411Y0239250D01*
X0150861Y0239250D02*
X0150861Y0241052D01*
X0151312Y0241052D01*
X0150861Y0241952D02*
X0150861Y0242403D01*
X0149347Y0241052D02*
X0147996Y0241052D01*
X0147546Y0240601D01*
X0147546Y0239250D01*
X0146401Y0239700D02*
X0146401Y0240601D01*
X0145950Y0241052D01*
X0145050Y0241052D01*
X0144599Y0240601D01*
X0144599Y0240151D01*
X0146401Y0240151D01*
X0146401Y0239700D02*
X0145950Y0239250D01*
X0145050Y0239250D01*
X0143454Y0239700D02*
X0143454Y0240601D01*
X0143004Y0241052D01*
X0142103Y0241052D01*
X0141653Y0240601D01*
X0141653Y0240151D01*
X0143454Y0240151D01*
X0143454Y0239700D02*
X0143004Y0239250D01*
X0142103Y0239250D01*
X0140508Y0239250D02*
X0140508Y0241052D01*
X0140508Y0240151D02*
X0139607Y0241052D01*
X0139157Y0241052D01*
X0138052Y0239700D02*
X0137602Y0239700D01*
X0137602Y0239250D01*
X0138052Y0239250D01*
X0138052Y0239700D01*
X0136579Y0239700D02*
X0136129Y0239250D01*
X0134777Y0239250D01*
X0133632Y0239700D02*
X0133182Y0239250D01*
X0132281Y0239250D01*
X0131831Y0239700D01*
X0131831Y0240601D01*
X0132281Y0241052D01*
X0133182Y0241052D01*
X0133632Y0240601D01*
X0133632Y0239700D01*
X0134777Y0241052D02*
X0136129Y0241052D01*
X0136579Y0240601D01*
X0136579Y0239700D01*
X0135760Y0244250D02*
X0135760Y0245601D01*
X0136210Y0246052D01*
X0137561Y0246052D01*
X0137561Y0244250D01*
X0138665Y0246052D02*
X0139116Y0246052D01*
X0140017Y0245151D01*
X0140017Y0244250D02*
X0140017Y0246052D01*
X0141162Y0245601D02*
X0141612Y0246052D01*
X0142513Y0246052D01*
X0142963Y0245601D01*
X0142963Y0244700D01*
X0142513Y0244250D01*
X0141612Y0244250D01*
X0141162Y0244700D01*
X0141162Y0245601D01*
X0144108Y0245601D02*
X0144108Y0244250D01*
X0144108Y0245601D02*
X0144558Y0246052D01*
X0145459Y0246052D01*
X0145910Y0245601D01*
X0147055Y0246052D02*
X0147055Y0243800D01*
X0147505Y0243349D01*
X0147955Y0243349D01*
X0148406Y0244250D02*
X0147055Y0244250D01*
X0145910Y0244250D02*
X0145910Y0246952D01*
X0147055Y0246052D02*
X0148406Y0246052D01*
X0148856Y0245601D01*
X0148856Y0244700D01*
X0148406Y0244250D01*
X0150001Y0244250D02*
X0150001Y0245601D01*
X0150452Y0246052D01*
X0151803Y0246052D01*
X0151803Y0244250D01*
X0152948Y0244700D02*
X0152948Y0245601D01*
X0153398Y0246052D01*
X0154299Y0246052D01*
X0154749Y0245601D01*
X0154749Y0244700D01*
X0154299Y0244250D01*
X0153398Y0244250D01*
X0152948Y0244700D01*
X0155894Y0244250D02*
X0157696Y0244250D01*
X0157696Y0246952D01*
X0161787Y0246952D02*
X0162688Y0246502D01*
X0163589Y0245601D01*
X0162238Y0245601D01*
X0161787Y0245151D01*
X0161787Y0244700D01*
X0162238Y0244250D01*
X0163138Y0244250D01*
X0163589Y0244700D01*
X0163589Y0245601D01*
X0164734Y0244250D02*
X0166535Y0244250D01*
X0165634Y0244250D02*
X0165634Y0246952D01*
X0166535Y0246052D01*
X0167680Y0246502D02*
X0167680Y0244700D01*
X0168131Y0244250D01*
X0169031Y0244250D01*
X0169482Y0244700D01*
X0167680Y0246502D01*
X0168131Y0246952D01*
X0169031Y0246952D01*
X0169482Y0246502D01*
X0169482Y0244700D01*
X0170627Y0244250D02*
X0172428Y0244250D01*
X0170627Y0246052D01*
X0170627Y0246502D01*
X0171077Y0246952D01*
X0171978Y0246952D01*
X0172428Y0246502D01*
X0176438Y0246052D02*
X0177339Y0246952D01*
X0176438Y0246052D02*
X0176438Y0245151D01*
X0177339Y0244250D01*
X0178484Y0244250D02*
X0179835Y0244250D01*
X0180286Y0244700D01*
X0180286Y0245601D01*
X0179835Y0246052D01*
X0178484Y0246052D01*
X0181349Y0246952D02*
X0182250Y0246052D01*
X0182250Y0245151D01*
X0181349Y0244250D01*
X0181800Y0241952D02*
X0181800Y0239250D01*
X0182250Y0239250D02*
X0181349Y0239250D01*
X0180286Y0239700D02*
X0179835Y0239250D01*
X0178935Y0239250D01*
X0178484Y0239700D01*
X0178484Y0240601D01*
X0178935Y0241052D01*
X0179835Y0241052D01*
X0180286Y0240601D01*
X0180286Y0239700D01*
X0181800Y0241952D02*
X0182250Y0241952D01*
X0177339Y0241052D02*
X0175988Y0241052D01*
X0175538Y0240601D01*
X0175538Y0239250D01*
X0177339Y0239250D02*
X0177339Y0241052D01*
X0177952Y0236952D02*
X0177502Y0236502D01*
X0177502Y0235601D01*
X0177952Y0235151D01*
X0179303Y0235151D01*
X0179303Y0234250D02*
X0179303Y0236952D01*
X0177952Y0236952D01*
X0180448Y0236502D02*
X0180448Y0235601D01*
X0180899Y0235151D01*
X0182250Y0235151D01*
X0181349Y0235151D02*
X0180448Y0234250D01*
X0182250Y0234250D02*
X0182250Y0236952D01*
X0180899Y0236952D01*
X0180448Y0236502D01*
X0180899Y0231952D02*
X0180448Y0231502D01*
X0180448Y0230601D01*
X0180899Y0230151D01*
X0182250Y0230151D01*
X0181349Y0230151D02*
X0180448Y0229250D01*
X0179303Y0229250D02*
X0177502Y0229250D01*
X0176357Y0230151D02*
X0176357Y0231952D01*
X0177502Y0231952D02*
X0179303Y0231952D01*
X0179303Y0229250D01*
X0179303Y0230601D02*
X0178403Y0230601D01*
X0176357Y0230151D02*
X0175456Y0229250D01*
X0174555Y0230151D01*
X0174555Y0231952D01*
X0173410Y0231052D02*
X0173410Y0230601D01*
X0172960Y0230601D01*
X0172960Y0231052D01*
X0173410Y0231052D01*
X0173410Y0229700D02*
X0173410Y0229250D01*
X0172960Y0229250D01*
X0172960Y0229700D01*
X0173410Y0229700D01*
X0180899Y0231952D02*
X0182250Y0231952D01*
X0182250Y0229250D01*
X0171446Y0240601D02*
X0170996Y0241052D01*
X0165553Y0241052D02*
X0165553Y0239250D01*
X0165553Y0240151D02*
X0164652Y0241052D01*
X0164202Y0241052D01*
X0159660Y0236502D02*
X0159660Y0236052D01*
X0159210Y0235601D01*
X0158309Y0235601D01*
X0157858Y0235151D01*
X0157858Y0234700D01*
X0158309Y0234250D01*
X0159210Y0234250D01*
X0159660Y0234700D01*
X0159660Y0236502D02*
X0159210Y0236952D01*
X0158309Y0236952D01*
X0157858Y0236502D01*
X0149347Y0239250D02*
X0149347Y0241052D01*
X0155772Y0226952D02*
X0155772Y0224250D01*
X0156222Y0224250D02*
X0155322Y0224250D01*
X0154258Y0224250D02*
X0154258Y0226052D01*
X0153808Y0226052D01*
X0153357Y0225601D01*
X0152907Y0226052D01*
X0152457Y0225601D01*
X0152457Y0224250D01*
X0153357Y0224250D02*
X0153357Y0225601D01*
X0151312Y0224700D02*
X0150861Y0225151D01*
X0149510Y0225151D01*
X0149510Y0225601D02*
X0149510Y0224250D01*
X0150861Y0224250D01*
X0151312Y0224700D01*
X0150861Y0226052D02*
X0149960Y0226052D01*
X0149510Y0225601D01*
X0148365Y0226052D02*
X0147014Y0226052D01*
X0146564Y0225601D01*
X0146564Y0224250D01*
X0145419Y0224250D02*
X0145419Y0226052D01*
X0144067Y0226052D01*
X0143617Y0225601D01*
X0143617Y0224250D01*
X0148365Y0224250D02*
X0148365Y0226052D01*
X0155772Y0226952D02*
X0156222Y0226952D01*
X0157736Y0226952D02*
X0157736Y0224250D01*
X0157286Y0224250D02*
X0158187Y0224250D01*
X0159250Y0224250D02*
X0160151Y0224250D01*
X0159701Y0224250D02*
X0159701Y0226052D01*
X0160151Y0226052D01*
X0159701Y0226952D02*
X0159701Y0227403D01*
X0158187Y0226952D02*
X0157736Y0226952D01*
X0161296Y0226502D02*
X0161296Y0224700D01*
X0161747Y0224250D01*
X0163098Y0224250D01*
X0163098Y0226952D01*
X0161747Y0226952D01*
X0161296Y0226502D01*
X0130686Y0239250D02*
X0130686Y0241052D01*
X0130236Y0241052D01*
X0129785Y0240601D01*
X0129335Y0241052D01*
X0128884Y0240601D01*
X0128884Y0239250D01*
X0129785Y0239250D02*
X0129785Y0240601D01*
X0129867Y0244250D02*
X0131668Y0244250D01*
X0131668Y0246952D01*
X0129867Y0246952D01*
X0128722Y0246052D02*
X0127370Y0246052D01*
X0126920Y0245601D01*
X0126920Y0244250D01*
X0125775Y0244700D02*
X0125325Y0244250D01*
X0123974Y0244250D01*
X0123974Y0243800D02*
X0123974Y0246052D01*
X0125325Y0246052D01*
X0125775Y0245601D01*
X0125775Y0244700D01*
X0124874Y0243349D02*
X0124424Y0243349D01*
X0123974Y0243800D01*
X0122829Y0244250D02*
X0121928Y0244250D01*
X0122378Y0244250D02*
X0122378Y0246052D01*
X0122829Y0246052D01*
X0122378Y0246952D02*
X0122378Y0247403D01*
X0120864Y0246052D02*
X0119513Y0246052D01*
X0119063Y0245601D01*
X0119063Y0244250D01*
X0117918Y0244700D02*
X0117918Y0245601D01*
X0117467Y0246052D01*
X0116567Y0246052D01*
X0116116Y0245601D01*
X0116116Y0245151D01*
X0117918Y0245151D01*
X0117918Y0244700D02*
X0117467Y0244250D01*
X0116567Y0244250D01*
X0114971Y0244700D02*
X0114971Y0245601D01*
X0114521Y0246052D01*
X0113620Y0246052D01*
X0113170Y0245601D01*
X0113170Y0245151D01*
X0114971Y0245151D01*
X0114971Y0244700D02*
X0114521Y0244250D01*
X0113620Y0244250D01*
X0112025Y0244250D02*
X0112025Y0246052D01*
X0111124Y0246052D02*
X0110674Y0246052D01*
X0111124Y0246052D02*
X0112025Y0245151D01*
X0120864Y0244250D02*
X0120864Y0246052D01*
X0128722Y0246052D02*
X0128722Y0244250D01*
X0130767Y0245601D02*
X0131668Y0245601D01*
D13*
X0058670Y0192500D03*
X0048670Y0210900D03*
D14*
X0051135Y0207966D03*
X0060935Y0215566D03*
X0060865Y0215766D03*
X0060735Y0216166D03*
X0075135Y0203766D03*
X0075135Y0203634D03*
X0075135Y0203566D03*
X0075135Y0203434D03*
X0075135Y0203366D03*
X0058665Y0192566D03*
X0051735Y0233434D03*
X0051465Y0233834D03*
X0060065Y0238166D03*
X0061135Y0235566D03*
D15*
X0060935Y0235234D03*
X0052065Y0233166D03*
X0051265Y0234366D03*
X0056065Y0224434D03*
X0059735Y0219834D03*
X0059865Y0219434D03*
X0059865Y0219366D03*
X0059865Y0219234D03*
X0059935Y0219166D03*
X0059935Y0219034D03*
X0060065Y0218566D03*
X0059135Y0214966D03*
X0059135Y0214834D03*
X0058935Y0213966D03*
X0058865Y0213834D03*
X0058335Y0213166D03*
X0058065Y0212834D03*
X0057935Y0212634D03*
X0057735Y0212166D03*
X0059865Y0212166D03*
X0061465Y0214234D03*
X0062535Y0213234D03*
X0051535Y0206634D03*
X0051265Y0205366D03*
X0049935Y0202766D03*
X0058665Y0192634D03*
X0073265Y0198166D03*
X0073335Y0198234D03*
X0074465Y0200434D03*
X0048535Y0218434D03*
D16*
X0059065Y0215300D03*
X0059535Y0220700D03*
X0059465Y0220900D03*
X0058465Y0225100D03*
X0060865Y0235100D03*
X0061665Y0238100D03*
X0061665Y0238300D03*
X0061665Y0239300D03*
X0061735Y0239500D03*
X0062335Y0240900D03*
X0051135Y0234700D03*
X0034065Y0219300D03*
X0033935Y0219500D03*
X0033735Y0219900D03*
X0035735Y0210100D03*
X0036935Y0208300D03*
X0036665Y0207900D03*
X0036465Y0207500D03*
X0036535Y0206300D03*
X0055265Y0198700D03*
X0055665Y0197700D03*
X0055735Y0197500D03*
X0055865Y0197300D03*
X0055935Y0197100D03*
X0056265Y0196300D03*
X0056465Y0195900D03*
X0056665Y0195500D03*
X0058665Y0192700D03*
X0059135Y0198100D03*
X0072135Y0202100D03*
X0074735Y0204500D03*
D17*
X0074665Y0204366D03*
X0070135Y0202566D03*
X0070065Y0202634D03*
X0061335Y0200166D03*
X0057465Y0194234D03*
X0057535Y0194166D03*
X0058665Y0192766D03*
X0051065Y0204966D03*
X0051065Y0205034D03*
X0051265Y0207566D03*
X0058535Y0210766D03*
X0060465Y0210566D03*
X0061135Y0209766D03*
X0061865Y0213634D03*
X0058735Y0216366D03*
X0058665Y0216566D03*
X0058535Y0216834D03*
X0058535Y0216966D03*
X0058465Y0217034D03*
X0058335Y0217366D03*
X0058335Y0217434D03*
X0058265Y0217566D03*
X0058135Y0217834D03*
X0058065Y0217966D03*
X0058065Y0218034D03*
X0057935Y0218366D03*
X0057865Y0218434D03*
X0057735Y0218766D03*
X0057735Y0218834D03*
X0057665Y0218966D03*
X0057535Y0219234D03*
X0057465Y0219366D03*
X0057465Y0219434D03*
X0057335Y0219766D03*
X0057265Y0219834D03*
X0057265Y0219966D03*
X0058735Y0223966D03*
X0058665Y0224234D03*
X0053935Y0216034D03*
X0053935Y0215966D03*
X0053935Y0215834D03*
X0053935Y0215766D03*
X0053935Y0215634D03*
X0053935Y0215566D03*
X0044535Y0214566D03*
X0044065Y0214966D03*
X0043865Y0215166D03*
X0035535Y0217234D03*
X0035535Y0211166D03*
X0035465Y0211034D03*
X0035465Y0210966D03*
X0051135Y0235366D03*
X0051135Y0235434D03*
X0060265Y0237966D03*
X0068265Y0235434D03*
X0068265Y0235366D03*
X0068335Y0235234D03*
X0072935Y0216034D03*
X0072935Y0215966D03*
X0072935Y0215834D03*
X0072935Y0215766D03*
X0072935Y0215634D03*
X0072865Y0215566D03*
X0072865Y0215434D03*
X0072865Y0215366D03*
X0072865Y0215234D03*
X0072865Y0215166D03*
D18*
X0072535Y0213234D03*
X0072465Y0213034D03*
X0072465Y0212966D03*
X0072335Y0212434D03*
X0072265Y0212234D03*
X0072135Y0211834D03*
X0072135Y0211766D03*
X0072065Y0211634D03*
X0072065Y0211566D03*
X0068935Y0204166D03*
X0069065Y0203966D03*
X0069335Y0203634D03*
X0069465Y0203434D03*
X0070465Y0202166D03*
X0070065Y0199234D03*
X0070135Y0199166D03*
X0070265Y0199034D03*
X0070335Y0198966D03*
X0061735Y0198434D03*
X0061735Y0198366D03*
X0061665Y0198034D03*
X0058665Y0192834D03*
X0051335Y0207234D03*
X0058535Y0210834D03*
X0061135Y0209834D03*
X0062265Y0211034D03*
X0053935Y0216234D03*
X0049665Y0215766D03*
X0049465Y0215366D03*
X0043735Y0215366D03*
X0036865Y0222766D03*
X0033535Y0222234D03*
X0033535Y0222166D03*
X0033465Y0222034D03*
X0035735Y0216966D03*
X0035865Y0216834D03*
X0036065Y0211634D03*
X0035935Y0211566D03*
X0048865Y0236234D03*
X0051135Y0235766D03*
X0051135Y0235634D03*
X0051135Y0235566D03*
X0051935Y0237366D03*
X0052135Y0237566D03*
X0056065Y0223634D03*
X0056065Y0223566D03*
X0056135Y0223366D03*
X0056665Y0221634D03*
X0056735Y0221434D03*
X0056735Y0221366D03*
X0056865Y0221034D03*
X0056935Y0220834D03*
X0068535Y0234766D03*
X0068535Y0234834D03*
X0072865Y0224366D03*
X0072865Y0224234D03*
X0072865Y0224166D03*
X0072865Y0224034D03*
X0072865Y0223966D03*
X0072935Y0223834D03*
X0072935Y0223766D03*
X0072935Y0223634D03*
X0072935Y0223566D03*
X0072935Y0223434D03*
X0072935Y0223366D03*
D19*
X0068700Y0204500D03*
X0060300Y0194900D03*
X0058700Y0192900D03*
X0057700Y0194100D03*
X0049500Y0215500D03*
X0056700Y0221500D03*
X0056500Y0222100D03*
X0056300Y0222700D03*
X0051300Y0236300D03*
X0051900Y0237300D03*
X0048900Y0236100D03*
X0048900Y0235900D03*
X0048900Y0235700D03*
X0036700Y0222900D03*
X0037100Y0222500D03*
X0036900Y0205900D03*
D20*
X0041500Y0207366D03*
X0041500Y0207434D03*
X0041500Y0207566D03*
X0041500Y0207634D03*
X0036500Y0216034D03*
X0041700Y0217366D03*
X0041900Y0217166D03*
X0037300Y0222234D03*
X0049100Y0234434D03*
X0049100Y0234566D03*
X0049100Y0234634D03*
X0048900Y0239034D03*
X0055300Y0230366D03*
X0052100Y0224234D03*
X0052100Y0224166D03*
X0053300Y0220766D03*
X0053500Y0220166D03*
X0053500Y0220034D03*
X0070100Y0231766D03*
X0069900Y0232166D03*
X0069900Y0232234D03*
X0069700Y0232566D03*
X0070500Y0230834D03*
X0070700Y0230434D03*
X0070700Y0230366D03*
X0070900Y0229966D03*
X0071700Y0210434D03*
X0071700Y0210366D03*
X0057900Y0200366D03*
X0059900Y0194366D03*
X0058700Y0192966D03*
D21*
X0058700Y0193034D03*
X0059700Y0194166D03*
X0057500Y0201034D03*
X0059700Y0211366D03*
X0071370Y0209566D03*
X0071430Y0209766D03*
X0071500Y0209834D03*
X0071570Y0210034D03*
X0071300Y0198166D03*
X0072700Y0225966D03*
X0072630Y0226034D03*
X0072570Y0226166D03*
X0072570Y0226234D03*
X0072500Y0226366D03*
X0072500Y0226434D03*
X0072430Y0226566D03*
X0072370Y0226634D03*
X0072300Y0226834D03*
X0072230Y0226966D03*
X0072170Y0227166D03*
X0072100Y0227234D03*
X0072030Y0227434D03*
X0071970Y0227566D03*
X0071770Y0228034D03*
X0071700Y0228166D03*
X0071430Y0228766D03*
X0068830Y0233966D03*
X0051630Y0225366D03*
X0051700Y0225166D03*
X0051770Y0225034D03*
X0051770Y0224966D03*
X0051830Y0224834D03*
X0049430Y0232766D03*
X0049430Y0232834D03*
X0049370Y0233034D03*
X0049370Y0233166D03*
X0049370Y0233234D03*
X0049300Y0233366D03*
X0049300Y0233434D03*
X0049230Y0233766D03*
X0048970Y0239366D03*
X0048970Y0239434D03*
X0037630Y0221834D03*
X0037700Y0221766D03*
X0037830Y0221634D03*
X0034030Y0222766D03*
X0036830Y0215634D03*
X0036900Y0215566D03*
X0041030Y0218034D03*
X0041100Y0217966D03*
X0041230Y0217834D03*
X0041300Y0217766D03*
X0041430Y0217634D03*
X0037430Y0209234D03*
X0037030Y0205834D03*
X0041570Y0208234D03*
X0041570Y0208366D03*
X0041570Y0208434D03*
X0043100Y0204166D03*
X0043230Y0204034D03*
X0043300Y0203966D03*
D22*
X0041700Y0209100D03*
X0037100Y0215300D03*
X0039700Y0219500D03*
X0039500Y0219700D03*
X0039300Y0219900D03*
X0038100Y0221300D03*
X0049700Y0231700D03*
X0051500Y0225700D03*
X0053700Y0216500D03*
X0061100Y0210100D03*
X0070900Y0208700D03*
X0071100Y0209100D03*
X0058700Y0193100D03*
X0064100Y0235100D03*
D23*
X0064100Y0235034D03*
X0063900Y0235566D03*
X0051100Y0226766D03*
X0050900Y0227234D03*
X0050900Y0227366D03*
X0050700Y0227966D03*
X0050500Y0228566D03*
X0050500Y0228634D03*
X0050300Y0229234D03*
X0050300Y0229366D03*
X0050100Y0229966D03*
X0050100Y0230034D03*
X0049900Y0230766D03*
X0049100Y0240034D03*
X0043700Y0215634D03*
X0042300Y0210566D03*
X0042100Y0210234D03*
X0042100Y0210166D03*
X0037700Y0214566D03*
X0045500Y0202234D03*
X0059300Y0198434D03*
X0058700Y0193166D03*
X0069500Y0207034D03*
X0069700Y0207234D03*
X0061100Y0210166D03*
X0061100Y0210234D03*
D24*
X0062700Y0211366D03*
X0068170Y0205966D03*
X0068430Y0206166D03*
X0068500Y0206234D03*
X0068700Y0206366D03*
X0058700Y0193234D03*
X0046100Y0201834D03*
X0041370Y0206034D03*
X0042430Y0210766D03*
X0042570Y0210966D03*
X0042630Y0211034D03*
X0037370Y0209366D03*
X0038030Y0214166D03*
X0037970Y0214234D03*
X0049230Y0240434D03*
X0063700Y0235766D03*
D25*
X0058700Y0193300D03*
D26*
X0058730Y0193366D03*
X0059330Y0198566D03*
X0061130Y0199966D03*
X0067670Y0205566D03*
X0067730Y0205634D03*
X0071270Y0201834D03*
X0072130Y0197634D03*
X0061070Y0210434D03*
X0062800Y0211566D03*
X0062870Y0211634D03*
X0062870Y0211766D03*
X0062930Y0211834D03*
X0048530Y0218366D03*
X0043730Y0215766D03*
X0043130Y0211634D03*
X0043070Y0211566D03*
X0038870Y0212966D03*
X0038670Y0212834D03*
X0038530Y0212766D03*
X0038330Y0212634D03*
X0038200Y0212566D03*
X0038000Y0212434D03*
X0037870Y0212366D03*
X0037600Y0212234D03*
X0037470Y0212166D03*
X0038670Y0213366D03*
X0038600Y0213434D03*
X0038530Y0213566D03*
X0038470Y0213634D03*
X0037330Y0209434D03*
X0046530Y0201566D03*
X0057270Y0233766D03*
X0049400Y0240966D03*
X0049400Y0241034D03*
D27*
X0049535Y0241366D03*
X0050865Y0243234D03*
X0051065Y0243366D03*
X0051135Y0243434D03*
X0051265Y0243566D03*
X0044865Y0216434D03*
X0043465Y0211966D03*
X0043335Y0211834D03*
X0041265Y0205966D03*
X0057735Y0201234D03*
X0058735Y0193434D03*
D28*
X0058735Y0193500D03*
X0065465Y0204300D03*
X0062735Y0242300D03*
X0061535Y0242900D03*
X0050535Y0242900D03*
X0050335Y0242700D03*
D29*
X0050070Y0242366D03*
X0060400Y0243434D03*
X0060530Y0243366D03*
X0060930Y0237834D03*
X0060930Y0237766D03*
X0053270Y0216766D03*
X0045070Y0216566D03*
X0043800Y0212234D03*
X0035400Y0223366D03*
X0049800Y0200034D03*
X0058730Y0193566D03*
X0065200Y0204166D03*
X0065330Y0204234D03*
X0067530Y0205366D03*
D30*
X0058700Y0193634D03*
X0060100Y0243566D03*
D31*
X0059370Y0243900D03*
X0061100Y0237500D03*
X0055830Y0230500D03*
X0045300Y0216700D03*
X0035370Y0223300D03*
X0058700Y0193700D03*
X0067500Y0205300D03*
D32*
X0072065Y0198034D03*
X0058735Y0193766D03*
X0059135Y0211166D03*
X0053135Y0216834D03*
X0044135Y0212434D03*
X0061135Y0237434D03*
X0059065Y0244034D03*
X0068335Y0233766D03*
D33*
X0058000Y0201366D03*
X0058730Y0193834D03*
X0041000Y0205834D03*
D34*
X0049865Y0200100D03*
X0058735Y0193900D03*
D35*
X0058700Y0193966D03*
X0035370Y0223166D03*
X0061500Y0237234D03*
D36*
X0043865Y0216166D03*
X0044535Y0212634D03*
X0058735Y0194034D03*
D37*
X0059565Y0194100D03*
X0071435Y0198100D03*
X0051435Y0225900D03*
X0049765Y0231300D03*
X0049635Y0231900D03*
X0049565Y0232100D03*
X0049035Y0239700D03*
X0038435Y0220900D03*
X0038635Y0220700D03*
X0038765Y0220500D03*
X0038965Y0220300D03*
X0040035Y0219100D03*
X0040235Y0218900D03*
X0041765Y0209300D03*
X0044365Y0203100D03*
X0044635Y0202900D03*
D38*
X0042635Y0204566D03*
X0042565Y0204634D03*
X0036365Y0216166D03*
X0041835Y0217234D03*
X0042035Y0217034D03*
X0037365Y0222166D03*
X0049165Y0234166D03*
X0049165Y0234234D03*
X0049035Y0234834D03*
X0049035Y0234966D03*
X0048835Y0238566D03*
X0048835Y0238634D03*
X0048835Y0238766D03*
X0052035Y0224366D03*
X0052165Y0224034D03*
X0052235Y0223834D03*
X0052435Y0223366D03*
X0053365Y0220566D03*
X0053435Y0220366D03*
X0053435Y0220234D03*
X0053565Y0219834D03*
X0053565Y0219766D03*
X0053635Y0219566D03*
X0053835Y0218434D03*
X0053835Y0218366D03*
X0053835Y0218234D03*
X0053835Y0218166D03*
X0058565Y0210966D03*
X0057635Y0200766D03*
X0057765Y0200566D03*
X0058035Y0200166D03*
X0059965Y0194434D03*
X0059765Y0194234D03*
X0071035Y0198366D03*
X0071235Y0201434D03*
X0071635Y0210234D03*
X0071765Y0210566D03*
X0071765Y0210634D03*
X0072765Y0225366D03*
X0072765Y0225434D03*
X0072765Y0225566D03*
X0072765Y0225634D03*
X0071165Y0229366D03*
X0070765Y0230234D03*
X0070635Y0230566D03*
X0070435Y0230966D03*
X0070435Y0231034D03*
X0070365Y0231166D03*
X0070235Y0231434D03*
X0070165Y0231566D03*
X0070165Y0231634D03*
X0070035Y0231834D03*
X0069965Y0231966D03*
X0069965Y0232034D03*
X0069835Y0232366D03*
X0069765Y0232434D03*
D39*
X0069835Y0232300D03*
X0070035Y0231900D03*
X0070235Y0231500D03*
X0070365Y0231100D03*
X0070565Y0230700D03*
X0070835Y0230100D03*
X0072765Y0225500D03*
X0072765Y0225300D03*
X0053565Y0219900D03*
X0053435Y0220300D03*
X0053365Y0220500D03*
X0053835Y0218500D03*
X0053835Y0218300D03*
X0053835Y0218100D03*
X0052235Y0223900D03*
X0052165Y0224100D03*
X0049165Y0234100D03*
X0049035Y0234900D03*
X0048835Y0238500D03*
X0048835Y0238700D03*
X0037435Y0222100D03*
X0041765Y0217300D03*
X0041965Y0217100D03*
X0036435Y0216100D03*
X0059835Y0194300D03*
D40*
X0057435Y0194300D03*
X0054635Y0200300D03*
X0059835Y0211900D03*
X0061835Y0213700D03*
X0058835Y0216100D03*
X0058765Y0216300D03*
X0057435Y0219500D03*
X0059035Y0222700D03*
X0058965Y0222900D03*
X0058835Y0223500D03*
X0058765Y0223700D03*
X0058765Y0223900D03*
X0058635Y0224500D03*
X0058565Y0224700D03*
X0058565Y0224900D03*
X0056035Y0224100D03*
X0044835Y0214300D03*
X0044365Y0214700D03*
X0044165Y0214900D03*
X0035165Y0217700D03*
X0033365Y0221100D03*
X0033365Y0221300D03*
X0033365Y0221500D03*
X0035435Y0210900D03*
X0035435Y0210700D03*
X0067035Y0202300D03*
X0067235Y0202100D03*
X0067435Y0201900D03*
X0067635Y0201700D03*
X0067965Y0201300D03*
X0068165Y0201100D03*
X0068365Y0200900D03*
X0068565Y0200700D03*
X0068765Y0200500D03*
X0068965Y0200300D03*
X0072965Y0216300D03*
X0072965Y0216500D03*
X0072965Y0216700D03*
X0072965Y0216900D03*
X0073035Y0217100D03*
X0073035Y0217300D03*
X0073035Y0217500D03*
X0073035Y0217700D03*
X0073035Y0217900D03*
X0073035Y0218100D03*
X0073035Y0218300D03*
X0073035Y0218500D03*
X0073035Y0219900D03*
X0073035Y0220100D03*
X0073035Y0220300D03*
X0073035Y0220500D03*
X0073035Y0220700D03*
X0073035Y0220900D03*
X0073035Y0221100D03*
X0073035Y0221300D03*
X0073035Y0221500D03*
X0068235Y0235500D03*
X0068165Y0235700D03*
X0068035Y0236100D03*
D41*
X0068035Y0236034D03*
X0068035Y0235966D03*
X0067965Y0236166D03*
X0067965Y0236234D03*
X0068165Y0235634D03*
X0060835Y0234966D03*
X0052365Y0233034D03*
X0058565Y0224834D03*
X0058565Y0224766D03*
X0058565Y0224634D03*
X0058635Y0224566D03*
X0058635Y0224434D03*
X0058635Y0224366D03*
X0058765Y0223834D03*
X0058765Y0223766D03*
X0058835Y0223634D03*
X0058835Y0223566D03*
X0058835Y0223434D03*
X0058965Y0223034D03*
X0058965Y0222966D03*
X0057365Y0219634D03*
X0057565Y0219166D03*
X0057635Y0219034D03*
X0058635Y0216634D03*
X0058765Y0216234D03*
X0058835Y0216166D03*
X0058835Y0216034D03*
X0061765Y0213766D03*
X0062165Y0213434D03*
X0060365Y0210634D03*
X0066165Y0203234D03*
X0066235Y0203166D03*
X0066965Y0202366D03*
X0067165Y0202166D03*
X0067365Y0201966D03*
X0067565Y0201766D03*
X0067835Y0201434D03*
X0068035Y0201234D03*
X0068235Y0201034D03*
X0068435Y0200834D03*
X0068635Y0200634D03*
X0068835Y0200434D03*
X0071235Y0201234D03*
X0072965Y0216166D03*
X0072965Y0216234D03*
X0072965Y0216366D03*
X0072965Y0216434D03*
X0072965Y0216566D03*
X0072965Y0216634D03*
X0072965Y0216766D03*
X0072965Y0216834D03*
X0072965Y0216966D03*
X0073035Y0217034D03*
X0073035Y0217166D03*
X0073035Y0217234D03*
X0073035Y0217366D03*
X0073035Y0217434D03*
X0073035Y0217566D03*
X0073035Y0217634D03*
X0073035Y0217766D03*
X0073035Y0217834D03*
X0073035Y0217966D03*
X0073035Y0218034D03*
X0073035Y0218166D03*
X0073035Y0218234D03*
X0073035Y0218366D03*
X0073035Y0218434D03*
X0073035Y0218566D03*
X0073035Y0218634D03*
X0073035Y0219966D03*
X0073035Y0220034D03*
X0073035Y0220166D03*
X0073035Y0220234D03*
X0073035Y0220366D03*
X0073035Y0220434D03*
X0073035Y0220566D03*
X0073035Y0220634D03*
X0073035Y0220766D03*
X0073035Y0220834D03*
X0073035Y0220966D03*
X0073035Y0221034D03*
X0073035Y0221166D03*
X0073035Y0221234D03*
X0073035Y0221366D03*
X0073035Y0221434D03*
X0073035Y0221566D03*
X0073035Y0221634D03*
X0054565Y0200434D03*
X0054635Y0200234D03*
X0054765Y0199966D03*
X0059165Y0198166D03*
X0057365Y0194366D03*
X0051035Y0204766D03*
X0051235Y0207634D03*
X0049835Y0216034D03*
X0044765Y0214366D03*
X0044435Y0214634D03*
X0044235Y0214834D03*
X0035435Y0217366D03*
X0035365Y0217434D03*
X0035235Y0217634D03*
X0033365Y0221166D03*
X0033365Y0221234D03*
X0033365Y0221366D03*
X0033365Y0221434D03*
X0033365Y0221566D03*
X0035435Y0210834D03*
X0035435Y0210766D03*
X0035435Y0210634D03*
D42*
X0036700Y0206034D03*
X0044300Y0214766D03*
X0044700Y0214434D03*
X0048900Y0210234D03*
X0048900Y0210166D03*
X0048900Y0209634D03*
X0054700Y0200166D03*
X0057300Y0194434D03*
X0066900Y0202434D03*
X0067100Y0202234D03*
X0067300Y0202034D03*
X0067500Y0201834D03*
X0067900Y0201366D03*
X0068100Y0201166D03*
X0068300Y0200966D03*
X0068500Y0200766D03*
X0068700Y0200566D03*
X0068900Y0200366D03*
X0074700Y0204434D03*
X0058700Y0216434D03*
X0058900Y0223166D03*
X0058900Y0223234D03*
X0058700Y0224034D03*
X0058700Y0224166D03*
X0051100Y0235166D03*
X0051100Y0235234D03*
X0068100Y0235766D03*
X0068100Y0235834D03*
X0035300Y0217566D03*
D43*
X0036130Y0216500D03*
X0036270Y0216300D03*
X0042130Y0216900D03*
X0042330Y0216700D03*
X0042530Y0216500D03*
X0037270Y0222300D03*
X0033730Y0222500D03*
X0041530Y0207100D03*
X0041600Y0206700D03*
X0041600Y0206300D03*
X0042330Y0204900D03*
X0049670Y0199900D03*
X0060000Y0194500D03*
X0060670Y0195500D03*
X0060870Y0195900D03*
X0061000Y0196100D03*
X0061070Y0196300D03*
X0061130Y0196500D03*
X0061270Y0196700D03*
X0061330Y0196900D03*
X0061400Y0197100D03*
X0061470Y0197300D03*
X0061530Y0197500D03*
X0068530Y0204700D03*
X0071800Y0210700D03*
X0071870Y0210900D03*
X0071930Y0211100D03*
X0061130Y0209900D03*
X0059730Y0211500D03*
X0053870Y0217700D03*
X0053870Y0217900D03*
X0053330Y0220700D03*
X0053270Y0220900D03*
X0053200Y0221100D03*
X0053130Y0221300D03*
X0053070Y0221500D03*
X0053000Y0221700D03*
X0052930Y0221900D03*
X0052870Y0222100D03*
X0052800Y0222300D03*
X0052730Y0222500D03*
X0052670Y0222700D03*
X0052600Y0222900D03*
X0052530Y0223100D03*
X0052470Y0223300D03*
X0052400Y0223500D03*
X0049070Y0234700D03*
X0049000Y0235100D03*
X0049000Y0235300D03*
X0048930Y0235500D03*
X0048800Y0237900D03*
X0048800Y0238100D03*
X0048800Y0238300D03*
X0051470Y0236700D03*
X0051400Y0236500D03*
X0051600Y0236900D03*
X0051730Y0237100D03*
X0068870Y0234100D03*
X0072800Y0225100D03*
X0072800Y0224900D03*
X0070870Y0198500D03*
D44*
X0067800Y0201500D03*
X0066870Y0202500D03*
X0066670Y0202700D03*
X0066470Y0202900D03*
X0072670Y0202700D03*
X0072870Y0202900D03*
X0073070Y0203100D03*
X0073470Y0203500D03*
X0061130Y0209700D03*
X0060330Y0210700D03*
X0060200Y0210900D03*
X0058530Y0210700D03*
X0058930Y0215700D03*
X0059270Y0221700D03*
X0059130Y0222300D03*
X0059070Y0222500D03*
X0058930Y0223100D03*
X0049400Y0215100D03*
X0048870Y0210300D03*
X0051400Y0206900D03*
X0051000Y0204700D03*
X0054800Y0199900D03*
X0054870Y0199700D03*
X0054930Y0199500D03*
X0057130Y0194700D03*
X0057270Y0194500D03*
X0036670Y0206100D03*
X0036000Y0209900D03*
X0035470Y0210500D03*
X0035000Y0217900D03*
X0033470Y0220700D03*
X0033400Y0220900D03*
X0051130Y0234900D03*
X0073070Y0219700D03*
X0073070Y0219500D03*
X0073070Y0219300D03*
X0073070Y0219100D03*
X0073070Y0218900D03*
X0073070Y0218700D03*
D45*
X0072800Y0224966D03*
X0072800Y0225034D03*
X0072800Y0225166D03*
X0072800Y0225234D03*
X0068870Y0234034D03*
X0068800Y0234166D03*
X0068800Y0234234D03*
X0056270Y0222834D03*
X0056330Y0222634D03*
X0053130Y0221366D03*
X0053130Y0221234D03*
X0053200Y0221166D03*
X0053200Y0221034D03*
X0053270Y0220966D03*
X0053270Y0220834D03*
X0053330Y0220634D03*
X0053400Y0220434D03*
X0053070Y0221566D03*
X0053000Y0221766D03*
X0052930Y0221966D03*
X0052870Y0222166D03*
X0052800Y0222366D03*
X0052730Y0222566D03*
X0052670Y0222766D03*
X0052600Y0222966D03*
X0052530Y0223034D03*
X0052530Y0223166D03*
X0052470Y0223234D03*
X0052400Y0223434D03*
X0052330Y0223566D03*
X0052330Y0223634D03*
X0052270Y0223766D03*
X0052200Y0223966D03*
X0053870Y0218034D03*
X0053870Y0217966D03*
X0053870Y0217834D03*
X0053870Y0217766D03*
X0053870Y0216366D03*
X0042600Y0216434D03*
X0042470Y0216566D03*
X0042400Y0216634D03*
X0042270Y0216766D03*
X0042200Y0216834D03*
X0042070Y0216966D03*
X0036330Y0216234D03*
X0036200Y0216366D03*
X0036200Y0216434D03*
X0036070Y0216566D03*
X0037200Y0222366D03*
X0037130Y0222434D03*
X0033870Y0222634D03*
X0033800Y0222566D03*
X0037470Y0209166D03*
X0041530Y0207234D03*
X0041530Y0207166D03*
X0041530Y0207034D03*
X0041530Y0206966D03*
X0041600Y0206766D03*
X0041600Y0206634D03*
X0042400Y0204834D03*
X0042470Y0204766D03*
X0060070Y0194566D03*
X0060130Y0194634D03*
X0060270Y0194834D03*
X0060400Y0195034D03*
X0060600Y0195366D03*
X0060730Y0195634D03*
X0060800Y0195766D03*
X0060870Y0195834D03*
X0060930Y0195966D03*
X0060930Y0196034D03*
X0061000Y0196166D03*
X0061070Y0196234D03*
X0061070Y0196366D03*
X0061130Y0196434D03*
X0061200Y0196566D03*
X0061200Y0196634D03*
X0061270Y0196766D03*
X0061270Y0196834D03*
X0061330Y0196966D03*
X0061330Y0197034D03*
X0061400Y0197166D03*
X0061470Y0197366D03*
X0061530Y0197566D03*
X0068730Y0204434D03*
X0068600Y0204634D03*
X0071800Y0210766D03*
X0071870Y0210834D03*
X0071870Y0210966D03*
X0074600Y0204234D03*
X0070800Y0198566D03*
X0070930Y0198434D03*
X0049070Y0234766D03*
X0049000Y0235034D03*
X0049000Y0235166D03*
X0049000Y0235234D03*
X0048930Y0235566D03*
X0048930Y0235634D03*
X0048800Y0237834D03*
X0048800Y0237966D03*
X0048800Y0238034D03*
X0048800Y0238166D03*
X0048800Y0238234D03*
X0048800Y0238366D03*
X0048800Y0238434D03*
X0051530Y0236834D03*
X0051530Y0236766D03*
X0051470Y0236634D03*
X0051400Y0236566D03*
X0051330Y0236434D03*
X0051330Y0236366D03*
X0051270Y0236234D03*
X0051270Y0236166D03*
X0051670Y0237034D03*
D46*
X0051130Y0235034D03*
X0051130Y0234966D03*
X0056000Y0224166D03*
X0058530Y0224966D03*
X0058870Y0223366D03*
X0059000Y0222834D03*
X0059000Y0222766D03*
X0059070Y0222634D03*
X0059070Y0222566D03*
X0059070Y0222434D03*
X0059130Y0222366D03*
X0059130Y0222234D03*
X0059130Y0222166D03*
X0059200Y0222034D03*
X0059200Y0221966D03*
X0058870Y0215966D03*
X0058930Y0215834D03*
X0058930Y0215766D03*
X0059000Y0215566D03*
X0061730Y0213834D03*
X0060130Y0210966D03*
X0060200Y0210834D03*
X0060270Y0210766D03*
X0053870Y0215434D03*
X0051130Y0205166D03*
X0054730Y0200034D03*
X0054800Y0199834D03*
X0054870Y0199766D03*
X0054870Y0199634D03*
X0054930Y0199566D03*
X0055000Y0199434D03*
X0055000Y0199366D03*
X0055070Y0199234D03*
X0055130Y0199034D03*
X0057070Y0194766D03*
X0057200Y0194566D03*
X0066330Y0203034D03*
X0066400Y0202966D03*
X0066530Y0202834D03*
X0066600Y0202766D03*
X0066730Y0202634D03*
X0066800Y0202566D03*
X0067670Y0201634D03*
X0067730Y0201566D03*
X0072200Y0197034D03*
X0072530Y0202566D03*
X0072600Y0202634D03*
X0072730Y0202766D03*
X0072800Y0202834D03*
X0072930Y0202966D03*
X0073000Y0203034D03*
X0073530Y0203566D03*
X0073600Y0203634D03*
X0073800Y0203766D03*
X0073870Y0203834D03*
X0073070Y0218766D03*
X0073070Y0218834D03*
X0073070Y0218966D03*
X0073070Y0219034D03*
X0073070Y0219166D03*
X0073070Y0219234D03*
X0073070Y0219366D03*
X0073070Y0219434D03*
X0073070Y0219566D03*
X0073070Y0219634D03*
X0073070Y0219766D03*
X0073070Y0219834D03*
X0037530Y0209034D03*
X0035470Y0210566D03*
X0036600Y0206166D03*
X0035130Y0217766D03*
X0035070Y0217834D03*
X0033530Y0220366D03*
X0033530Y0220434D03*
X0033470Y0220566D03*
X0033470Y0220634D03*
X0033400Y0220766D03*
X0033400Y0220834D03*
X0033400Y0220966D03*
X0033400Y0221034D03*
D47*
X0033565Y0220234D03*
X0033635Y0220166D03*
X0033765Y0219834D03*
X0033965Y0219434D03*
X0034635Y0218434D03*
X0034765Y0218234D03*
X0034835Y0218166D03*
X0034965Y0217966D03*
X0037165Y0208566D03*
X0037035Y0208434D03*
X0036965Y0208366D03*
X0036835Y0208166D03*
X0036765Y0208034D03*
X0036635Y0207834D03*
X0036565Y0206234D03*
X0048835Y0209566D03*
X0048835Y0210366D03*
X0051435Y0206834D03*
X0051165Y0205234D03*
X0055165Y0198966D03*
X0055235Y0198834D03*
X0055235Y0198766D03*
X0055365Y0198434D03*
X0055565Y0197966D03*
X0056435Y0195966D03*
X0056635Y0195566D03*
X0056835Y0195166D03*
X0056965Y0194966D03*
X0057035Y0194834D03*
X0057165Y0194634D03*
X0071235Y0201166D03*
X0072235Y0202234D03*
X0072365Y0202366D03*
X0072435Y0202434D03*
X0073165Y0203234D03*
X0073365Y0203434D03*
X0061635Y0213966D03*
X0059835Y0211966D03*
X0059035Y0215366D03*
X0059035Y0215434D03*
X0058965Y0215634D03*
X0059435Y0221034D03*
X0059365Y0221366D03*
X0059235Y0221766D03*
X0059235Y0221834D03*
X0056035Y0224234D03*
X0049435Y0215034D03*
X0051165Y0234834D03*
X0060165Y0238034D03*
X0060835Y0235034D03*
X0062365Y0240966D03*
D48*
X0068765Y0234300D03*
X0072835Y0224700D03*
X0072835Y0224500D03*
X0072035Y0211500D03*
X0071965Y0211300D03*
X0068835Y0204300D03*
X0068965Y0204100D03*
X0070635Y0198700D03*
X0061635Y0197900D03*
X0061565Y0197700D03*
X0060765Y0195700D03*
X0060565Y0195300D03*
X0060435Y0195100D03*
X0060165Y0194700D03*
X0058565Y0210900D03*
X0056635Y0221700D03*
X0056565Y0221900D03*
X0056435Y0222300D03*
X0056365Y0222500D03*
X0056235Y0222900D03*
X0056165Y0223100D03*
X0051235Y0236100D03*
X0048835Y0236300D03*
X0048835Y0236500D03*
X0048835Y0236700D03*
X0048835Y0236900D03*
X0048765Y0237700D03*
X0035965Y0216700D03*
X0036165Y0211700D03*
X0041565Y0206900D03*
X0041635Y0206500D03*
D49*
X0041635Y0206566D03*
X0041635Y0206434D03*
X0041635Y0206366D03*
X0041565Y0206834D03*
X0042235Y0205034D03*
X0049565Y0215634D03*
X0053035Y0221634D03*
X0052965Y0221834D03*
X0052835Y0222234D03*
X0052765Y0222434D03*
X0052635Y0222834D03*
X0056165Y0223166D03*
X0056165Y0223234D03*
X0056235Y0223034D03*
X0056235Y0222966D03*
X0056365Y0222566D03*
X0056365Y0222434D03*
X0056435Y0222366D03*
X0056435Y0222234D03*
X0056565Y0221966D03*
X0056635Y0221766D03*
X0054035Y0232034D03*
X0051235Y0236034D03*
X0051635Y0236966D03*
X0051765Y0237166D03*
X0051835Y0237234D03*
X0048965Y0235434D03*
X0048965Y0235366D03*
X0048835Y0236366D03*
X0048835Y0236434D03*
X0048835Y0236566D03*
X0048835Y0236634D03*
X0048835Y0236766D03*
X0048835Y0236834D03*
X0048835Y0236966D03*
X0048835Y0237034D03*
X0048765Y0237766D03*
X0036965Y0222634D03*
X0037035Y0222566D03*
X0035435Y0223634D03*
X0033635Y0222366D03*
X0036035Y0216634D03*
X0059165Y0198234D03*
X0061565Y0197766D03*
X0061635Y0197834D03*
X0061635Y0197966D03*
X0061565Y0197634D03*
X0061435Y0197234D03*
X0060635Y0195434D03*
X0060365Y0194966D03*
X0060235Y0194766D03*
X0069165Y0203834D03*
X0069035Y0204034D03*
X0068765Y0204366D03*
X0068635Y0204566D03*
X0071235Y0201366D03*
X0070565Y0198766D03*
X0072165Y0197234D03*
X0071965Y0211166D03*
X0071965Y0211234D03*
X0072035Y0211434D03*
X0059765Y0211566D03*
X0059765Y0211634D03*
X0072835Y0224434D03*
X0072835Y0224566D03*
X0072835Y0224634D03*
X0072835Y0224766D03*
X0072835Y0224834D03*
X0068635Y0234566D03*
D50*
X0059165Y0222100D03*
X0059235Y0221900D03*
X0059365Y0221300D03*
X0056035Y0224300D03*
X0059035Y0215500D03*
X0051235Y0207700D03*
X0055035Y0199300D03*
X0055165Y0198900D03*
X0055365Y0198500D03*
X0055435Y0198300D03*
X0056565Y0195700D03*
X0056765Y0195300D03*
X0056965Y0194900D03*
X0073235Y0203300D03*
X0036765Y0208100D03*
X0036565Y0207700D03*
X0035565Y0210300D03*
X0034835Y0218100D03*
X0034565Y0218500D03*
X0034435Y0218700D03*
X0033835Y0219700D03*
X0033635Y0220100D03*
X0033565Y0220300D03*
D51*
X0033700Y0220034D03*
X0033700Y0219966D03*
X0033900Y0219566D03*
X0034100Y0219234D03*
X0034900Y0218034D03*
X0035500Y0210434D03*
X0035500Y0210366D03*
X0035900Y0209966D03*
X0036900Y0208234D03*
X0036700Y0207966D03*
X0038300Y0209834D03*
X0055100Y0199166D03*
X0055300Y0198634D03*
X0055300Y0198566D03*
X0055700Y0197634D03*
X0056500Y0195834D03*
X0056700Y0195434D03*
X0056900Y0195034D03*
X0058500Y0210634D03*
X0062100Y0210966D03*
X0062300Y0213366D03*
X0059300Y0221566D03*
X0059300Y0221634D03*
X0058500Y0225034D03*
X0061700Y0237966D03*
X0055100Y0238766D03*
X0073300Y0203366D03*
X0073100Y0203166D03*
D52*
X0073700Y0203700D03*
X0072500Y0202500D03*
X0072300Y0202300D03*
X0061700Y0213900D03*
X0059300Y0221500D03*
X0049900Y0216100D03*
X0037100Y0208500D03*
X0034700Y0218300D03*
X0034300Y0218900D03*
X0033500Y0220500D03*
X0055100Y0199100D03*
X0055500Y0198100D03*
X0056100Y0196700D03*
X0056900Y0195100D03*
D53*
X0060500Y0195166D03*
X0060500Y0195234D03*
X0060700Y0195566D03*
X0061500Y0197434D03*
X0061700Y0198166D03*
X0061700Y0198234D03*
X0068900Y0204234D03*
X0070500Y0198834D03*
X0070700Y0198634D03*
X0071900Y0211034D03*
X0056700Y0221566D03*
X0056500Y0222034D03*
X0056500Y0222166D03*
X0056300Y0222766D03*
X0056100Y0223434D03*
X0052700Y0222634D03*
X0052900Y0222034D03*
X0053100Y0221434D03*
X0049500Y0215566D03*
X0049500Y0215434D03*
X0043700Y0215434D03*
X0035900Y0216766D03*
X0033700Y0222434D03*
X0042300Y0204966D03*
X0048900Y0235766D03*
X0048900Y0235834D03*
X0048900Y0235966D03*
X0048900Y0236034D03*
X0048900Y0236166D03*
X0068700Y0234434D03*
X0068700Y0234366D03*
D54*
X0061800Y0239766D03*
X0061600Y0238834D03*
X0061600Y0238766D03*
X0061600Y0238634D03*
X0061600Y0238566D03*
X0061600Y0238434D03*
X0059400Y0221234D03*
X0059400Y0221166D03*
X0059600Y0220434D03*
X0059600Y0220366D03*
X0061600Y0214034D03*
X0061800Y0210566D03*
X0053800Y0215366D03*
X0050000Y0216166D03*
X0048800Y0210434D03*
X0051200Y0207766D03*
X0051000Y0204634D03*
X0055400Y0198366D03*
X0055600Y0197834D03*
X0055800Y0197434D03*
X0055800Y0197366D03*
X0056000Y0196966D03*
X0056200Y0196434D03*
X0056400Y0196034D03*
X0056600Y0195634D03*
X0056800Y0195234D03*
X0072200Y0196966D03*
X0072200Y0202166D03*
X0037200Y0208634D03*
X0036600Y0207766D03*
X0035800Y0210034D03*
X0035600Y0210234D03*
X0034400Y0218766D03*
X0034200Y0219034D03*
X0034000Y0219366D03*
X0033800Y0219766D03*
D55*
X0033865Y0219634D03*
X0034135Y0219166D03*
X0034265Y0218966D03*
X0034335Y0218834D03*
X0034465Y0218634D03*
X0034535Y0218566D03*
X0034665Y0218366D03*
X0035665Y0210166D03*
X0037535Y0208966D03*
X0036535Y0207634D03*
X0036535Y0207566D03*
X0036465Y0207434D03*
X0036465Y0207366D03*
X0036465Y0206434D03*
X0051465Y0206766D03*
X0059065Y0215234D03*
X0059865Y0212034D03*
X0059535Y0220566D03*
X0059535Y0220634D03*
X0059535Y0220766D03*
X0059465Y0220834D03*
X0059465Y0220966D03*
X0059335Y0221434D03*
X0051135Y0234766D03*
X0061665Y0238034D03*
X0061665Y0238166D03*
X0061665Y0238234D03*
X0061665Y0238366D03*
X0061665Y0239166D03*
X0061665Y0239234D03*
X0061735Y0239566D03*
X0061865Y0239966D03*
X0062265Y0240834D03*
X0072065Y0202034D03*
X0056735Y0195366D03*
X0056535Y0195766D03*
X0056335Y0196166D03*
X0056335Y0196234D03*
X0056265Y0196366D03*
X0056135Y0196566D03*
X0056135Y0196634D03*
X0056065Y0196766D03*
X0056065Y0196834D03*
X0055935Y0197034D03*
X0055865Y0197166D03*
X0055865Y0197234D03*
X0055735Y0197566D03*
X0055665Y0197766D03*
X0055535Y0198034D03*
X0055465Y0198166D03*
X0055465Y0198234D03*
D56*
X0055600Y0197900D03*
X0056000Y0196900D03*
X0056200Y0196500D03*
X0056400Y0196100D03*
X0051200Y0205300D03*
X0059400Y0221100D03*
X0061600Y0238500D03*
X0061600Y0238700D03*
X0062000Y0240300D03*
X0062200Y0240700D03*
X0034200Y0219100D03*
X0036400Y0207100D03*
D57*
X0072165Y0196634D03*
D58*
X0072165Y0196700D03*
X0061235Y0235700D03*
D59*
X0063800Y0212234D03*
X0072200Y0196766D03*
D60*
X0072200Y0196834D03*
X0063000Y0212966D03*
X0061000Y0215366D03*
X0060800Y0215966D03*
X0051800Y0233366D03*
X0051600Y0233634D03*
D61*
X0058365Y0225300D03*
X0060035Y0218700D03*
X0060165Y0218300D03*
X0059165Y0214700D03*
X0059165Y0214500D03*
X0059035Y0214100D03*
X0057965Y0212700D03*
X0057765Y0212300D03*
X0057835Y0211500D03*
X0057965Y0211300D03*
X0061435Y0214300D03*
X0049435Y0214900D03*
X0060965Y0235300D03*
X0074835Y0201700D03*
X0074765Y0201500D03*
X0074635Y0200900D03*
X0074565Y0200700D03*
X0074435Y0200300D03*
X0074365Y0200100D03*
X0074165Y0199700D03*
X0073765Y0198900D03*
X0073365Y0198300D03*
X0072165Y0196900D03*
D62*
X0072200Y0197100D03*
X0072800Y0214700D03*
X0073000Y0221700D03*
X0073000Y0221900D03*
X0073000Y0222100D03*
X0073000Y0222300D03*
X0073000Y0222500D03*
X0068400Y0235100D03*
X0057200Y0220100D03*
X0057600Y0219100D03*
X0057800Y0218700D03*
X0058200Y0217700D03*
X0058600Y0216700D03*
X0044600Y0214500D03*
X0033400Y0221700D03*
D63*
X0036800Y0222834D03*
X0048800Y0237166D03*
X0048800Y0237234D03*
X0048800Y0237366D03*
X0048800Y0237434D03*
X0048800Y0237566D03*
X0048800Y0237634D03*
X0051200Y0235966D03*
X0051200Y0235834D03*
X0052000Y0237434D03*
X0052200Y0237634D03*
X0056600Y0221834D03*
X0056800Y0221234D03*
X0056800Y0221166D03*
X0068600Y0234634D03*
X0072600Y0213566D03*
X0072400Y0212766D03*
X0072200Y0212034D03*
X0072200Y0211966D03*
X0072000Y0211366D03*
X0069200Y0203766D03*
X0069600Y0203234D03*
X0070600Y0202034D03*
X0072200Y0197166D03*
X0061800Y0198566D03*
X0061800Y0198634D03*
X0061800Y0198766D03*
D64*
X0061265Y0200100D03*
X0058065Y0200100D03*
X0057935Y0200300D03*
X0057665Y0200700D03*
X0057535Y0200900D03*
X0072135Y0197300D03*
X0071665Y0210300D03*
X0072735Y0225700D03*
X0072265Y0226900D03*
X0071735Y0228100D03*
X0071665Y0228300D03*
X0071535Y0228500D03*
X0071465Y0228700D03*
X0071265Y0229100D03*
X0071135Y0229500D03*
X0070935Y0229900D03*
X0070735Y0230300D03*
X0070665Y0230500D03*
X0070465Y0230900D03*
X0069735Y0232500D03*
X0053665Y0219500D03*
X0053665Y0219300D03*
X0053735Y0219100D03*
X0052065Y0224300D03*
X0049265Y0233700D03*
X0049135Y0234300D03*
X0048865Y0238900D03*
X0048935Y0239100D03*
X0048935Y0239300D03*
X0033935Y0222700D03*
X0041535Y0217500D03*
X0043665Y0215500D03*
X0041535Y0208100D03*
X0041535Y0207900D03*
X0041535Y0207700D03*
X0042735Y0204500D03*
X0042935Y0204300D03*
D65*
X0043465Y0203834D03*
X0043535Y0203766D03*
X0043735Y0203634D03*
X0041535Y0206166D03*
X0038735Y0204766D03*
X0041665Y0208966D03*
X0041665Y0209034D03*
X0037065Y0215366D03*
X0040465Y0218634D03*
X0040535Y0218566D03*
X0040665Y0218434D03*
X0040735Y0218366D03*
X0040865Y0218234D03*
X0040935Y0218166D03*
X0039935Y0219234D03*
X0038135Y0221234D03*
X0038065Y0221366D03*
X0037865Y0221566D03*
X0034135Y0222834D03*
X0049535Y0232366D03*
X0049535Y0232434D03*
X0049465Y0232566D03*
X0049465Y0232634D03*
X0051535Y0225634D03*
X0051665Y0225234D03*
X0062535Y0211166D03*
X0061135Y0210034D03*
X0071065Y0209034D03*
X0071135Y0209166D03*
X0071265Y0209366D03*
X0071265Y0209434D03*
X0074465Y0204034D03*
X0072135Y0197366D03*
X0059265Y0198366D03*
D66*
X0062600Y0211234D03*
X0069870Y0207434D03*
X0070000Y0207566D03*
X0070070Y0207634D03*
X0070200Y0207766D03*
X0070270Y0207834D03*
X0070330Y0207966D03*
X0070400Y0208034D03*
X0070670Y0208366D03*
X0072130Y0197434D03*
X0051400Y0225966D03*
X0051330Y0226166D03*
X0051270Y0226234D03*
X0051270Y0226366D03*
X0051200Y0226434D03*
X0051130Y0226634D03*
X0051070Y0226834D03*
X0051000Y0227034D03*
X0050000Y0230366D03*
X0050000Y0230434D03*
X0049930Y0230566D03*
X0049930Y0230634D03*
X0049870Y0230834D03*
X0049870Y0230966D03*
X0049800Y0231166D03*
X0049800Y0231234D03*
X0049730Y0231434D03*
X0049070Y0239966D03*
X0064000Y0235434D03*
X0042000Y0209966D03*
X0041930Y0209834D03*
X0041930Y0209766D03*
X0041870Y0209634D03*
X0037530Y0214766D03*
X0037470Y0214834D03*
X0037400Y0214966D03*
X0037330Y0215034D03*
X0039270Y0219966D03*
X0039200Y0220034D03*
X0038730Y0220566D03*
X0038670Y0220634D03*
X0044800Y0202766D03*
X0045070Y0202566D03*
X0045330Y0202366D03*
D67*
X0042265Y0210500D03*
X0037735Y0214500D03*
X0050535Y0228500D03*
X0050465Y0228700D03*
X0062665Y0211300D03*
X0068865Y0206500D03*
X0069135Y0206700D03*
X0069335Y0206900D03*
X0072135Y0197500D03*
D68*
X0072135Y0197566D03*
X0071265Y0201766D03*
X0068265Y0206034D03*
X0062735Y0211434D03*
X0049735Y0199966D03*
X0042735Y0211166D03*
X0042865Y0211366D03*
X0038135Y0214034D03*
X0057265Y0233634D03*
X0049265Y0240566D03*
X0049265Y0240634D03*
X0049335Y0240766D03*
D69*
X0049535Y0241300D03*
X0050735Y0243100D03*
X0050935Y0243300D03*
X0051465Y0243700D03*
X0057065Y0233500D03*
X0071265Y0201900D03*
X0072135Y0197700D03*
D70*
X0072100Y0197766D03*
X0066100Y0204634D03*
X0065970Y0204566D03*
X0059370Y0198634D03*
X0046970Y0201366D03*
X0043570Y0212034D03*
X0043770Y0215834D03*
X0049630Y0241566D03*
X0049700Y0241634D03*
X0050630Y0243034D03*
X0051570Y0243766D03*
X0051700Y0243834D03*
X0061830Y0242766D03*
X0062100Y0242634D03*
X0062230Y0242566D03*
D71*
X0054900Y0238566D03*
X0050300Y0242634D03*
X0050100Y0242434D03*
X0043700Y0212166D03*
X0037300Y0209566D03*
X0072100Y0197834D03*
D72*
X0072100Y0197900D03*
X0065100Y0204100D03*
X0057900Y0201300D03*
X0043900Y0212300D03*
D73*
X0044030Y0212366D03*
X0061030Y0237566D03*
X0059500Y0243834D03*
X0072100Y0197966D03*
D74*
X0059100Y0197966D03*
X0049770Y0202166D03*
X0049770Y0202234D03*
X0050030Y0203166D03*
X0048700Y0210766D03*
X0049430Y0214834D03*
X0056100Y0224566D03*
X0058300Y0225434D03*
X0063170Y0212834D03*
X0063770Y0212166D03*
X0038700Y0209966D03*
D75*
X0049900Y0202634D03*
X0059100Y0198034D03*
X0057900Y0211366D03*
X0057700Y0211766D03*
X0057700Y0211834D03*
X0057700Y0211966D03*
X0057700Y0212034D03*
X0057900Y0212566D03*
X0059900Y0212234D03*
X0059100Y0214234D03*
X0060100Y0218366D03*
X0060100Y0218434D03*
X0063700Y0211966D03*
X0074300Y0200034D03*
X0074300Y0199966D03*
X0074100Y0199566D03*
X0073700Y0198766D03*
X0073500Y0198434D03*
X0074500Y0200566D03*
X0074500Y0200634D03*
X0074700Y0201166D03*
X0074700Y0201234D03*
X0074900Y0201966D03*
X0051300Y0234166D03*
X0051300Y0234234D03*
D76*
X0052170Y0233100D03*
X0061630Y0238900D03*
X0061630Y0239100D03*
X0061770Y0239700D03*
X0061830Y0239900D03*
X0061900Y0240100D03*
X0062100Y0240500D03*
X0059570Y0220500D03*
X0059630Y0220300D03*
X0059700Y0220100D03*
X0059700Y0219900D03*
X0059770Y0219700D03*
X0059830Y0219500D03*
X0059100Y0215100D03*
X0058900Y0213900D03*
X0058770Y0213700D03*
X0058430Y0213300D03*
X0061570Y0214100D03*
X0062430Y0213300D03*
X0063630Y0211900D03*
X0062030Y0210900D03*
X0061900Y0210700D03*
X0054030Y0201700D03*
X0051500Y0206700D03*
X0048770Y0209500D03*
X0048770Y0210500D03*
X0037500Y0208900D03*
X0037300Y0208700D03*
X0036430Y0207300D03*
X0036370Y0206900D03*
X0036430Y0206700D03*
X0036430Y0206500D03*
X0035430Y0223700D03*
X0071230Y0201100D03*
X0073170Y0198100D03*
D77*
X0070535Y0202100D03*
X0069265Y0203700D03*
X0069135Y0203900D03*
X0072135Y0211700D03*
X0072265Y0212300D03*
X0072335Y0212500D03*
X0072535Y0213300D03*
X0072665Y0213900D03*
X0072935Y0223300D03*
X0072935Y0223500D03*
X0072935Y0223700D03*
X0072865Y0223900D03*
X0072865Y0224100D03*
X0072865Y0224300D03*
X0068665Y0234500D03*
X0056065Y0223700D03*
X0056065Y0223500D03*
X0056135Y0223300D03*
X0056865Y0221100D03*
X0056935Y0220900D03*
X0053935Y0216300D03*
X0051335Y0207300D03*
X0061735Y0198300D03*
X0061665Y0198100D03*
X0036935Y0222700D03*
X0051135Y0235700D03*
X0052065Y0237500D03*
D78*
X0049200Y0234034D03*
X0049200Y0233966D03*
X0049200Y0233834D03*
X0052000Y0224434D03*
X0053600Y0219634D03*
X0053800Y0218834D03*
X0053800Y0218766D03*
X0053800Y0218634D03*
X0053800Y0218566D03*
X0053800Y0216434D03*
X0042800Y0204434D03*
X0043000Y0204234D03*
X0041600Y0206234D03*
X0041600Y0217434D03*
X0057600Y0200834D03*
X0058000Y0200234D03*
X0058200Y0199966D03*
X0071200Y0198234D03*
X0071600Y0210166D03*
X0072200Y0227034D03*
X0071800Y0227966D03*
X0071600Y0228366D03*
X0071600Y0228434D03*
X0071400Y0228834D03*
X0071200Y0229234D03*
X0071000Y0229766D03*
X0070800Y0230166D03*
X0070600Y0230634D03*
D79*
X0070300Y0231300D03*
X0070100Y0231700D03*
X0069900Y0232100D03*
X0053500Y0220100D03*
X0052300Y0223700D03*
X0049100Y0234500D03*
X0071700Y0210500D03*
X0071100Y0198300D03*
X0042500Y0204700D03*
X0041500Y0207300D03*
X0041500Y0207500D03*
D80*
X0036600Y0215900D03*
X0037600Y0221900D03*
X0049200Y0233900D03*
X0052000Y0224500D03*
X0053600Y0219700D03*
X0053800Y0218900D03*
X0053800Y0218700D03*
X0062400Y0211100D03*
X0071600Y0210100D03*
X0057800Y0200500D03*
X0059200Y0198300D03*
X0072000Y0227500D03*
X0071400Y0228900D03*
X0071200Y0229300D03*
X0071000Y0229700D03*
D81*
X0059965Y0218966D03*
X0060035Y0218766D03*
X0060035Y0218634D03*
X0060165Y0218234D03*
X0060165Y0218166D03*
X0060235Y0217966D03*
X0059165Y0214766D03*
X0059165Y0214634D03*
X0059165Y0214566D03*
X0059035Y0214166D03*
X0058165Y0212966D03*
X0058035Y0212766D03*
X0057835Y0212434D03*
X0057765Y0212234D03*
X0057765Y0211634D03*
X0058035Y0211234D03*
X0061365Y0214366D03*
X0061365Y0214434D03*
X0062635Y0213166D03*
X0051035Y0204566D03*
X0050035Y0202966D03*
X0049965Y0202834D03*
X0048765Y0210566D03*
X0048765Y0210634D03*
X0050035Y0216234D03*
X0071235Y0201034D03*
X0074035Y0199434D03*
X0074035Y0199366D03*
X0073965Y0199234D03*
X0073835Y0199034D03*
X0073835Y0198966D03*
X0073635Y0198634D03*
X0073565Y0198566D03*
X0073435Y0198366D03*
X0074165Y0199634D03*
X0074235Y0199766D03*
X0074235Y0199834D03*
X0074365Y0200166D03*
X0074435Y0200366D03*
X0074565Y0200766D03*
X0074565Y0200834D03*
X0074635Y0200966D03*
X0074635Y0201034D03*
X0074765Y0201434D03*
D82*
X0074730Y0201300D03*
X0074670Y0201100D03*
X0074870Y0201900D03*
X0074930Y0202100D03*
X0075000Y0202300D03*
X0075000Y0202500D03*
X0075070Y0202700D03*
X0074000Y0199300D03*
X0073670Y0198700D03*
X0073530Y0198500D03*
X0061330Y0214500D03*
X0059130Y0214300D03*
X0060530Y0216900D03*
X0060470Y0217100D03*
X0060400Y0217300D03*
X0060330Y0217500D03*
X0060330Y0217700D03*
X0060270Y0217900D03*
X0060200Y0218100D03*
X0056070Y0224500D03*
X0051870Y0233300D03*
X0051330Y0234100D03*
X0048730Y0210700D03*
X0051130Y0207900D03*
X0049870Y0202500D03*
X0038530Y0209900D03*
D83*
X0035800Y0216900D03*
X0033600Y0222300D03*
X0048800Y0237100D03*
X0048800Y0237300D03*
X0048800Y0237500D03*
X0051200Y0235900D03*
X0056800Y0221300D03*
X0057000Y0220700D03*
X0049600Y0215700D03*
X0059800Y0211700D03*
X0069400Y0203500D03*
X0070200Y0199100D03*
X0070400Y0198900D03*
X0074600Y0204300D03*
X0072200Y0212100D03*
X0072400Y0212700D03*
X0061800Y0198700D03*
X0061800Y0198500D03*
X0068600Y0234700D03*
D84*
X0068665Y0233900D03*
X0057335Y0233700D03*
X0049335Y0240700D03*
X0043735Y0215700D03*
X0042665Y0211100D03*
X0038065Y0214100D03*
X0036865Y0211900D03*
X0046335Y0201700D03*
X0059335Y0198500D03*
X0068065Y0205900D03*
D85*
X0061035Y0199900D03*
X0059435Y0198700D03*
X0043635Y0212100D03*
X0043765Y0215900D03*
X0050035Y0242300D03*
X0050165Y0242500D03*
D86*
X0059665Y0243766D03*
X0037265Y0209634D03*
X0059465Y0198766D03*
X0064935Y0204034D03*
D87*
X0061130Y0209566D03*
X0057870Y0211434D03*
X0057800Y0211566D03*
X0059130Y0214366D03*
X0059130Y0214434D03*
X0061200Y0214766D03*
X0061270Y0214634D03*
X0061270Y0214566D03*
X0060470Y0217166D03*
X0060400Y0217366D03*
X0060400Y0217434D03*
X0060330Y0217566D03*
X0060330Y0217634D03*
X0060270Y0217766D03*
X0060270Y0217834D03*
X0060200Y0218034D03*
X0051330Y0205434D03*
X0050000Y0203034D03*
X0049870Y0202566D03*
X0073730Y0198834D03*
X0073930Y0199166D03*
X0074730Y0201366D03*
X0074800Y0201566D03*
X0074800Y0201634D03*
X0074870Y0201766D03*
X0074870Y0201834D03*
X0074930Y0202034D03*
X0074930Y0202166D03*
X0074930Y0202234D03*
X0075000Y0202366D03*
X0075000Y0202434D03*
X0075000Y0202566D03*
X0075070Y0202766D03*
X0075070Y0202834D03*
X0051930Y0233234D03*
X0061000Y0235366D03*
X0061070Y0235434D03*
D88*
X0062500Y0234366D03*
X0066500Y0238234D03*
X0064370Y0241966D03*
X0064230Y0242034D03*
X0055370Y0245366D03*
X0055500Y0237234D03*
X0055500Y0237166D03*
X0060230Y0198834D03*
D89*
X0060230Y0198900D03*
X0058700Y0201700D03*
X0067770Y0233500D03*
D90*
X0056400Y0234234D03*
X0060200Y0198966D03*
D91*
X0060235Y0199034D03*
D92*
X0058500Y0210500D03*
X0057700Y0211700D03*
X0057700Y0211900D03*
X0057700Y0212100D03*
X0060100Y0218500D03*
X0049900Y0202700D03*
X0073900Y0199100D03*
X0074100Y0199500D03*
X0074500Y0200500D03*
D93*
X0060200Y0199100D03*
X0054670Y0238100D03*
D94*
X0055565Y0236834D03*
X0058035Y0231034D03*
X0066365Y0238434D03*
X0058835Y0201766D03*
X0060165Y0199234D03*
X0060165Y0199166D03*
D95*
X0069170Y0200100D03*
X0069370Y0199900D03*
X0069570Y0199700D03*
X0069770Y0199500D03*
X0069970Y0199300D03*
X0071230Y0201300D03*
X0070370Y0202300D03*
X0070170Y0202500D03*
X0070030Y0202700D03*
X0069830Y0202900D03*
X0069700Y0203100D03*
X0069570Y0203300D03*
X0072170Y0211900D03*
X0072430Y0212900D03*
X0072500Y0213100D03*
X0072570Y0213500D03*
X0072630Y0213700D03*
X0072700Y0214100D03*
X0072770Y0214300D03*
X0072770Y0214500D03*
X0072830Y0214900D03*
X0072970Y0222700D03*
X0072970Y0222900D03*
X0072970Y0223100D03*
X0068500Y0234900D03*
X0056030Y0223900D03*
X0057030Y0220500D03*
X0058030Y0218100D03*
X0058300Y0217500D03*
X0058370Y0217300D03*
X0049430Y0215300D03*
X0048970Y0209900D03*
X0048970Y0209700D03*
X0051370Y0207100D03*
X0051030Y0204900D03*
X0043770Y0215300D03*
X0037500Y0209100D03*
X0035500Y0211100D03*
X0035630Y0211300D03*
X0035830Y0211500D03*
X0035630Y0217100D03*
X0033430Y0221900D03*
X0033500Y0222100D03*
X0052300Y0237700D03*
D96*
X0062535Y0234500D03*
X0066335Y0238500D03*
X0060135Y0199300D03*
D97*
X0054500Y0200566D03*
X0051370Y0207166D03*
X0051300Y0207366D03*
X0051300Y0207434D03*
X0048970Y0209766D03*
X0048970Y0209834D03*
X0048970Y0209966D03*
X0048970Y0210034D03*
X0049430Y0215234D03*
X0049700Y0215834D03*
X0053970Y0216166D03*
X0058170Y0217766D03*
X0058230Y0217634D03*
X0057170Y0220166D03*
X0057170Y0220234D03*
X0057100Y0220366D03*
X0057100Y0220434D03*
X0057030Y0220566D03*
X0057030Y0220634D03*
X0056970Y0220766D03*
X0056900Y0220966D03*
X0056030Y0223766D03*
X0056030Y0223834D03*
X0061970Y0213566D03*
X0072230Y0212166D03*
X0072300Y0212366D03*
X0072370Y0212566D03*
X0072370Y0212634D03*
X0072430Y0212834D03*
X0072500Y0213166D03*
X0072570Y0213366D03*
X0072570Y0213434D03*
X0072630Y0213634D03*
X0072630Y0213766D03*
X0072630Y0213834D03*
X0072700Y0213966D03*
X0072700Y0214034D03*
X0072700Y0214166D03*
X0072700Y0214234D03*
X0072770Y0214366D03*
X0072770Y0214434D03*
X0072770Y0214566D03*
X0072770Y0214634D03*
X0072830Y0214834D03*
X0072830Y0214966D03*
X0072830Y0215034D03*
X0072970Y0222634D03*
X0072970Y0222766D03*
X0072970Y0222834D03*
X0072970Y0222966D03*
X0072970Y0223034D03*
X0072970Y0223166D03*
X0072970Y0223234D03*
X0068430Y0234966D03*
X0068430Y0235034D03*
X0068370Y0235166D03*
X0043830Y0215234D03*
X0035700Y0217034D03*
X0033430Y0221966D03*
X0035770Y0211434D03*
X0035700Y0211366D03*
X0035570Y0211234D03*
X0036770Y0205966D03*
X0069370Y0203566D03*
X0069500Y0203366D03*
X0069630Y0203166D03*
X0069770Y0203034D03*
X0069830Y0202966D03*
X0069900Y0202834D03*
X0069970Y0202766D03*
X0070230Y0202434D03*
X0070300Y0202366D03*
X0070430Y0202234D03*
X0069030Y0200234D03*
X0069100Y0200166D03*
X0069230Y0200034D03*
X0069300Y0199966D03*
X0069430Y0199834D03*
X0069500Y0199766D03*
X0069630Y0199634D03*
X0069700Y0199566D03*
X0069830Y0199434D03*
X0069900Y0199366D03*
D98*
X0060135Y0199366D03*
X0062535Y0234566D03*
X0064335Y0236166D03*
X0064665Y0241766D03*
D99*
X0065570Y0240966D03*
X0066300Y0238566D03*
X0062630Y0234834D03*
X0062570Y0234634D03*
X0056230Y0234434D03*
X0055570Y0236766D03*
X0054630Y0238034D03*
X0064100Y0203434D03*
X0060100Y0199434D03*
X0058970Y0201834D03*
D100*
X0060100Y0199500D03*
X0061900Y0202900D03*
X0058300Y0231100D03*
X0055570Y0236700D03*
X0055370Y0245300D03*
D101*
X0065665Y0240766D03*
X0066265Y0238634D03*
X0045735Y0212966D03*
X0059935Y0199834D03*
X0060065Y0199566D03*
D102*
X0060000Y0199634D03*
X0050200Y0200366D03*
X0054600Y0232634D03*
X0055600Y0236566D03*
X0055600Y0236634D03*
X0062600Y0234766D03*
X0065600Y0240834D03*
D103*
X0065600Y0240900D03*
X0062600Y0234700D03*
X0056200Y0234500D03*
X0055600Y0236500D03*
X0060000Y0199700D03*
D104*
X0059965Y0199766D03*
X0058635Y0231166D03*
X0056165Y0234566D03*
D105*
X0061165Y0235634D03*
X0060035Y0238234D03*
X0059965Y0212434D03*
X0063565Y0212566D03*
X0051635Y0206434D03*
X0050035Y0203234D03*
X0049565Y0199834D03*
X0071235Y0200834D03*
D106*
X0074265Y0199900D03*
X0059865Y0212100D03*
X0058265Y0213100D03*
X0058135Y0212900D03*
X0057865Y0212500D03*
X0059135Y0214900D03*
X0059935Y0219100D03*
X0059865Y0219300D03*
X0051265Y0234300D03*
X0060135Y0238100D03*
D107*
X0061030Y0234900D03*
X0055030Y0238700D03*
X0048970Y0239500D03*
X0049300Y0233500D03*
X0049300Y0233300D03*
X0049370Y0233100D03*
X0051830Y0224900D03*
X0051900Y0224700D03*
X0041370Y0217700D03*
X0041170Y0217900D03*
X0040970Y0218100D03*
X0037770Y0221700D03*
X0036770Y0215700D03*
X0041570Y0208500D03*
X0041570Y0208300D03*
X0043170Y0204100D03*
X0043630Y0203700D03*
X0058230Y0199900D03*
X0059700Y0211300D03*
X0071430Y0209700D03*
X0071500Y0209900D03*
X0074500Y0204100D03*
X0071230Y0201500D03*
X0072700Y0225900D03*
X0072630Y0226100D03*
X0072570Y0226300D03*
X0072430Y0226500D03*
X0072370Y0226700D03*
X0072170Y0227100D03*
X0072100Y0227300D03*
X0071900Y0227700D03*
X0071830Y0227900D03*
D108*
X0069200Y0206766D03*
X0068800Y0206434D03*
X0061200Y0200034D03*
X0057600Y0201166D03*
X0045800Y0202034D03*
X0045600Y0202166D03*
X0037800Y0214434D03*
X0050800Y0227634D03*
X0050600Y0228234D03*
X0053600Y0216566D03*
X0049200Y0240366D03*
D109*
X0048935Y0239234D03*
X0048935Y0239166D03*
X0048865Y0238966D03*
X0048865Y0238834D03*
X0049135Y0234366D03*
X0049265Y0233634D03*
X0049265Y0233566D03*
X0051865Y0224766D03*
X0051935Y0224634D03*
X0051935Y0224566D03*
X0053535Y0219966D03*
X0053665Y0219434D03*
X0053665Y0219366D03*
X0053735Y0219234D03*
X0053735Y0219166D03*
X0053735Y0219034D03*
X0053735Y0218966D03*
X0059735Y0211434D03*
X0061135Y0209966D03*
X0057535Y0200966D03*
X0057735Y0200634D03*
X0057865Y0200434D03*
X0058135Y0200034D03*
X0071535Y0209966D03*
X0074535Y0204166D03*
X0072735Y0225766D03*
X0072735Y0225834D03*
X0072335Y0226766D03*
X0072065Y0227366D03*
X0071935Y0227634D03*
X0071865Y0227766D03*
X0071865Y0227834D03*
X0071665Y0228234D03*
X0071535Y0228566D03*
X0071465Y0228634D03*
X0071335Y0228966D03*
X0071335Y0229034D03*
X0071265Y0229166D03*
X0071135Y0229434D03*
X0071065Y0229566D03*
X0071065Y0229634D03*
X0070935Y0229834D03*
X0070865Y0230034D03*
X0070535Y0230766D03*
X0070335Y0231234D03*
X0070265Y0231366D03*
X0042865Y0204366D03*
X0041535Y0207766D03*
X0041535Y0207834D03*
X0041535Y0207966D03*
X0041535Y0208034D03*
X0041535Y0208166D03*
X0036735Y0215766D03*
X0036665Y0215834D03*
X0036535Y0215966D03*
X0041465Y0217566D03*
X0037535Y0221966D03*
X0037465Y0222034D03*
D110*
X0051100Y0235100D03*
X0058700Y0224100D03*
X0058900Y0223300D03*
X0057500Y0219300D03*
X0058900Y0215900D03*
X0053900Y0215500D03*
X0051100Y0205100D03*
X0054700Y0200100D03*
X0066100Y0203300D03*
X0066300Y0203100D03*
X0068100Y0235900D03*
D111*
X0066830Y0237434D03*
X0066830Y0237766D03*
X0068030Y0233634D03*
X0054770Y0238366D03*
X0035370Y0223034D03*
X0049970Y0200166D03*
X0067300Y0204966D03*
D112*
X0074800Y0204566D03*
X0074400Y0200234D03*
X0057800Y0212366D03*
X0058200Y0213034D03*
X0058400Y0213234D03*
X0058800Y0213766D03*
X0059000Y0214034D03*
X0060000Y0218834D03*
X0059800Y0219566D03*
X0059800Y0219634D03*
X0058400Y0225234D03*
X0051200Y0234434D03*
X0036400Y0206834D03*
X0036400Y0206766D03*
D113*
X0050030Y0200234D03*
X0062970Y0203234D03*
X0052570Y0217034D03*
X0054430Y0232434D03*
X0062500Y0234234D03*
X0067900Y0233566D03*
X0066630Y0237966D03*
X0055370Y0245434D03*
D114*
X0064535Y0241900D03*
X0048065Y0214300D03*
X0050135Y0200300D03*
D115*
X0054600Y0200366D03*
X0051000Y0204834D03*
X0051400Y0206966D03*
X0051400Y0207034D03*
X0048000Y0214566D03*
X0049400Y0215166D03*
X0049800Y0215966D03*
X0044000Y0215034D03*
X0036200Y0209834D03*
X0035600Y0217166D03*
X0033400Y0221634D03*
X0033400Y0221766D03*
X0033400Y0221834D03*
X0056000Y0223966D03*
X0056000Y0224034D03*
X0057200Y0220034D03*
X0057400Y0219566D03*
X0057800Y0218634D03*
X0057800Y0218566D03*
X0058000Y0218234D03*
X0058000Y0218166D03*
X0058400Y0217234D03*
X0058400Y0217166D03*
X0058600Y0216766D03*
X0059800Y0211834D03*
X0059800Y0211766D03*
X0072800Y0214766D03*
X0073000Y0221766D03*
X0073000Y0221834D03*
X0073000Y0221966D03*
X0073000Y0222034D03*
X0073000Y0222166D03*
X0073000Y0222234D03*
X0073000Y0222366D03*
X0073000Y0222434D03*
X0073000Y0222566D03*
X0068200Y0235566D03*
D116*
X0066000Y0239366D03*
X0066000Y0239434D03*
X0055800Y0235434D03*
X0055800Y0235366D03*
X0059400Y0202034D03*
X0050200Y0200434D03*
D117*
X0054535Y0200500D03*
X0051265Y0207500D03*
X0048935Y0210100D03*
X0049735Y0215900D03*
X0053935Y0215900D03*
X0053935Y0216100D03*
X0053935Y0215700D03*
X0058135Y0217900D03*
X0057935Y0218300D03*
X0057865Y0218500D03*
X0057665Y0218900D03*
X0057335Y0219700D03*
X0057265Y0219900D03*
X0057135Y0220300D03*
X0058465Y0217100D03*
X0058535Y0216900D03*
X0058665Y0216500D03*
X0062065Y0213500D03*
X0072865Y0215100D03*
X0072865Y0215300D03*
X0072865Y0215500D03*
X0072935Y0215700D03*
X0072935Y0215900D03*
X0072935Y0216100D03*
X0058665Y0224300D03*
X0051135Y0235300D03*
X0051135Y0235500D03*
X0068335Y0235300D03*
X0043935Y0215100D03*
X0035465Y0217300D03*
X0035335Y0217500D03*
D118*
X0050265Y0200500D03*
D119*
X0050300Y0200566D03*
X0039500Y0205566D03*
X0067100Y0233166D03*
D120*
X0048230Y0213634D03*
X0051030Y0200634D03*
D121*
X0071230Y0200700D03*
X0059970Y0238300D03*
D122*
X0050965Y0200700D03*
D123*
X0049435Y0214766D03*
X0071235Y0200766D03*
D124*
X0050900Y0200766D03*
X0047700Y0213166D03*
D125*
X0050800Y0200834D03*
X0064400Y0237034D03*
D126*
X0063100Y0212900D03*
X0063770Y0212100D03*
X0074900Y0204700D03*
X0071230Y0200900D03*
X0051370Y0205500D03*
X0051030Y0204500D03*
D127*
X0050735Y0200900D03*
X0064335Y0237100D03*
D128*
X0051635Y0233566D03*
X0051365Y0233966D03*
X0051365Y0234034D03*
X0060435Y0217234D03*
X0060565Y0216834D03*
X0060565Y0216766D03*
X0060635Y0216634D03*
X0060635Y0216566D03*
X0060635Y0216434D03*
X0060765Y0216034D03*
X0060835Y0215834D03*
X0060965Y0215434D03*
X0061035Y0215234D03*
X0061035Y0215166D03*
X0061165Y0214834D03*
X0063765Y0212034D03*
X0074835Y0204634D03*
X0075035Y0202634D03*
X0071235Y0200966D03*
X0051565Y0206566D03*
X0048635Y0209434D03*
X0051035Y0212966D03*
X0049835Y0202434D03*
X0049835Y0202366D03*
D129*
X0050670Y0200966D03*
X0064270Y0237166D03*
D130*
X0050565Y0201034D03*
D131*
X0044135Y0203300D03*
X0043865Y0203500D03*
X0041665Y0208900D03*
X0036935Y0215500D03*
X0039865Y0219300D03*
X0038265Y0221100D03*
X0037935Y0221500D03*
X0049535Y0232300D03*
X0049465Y0232500D03*
X0049465Y0232700D03*
X0051665Y0225300D03*
X0051735Y0225100D03*
X0055335Y0245700D03*
X0071335Y0209500D03*
X0057465Y0201100D03*
D132*
X0050535Y0201100D03*
D133*
X0050465Y0201166D03*
D134*
X0052400Y0201234D03*
X0056130Y0234634D03*
X0055600Y0236366D03*
X0055600Y0236434D03*
X0054600Y0237966D03*
X0064730Y0241634D03*
X0065730Y0240566D03*
X0066200Y0238834D03*
X0066200Y0238766D03*
D135*
X0061235Y0237366D03*
X0056965Y0233834D03*
X0054235Y0232234D03*
X0058765Y0244166D03*
X0045435Y0216766D03*
X0047435Y0201234D03*
X0067435Y0205234D03*
D136*
X0052700Y0201300D03*
X0062500Y0234300D03*
D137*
X0060670Y0243300D03*
X0052130Y0244100D03*
X0048000Y0214500D03*
X0041130Y0205900D03*
X0047130Y0201300D03*
D138*
X0052930Y0201366D03*
X0046200Y0217034D03*
X0048600Y0218234D03*
X0064130Y0236034D03*
D139*
X0066965Y0237566D03*
X0066965Y0237634D03*
X0056365Y0233166D03*
X0054835Y0238434D03*
X0048035Y0214434D03*
X0053165Y0201434D03*
X0058165Y0201434D03*
D140*
X0053600Y0201566D03*
X0046800Y0201434D03*
X0035400Y0223434D03*
X0049600Y0241434D03*
X0050800Y0243166D03*
X0051400Y0243634D03*
D141*
X0055370Y0245500D03*
X0064430Y0203700D03*
X0058300Y0201500D03*
D142*
X0053400Y0201500D03*
X0059200Y0211100D03*
D143*
X0062870Y0211700D03*
X0046670Y0201500D03*
X0043000Y0211500D03*
X0038730Y0212900D03*
X0038470Y0212700D03*
X0038730Y0213300D03*
X0038400Y0213700D03*
X0037730Y0212300D03*
X0037330Y0212100D03*
X0049470Y0241100D03*
X0063930Y0234900D03*
D144*
X0064035Y0235366D03*
X0051365Y0226034D03*
X0051435Y0225834D03*
X0051565Y0225566D03*
X0049835Y0231034D03*
X0049765Y0231366D03*
X0049635Y0231766D03*
X0049635Y0231834D03*
X0049635Y0231966D03*
X0049565Y0232166D03*
X0049565Y0232234D03*
X0049035Y0239766D03*
X0049035Y0239834D03*
X0035435Y0223566D03*
X0038365Y0220966D03*
X0038565Y0220766D03*
X0038835Y0220434D03*
X0039035Y0220234D03*
X0039365Y0219834D03*
X0039435Y0219766D03*
X0039565Y0219634D03*
X0039635Y0219566D03*
X0039765Y0219434D03*
X0039835Y0219366D03*
X0039965Y0219166D03*
X0040165Y0218966D03*
X0040365Y0218766D03*
X0037165Y0215234D03*
X0037235Y0215166D03*
X0041835Y0209566D03*
X0041765Y0209434D03*
X0041765Y0209366D03*
X0041635Y0208834D03*
X0043965Y0203434D03*
X0044035Y0203366D03*
X0044435Y0203034D03*
X0044565Y0202966D03*
X0044965Y0202634D03*
X0053835Y0201634D03*
X0071235Y0201566D03*
X0070565Y0208234D03*
X0070765Y0208566D03*
X0070835Y0208634D03*
X0070965Y0208834D03*
X0071035Y0208966D03*
D145*
X0067235Y0204834D03*
X0064365Y0203634D03*
X0058435Y0201566D03*
D146*
X0069035Y0206634D03*
X0069435Y0206966D03*
X0069635Y0207166D03*
X0069835Y0207366D03*
X0071235Y0201634D03*
X0074435Y0203966D03*
X0051165Y0226566D03*
X0051035Y0226966D03*
X0050965Y0227166D03*
X0050835Y0227566D03*
X0050765Y0227766D03*
X0050635Y0228166D03*
X0050565Y0228366D03*
X0050435Y0228766D03*
X0050435Y0228834D03*
X0050365Y0228966D03*
X0050365Y0229034D03*
X0050235Y0229434D03*
X0050235Y0229566D03*
X0050165Y0229634D03*
X0050165Y0229766D03*
X0050165Y0229834D03*
X0050035Y0230166D03*
X0050035Y0230234D03*
X0049165Y0240166D03*
X0049165Y0240234D03*
X0063835Y0235634D03*
X0042235Y0210434D03*
X0042165Y0210366D03*
X0042035Y0210034D03*
X0037635Y0214634D03*
X0045235Y0202434D03*
D147*
X0058565Y0201634D03*
X0057165Y0230834D03*
X0055365Y0237566D03*
D148*
X0054965Y0238634D03*
X0057165Y0233566D03*
X0063635Y0235834D03*
X0049365Y0240834D03*
X0038365Y0213766D03*
X0037165Y0212034D03*
X0037035Y0211966D03*
X0042765Y0211234D03*
X0042965Y0211434D03*
X0046435Y0201634D03*
D149*
X0042500Y0210900D03*
X0037900Y0214300D03*
X0035430Y0223500D03*
X0049230Y0240500D03*
X0054100Y0232100D03*
X0063770Y0235700D03*
X0061100Y0210300D03*
X0068370Y0206100D03*
X0068630Y0206300D03*
X0071230Y0201700D03*
D150*
X0068000Y0205834D03*
X0046200Y0201766D03*
X0038200Y0213966D03*
D151*
X0059130Y0201900D03*
X0065730Y0240500D03*
D152*
X0049200Y0240300D03*
X0050400Y0228900D03*
X0042400Y0210700D03*
X0046000Y0201900D03*
X0074400Y0203900D03*
D153*
X0071265Y0201966D03*
X0065735Y0204434D03*
X0068465Y0233834D03*
X0062865Y0242234D03*
X0062465Y0242434D03*
X0061665Y0242834D03*
X0061265Y0243034D03*
X0055335Y0245634D03*
X0051865Y0243966D03*
X0050465Y0242834D03*
X0049865Y0242034D03*
X0049735Y0241766D03*
X0056935Y0233434D03*
D154*
X0055665Y0236034D03*
X0055665Y0236166D03*
X0066135Y0238966D03*
X0061465Y0202766D03*
X0059265Y0201966D03*
D155*
X0049700Y0201966D03*
X0056100Y0224634D03*
D156*
X0050865Y0227434D03*
X0050735Y0227834D03*
X0050665Y0228034D03*
X0050535Y0228434D03*
X0050335Y0229166D03*
X0037865Y0214366D03*
X0036665Y0211834D03*
X0042335Y0210634D03*
X0042465Y0210834D03*
X0045865Y0201966D03*
X0068935Y0206566D03*
X0069265Y0206834D03*
X0064065Y0234966D03*
D157*
X0065065Y0242234D03*
X0074935Y0204766D03*
X0049735Y0202034D03*
D158*
X0059600Y0202100D03*
D159*
X0061165Y0209500D03*
X0063635Y0212500D03*
X0063765Y0212300D03*
X0058235Y0225500D03*
X0049765Y0202100D03*
D160*
X0045700Y0202100D03*
X0051100Y0226700D03*
X0050900Y0227300D03*
X0050700Y0227900D03*
X0050300Y0229300D03*
X0050100Y0229900D03*
X0049100Y0240100D03*
D161*
X0054535Y0237766D03*
X0064865Y0241366D03*
X0059735Y0202166D03*
D162*
X0059900Y0202234D03*
X0060230Y0202366D03*
X0060430Y0202434D03*
X0054770Y0232834D03*
D163*
X0064900Y0241300D03*
X0060100Y0202300D03*
D164*
X0051600Y0206500D03*
X0049800Y0202300D03*
X0061000Y0215300D03*
D165*
X0069565Y0207100D03*
X0069765Y0207300D03*
X0051035Y0226900D03*
X0050965Y0227100D03*
X0050835Y0227500D03*
X0050765Y0227700D03*
X0050635Y0228100D03*
X0050565Y0228300D03*
X0050365Y0229100D03*
X0050235Y0229500D03*
X0050165Y0229700D03*
X0050035Y0230300D03*
X0049965Y0230500D03*
X0037565Y0214700D03*
X0042165Y0210300D03*
X0041435Y0206100D03*
X0045435Y0202300D03*
D166*
X0060635Y0202500D03*
X0067365Y0233300D03*
D167*
X0064070Y0235300D03*
X0063930Y0235500D03*
X0051200Y0226500D03*
X0051270Y0226300D03*
X0051330Y0226100D03*
X0050070Y0230100D03*
X0049930Y0230700D03*
X0049870Y0230900D03*
X0049800Y0231100D03*
X0049730Y0231500D03*
X0049070Y0239900D03*
X0034270Y0222900D03*
X0039130Y0220100D03*
X0037270Y0215100D03*
X0037400Y0214900D03*
X0037400Y0209300D03*
X0041800Y0209500D03*
X0041870Y0209700D03*
X0041930Y0209900D03*
X0042070Y0210100D03*
X0044870Y0202700D03*
X0045130Y0202500D03*
X0069930Y0207500D03*
X0070130Y0207700D03*
X0070270Y0207900D03*
X0070470Y0208100D03*
X0070600Y0208300D03*
X0070730Y0208500D03*
D168*
X0060835Y0202566D03*
X0059765Y0231434D03*
D169*
X0055765Y0235566D03*
X0054565Y0237834D03*
X0064835Y0241434D03*
X0061035Y0202634D03*
D170*
X0061265Y0202700D03*
X0055735Y0235700D03*
X0065865Y0239900D03*
X0065935Y0239500D03*
D171*
X0065700Y0240634D03*
X0061700Y0202834D03*
D172*
X0059700Y0211234D03*
X0070500Y0208166D03*
X0070700Y0208434D03*
X0070900Y0208766D03*
X0051500Y0225766D03*
X0049700Y0231566D03*
X0049700Y0231634D03*
X0038500Y0220834D03*
X0038300Y0221034D03*
X0038900Y0220366D03*
X0039100Y0220166D03*
X0040100Y0219034D03*
X0040300Y0218834D03*
X0043700Y0215566D03*
X0041700Y0209234D03*
X0041700Y0209166D03*
X0036500Y0211766D03*
X0044300Y0203166D03*
X0044700Y0202834D03*
X0064100Y0235166D03*
X0064100Y0235234D03*
D173*
X0061100Y0235500D03*
X0060700Y0216300D03*
X0061100Y0215100D03*
X0075100Y0203100D03*
X0075100Y0202900D03*
D174*
X0060000Y0218900D03*
X0058600Y0213500D03*
X0050000Y0202900D03*
X0051200Y0234500D03*
D175*
X0051500Y0233766D03*
X0058300Y0225366D03*
X0060500Y0217034D03*
X0060500Y0216966D03*
X0060700Y0216366D03*
X0060700Y0216234D03*
X0060900Y0215634D03*
X0061100Y0215034D03*
X0061100Y0214966D03*
X0062900Y0213034D03*
X0058500Y0210434D03*
X0075100Y0203834D03*
X0075100Y0203234D03*
X0075100Y0203166D03*
X0075100Y0203034D03*
X0075100Y0202966D03*
D176*
X0062100Y0202966D03*
X0056300Y0234366D03*
D177*
X0057735Y0230966D03*
X0062335Y0203034D03*
D178*
X0062535Y0203100D03*
X0057465Y0230900D03*
X0054465Y0232500D03*
X0055465Y0237300D03*
D179*
X0051435Y0233900D03*
X0060565Y0216700D03*
X0060635Y0216500D03*
X0060765Y0216100D03*
X0060835Y0215900D03*
X0061165Y0214900D03*
X0061235Y0214700D03*
X0062765Y0213100D03*
X0053635Y0215300D03*
X0050035Y0203100D03*
D180*
X0062730Y0203166D03*
X0064270Y0203566D03*
D181*
X0071200Y0209234D03*
X0071400Y0209634D03*
X0051600Y0225434D03*
X0049600Y0232034D03*
X0049400Y0232966D03*
X0049000Y0239566D03*
X0049000Y0239634D03*
X0038000Y0221434D03*
X0038200Y0221166D03*
X0037000Y0215434D03*
X0041600Y0208766D03*
X0041600Y0208634D03*
X0041600Y0208566D03*
X0043800Y0203566D03*
X0044200Y0203234D03*
D182*
X0059935Y0212300D03*
X0060935Y0215500D03*
X0060865Y0215700D03*
X0075135Y0203700D03*
X0075135Y0203500D03*
X0075135Y0203300D03*
X0051665Y0233500D03*
X0051535Y0233700D03*
D183*
X0054765Y0238300D03*
X0063165Y0203300D03*
D184*
X0059965Y0212500D03*
X0050035Y0203300D03*
D185*
X0064000Y0203366D03*
X0056000Y0234834D03*
X0064400Y0236234D03*
X0065800Y0240234D03*
X0064800Y0241566D03*
X0055400Y0245234D03*
D186*
X0064200Y0203500D03*
D187*
X0064530Y0203766D03*
X0067330Y0205034D03*
X0058130Y0244366D03*
D188*
X0045600Y0216834D03*
X0064600Y0203834D03*
D189*
X0064700Y0203900D03*
X0054900Y0238500D03*
X0058900Y0244100D03*
D190*
X0049400Y0232900D03*
X0051600Y0225500D03*
X0040800Y0218300D03*
X0040600Y0218500D03*
X0040400Y0218700D03*
X0041600Y0208700D03*
X0043400Y0203900D03*
X0071000Y0208900D03*
X0071200Y0209300D03*
D191*
X0064800Y0203966D03*
X0043800Y0215966D03*
X0061000Y0237634D03*
X0052400Y0244234D03*
D192*
X0052000Y0244034D03*
X0050600Y0242966D03*
X0050400Y0242766D03*
X0049800Y0241834D03*
X0061400Y0242966D03*
X0062600Y0242366D03*
X0065600Y0204366D03*
X0038800Y0204834D03*
D193*
X0037300Y0209500D03*
X0044970Y0216500D03*
X0065830Y0204500D03*
X0062370Y0242500D03*
X0061970Y0242700D03*
X0051770Y0243900D03*
X0049700Y0241700D03*
X0049630Y0241500D03*
D194*
X0051200Y0243500D03*
X0053400Y0216700D03*
X0043400Y0211900D03*
X0066200Y0204700D03*
X0067600Y0205500D03*
D195*
X0067200Y0204766D03*
X0066600Y0238034D03*
X0063800Y0242166D03*
D196*
X0067265Y0204900D03*
D197*
X0038900Y0204900D03*
D198*
X0038935Y0204966D03*
X0043865Y0216234D03*
X0045935Y0216966D03*
D199*
X0039065Y0205034D03*
X0055335Y0237634D03*
D200*
X0058370Y0244300D03*
X0052970Y0216900D03*
X0067370Y0205100D03*
D201*
X0039865Y0205100D03*
D202*
X0037235Y0209766D03*
X0044365Y0212566D03*
X0035365Y0223234D03*
X0052765Y0244366D03*
X0055365Y0245566D03*
X0058565Y0244234D03*
X0067435Y0205166D03*
D203*
X0054800Y0232966D03*
X0039800Y0205166D03*
D204*
X0039735Y0205234D03*
D205*
X0039665Y0205300D03*
D206*
X0039635Y0205366D03*
X0039565Y0205434D03*
D207*
X0054165Y0232166D03*
X0062365Y0234034D03*
X0060965Y0243166D03*
X0060835Y0243234D03*
X0050235Y0242566D03*
X0049965Y0242234D03*
X0049965Y0242166D03*
X0049835Y0241966D03*
X0067565Y0205434D03*
D208*
X0061930Y0231900D03*
X0039400Y0205700D03*
X0039530Y0205500D03*
D209*
X0038870Y0210034D03*
X0051400Y0205566D03*
X0051670Y0206366D03*
X0054070Y0231966D03*
D210*
X0047470Y0214234D03*
X0039400Y0205766D03*
X0039470Y0205634D03*
D211*
X0042835Y0211300D03*
X0038565Y0213500D03*
X0038235Y0213900D03*
X0049365Y0240900D03*
X0062765Y0211500D03*
X0067835Y0205700D03*
D212*
X0067900Y0205766D03*
X0061100Y0210366D03*
X0053500Y0216634D03*
X0038300Y0213834D03*
D213*
X0037430Y0208834D03*
X0037370Y0208766D03*
X0036430Y0207234D03*
X0036430Y0207166D03*
X0036370Y0207034D03*
X0036370Y0206966D03*
X0036430Y0206634D03*
X0036430Y0206566D03*
X0036500Y0206366D03*
X0049430Y0214966D03*
X0051170Y0207834D03*
X0058500Y0210566D03*
X0058500Y0213366D03*
X0058570Y0213434D03*
X0058630Y0213566D03*
X0058700Y0213634D03*
X0059100Y0215034D03*
X0059100Y0215166D03*
X0061500Y0214166D03*
X0061970Y0210834D03*
X0061970Y0210766D03*
X0061900Y0210634D03*
X0061170Y0209634D03*
X0059770Y0219766D03*
X0059700Y0219966D03*
X0059700Y0220034D03*
X0059630Y0220166D03*
X0059630Y0220234D03*
X0058430Y0225166D03*
X0056030Y0224366D03*
X0051170Y0234566D03*
X0051170Y0234634D03*
X0060900Y0235166D03*
X0062230Y0233966D03*
X0061630Y0238966D03*
X0061630Y0239034D03*
X0061700Y0239366D03*
X0061700Y0239434D03*
X0061770Y0239634D03*
X0061830Y0239834D03*
X0061900Y0240034D03*
X0061970Y0240166D03*
X0061970Y0240234D03*
X0062030Y0240366D03*
X0062030Y0240434D03*
X0062100Y0240566D03*
X0062170Y0240634D03*
X0062230Y0240766D03*
D214*
X0063700Y0212434D03*
X0063700Y0212366D03*
X0051100Y0208034D03*
D215*
X0051065Y0208100D03*
D216*
X0037265Y0209700D03*
X0056665Y0233300D03*
D217*
X0039000Y0210100D03*
D218*
X0039135Y0210166D03*
D219*
X0058500Y0210300D03*
D220*
X0058465Y0210366D03*
X0059935Y0212366D03*
X0063265Y0212766D03*
X0063465Y0212634D03*
X0048665Y0210834D03*
D221*
X0038900Y0213100D03*
X0038100Y0212500D03*
X0061100Y0210500D03*
D222*
X0048630Y0210966D03*
X0055300Y0245766D03*
D223*
X0059200Y0243966D03*
X0043800Y0216034D03*
X0059200Y0211034D03*
D224*
X0043165Y0211700D03*
X0063565Y0235900D03*
D225*
X0055565Y0230434D03*
X0043235Y0211766D03*
X0038835Y0213166D03*
X0038765Y0213234D03*
D226*
X0062100Y0211900D03*
D227*
X0044270Y0212500D03*
X0061330Y0237300D03*
D228*
X0063400Y0212700D03*
D229*
X0044670Y0212700D03*
X0066930Y0237500D03*
D230*
X0056665Y0233966D03*
X0054335Y0232366D03*
X0044865Y0212766D03*
D231*
X0045100Y0212834D03*
D232*
X0045365Y0212900D03*
X0064235Y0236100D03*
X0064035Y0242100D03*
D233*
X0064470Y0236966D03*
X0048000Y0213434D03*
X0047470Y0213034D03*
D234*
X0038900Y0213034D03*
X0049500Y0241166D03*
X0049500Y0241234D03*
D235*
X0047835Y0213300D03*
X0047565Y0213100D03*
D236*
X0047765Y0213234D03*
X0047965Y0213366D03*
D237*
X0048100Y0213500D03*
X0055500Y0244500D03*
D238*
X0048200Y0213566D03*
D239*
X0048270Y0213700D03*
D240*
X0048265Y0213766D03*
D241*
X0048200Y0213834D03*
D242*
X0048130Y0213900D03*
X0064670Y0232500D03*
D243*
X0066830Y0233034D03*
X0048030Y0213966D03*
D244*
X0047900Y0214034D03*
X0048900Y0217834D03*
D245*
X0047765Y0214100D03*
X0062835Y0232100D03*
D246*
X0062500Y0232034D03*
X0055430Y0244966D03*
X0047630Y0214166D03*
D247*
X0048065Y0214366D03*
X0043935Y0216366D03*
X0056865Y0230766D03*
X0055935Y0233034D03*
D248*
X0048565Y0218300D03*
X0043835Y0216100D03*
D249*
X0043900Y0216300D03*
D250*
X0045165Y0216634D03*
X0056835Y0233366D03*
X0059965Y0243634D03*
X0052235Y0244166D03*
D251*
X0062465Y0234100D03*
X0045735Y0216900D03*
D252*
X0052800Y0216966D03*
D253*
X0049470Y0217100D03*
D254*
X0049500Y0217166D03*
D255*
X0049535Y0217234D03*
D256*
X0049600Y0217300D03*
D257*
X0049635Y0217366D03*
D258*
X0049700Y0217434D03*
D259*
X0049735Y0217500D03*
D260*
X0049800Y0217566D03*
D261*
X0049870Y0217634D03*
D262*
X0048965Y0217700D03*
D263*
X0048930Y0217766D03*
X0065000Y0236434D03*
D264*
X0048835Y0217900D03*
D265*
X0048765Y0217966D03*
D266*
X0048730Y0218034D03*
X0054730Y0232766D03*
D267*
X0065700Y0240700D03*
X0048700Y0218100D03*
D268*
X0048665Y0218166D03*
X0056465Y0234166D03*
X0054665Y0238166D03*
X0066535Y0238166D03*
D269*
X0066765Y0237834D03*
X0035365Y0222966D03*
D270*
X0035365Y0223100D03*
D271*
X0058200Y0225566D03*
D272*
X0056065Y0230566D03*
D273*
X0056365Y0230634D03*
D274*
X0056600Y0230700D03*
D275*
X0058900Y0231234D03*
X0067500Y0233366D03*
X0066100Y0239034D03*
D276*
X0066000Y0239300D03*
X0064800Y0241500D03*
X0055800Y0235500D03*
X0059200Y0231300D03*
D277*
X0059500Y0231366D03*
X0065900Y0239766D03*
D278*
X0060065Y0231500D03*
D279*
X0060400Y0231566D03*
D280*
X0060670Y0231634D03*
X0067200Y0233234D03*
X0064930Y0241166D03*
D281*
X0061000Y0231700D03*
D282*
X0061300Y0231766D03*
D283*
X0061600Y0231834D03*
X0055400Y0245034D03*
D284*
X0062200Y0231966D03*
D285*
X0063130Y0232166D03*
D286*
X0063435Y0232234D03*
D287*
X0063770Y0232300D03*
X0065100Y0236300D03*
D288*
X0054300Y0232300D03*
D289*
X0064065Y0232366D03*
X0065065Y0236366D03*
D290*
X0064365Y0232434D03*
X0055435Y0244834D03*
D291*
X0065000Y0232566D03*
D292*
X0062530Y0234434D03*
X0066400Y0238366D03*
X0064600Y0241834D03*
X0055530Y0236966D03*
X0054530Y0232566D03*
D293*
X0066065Y0232634D03*
D294*
X0066200Y0232700D03*
D295*
X0066065Y0239100D03*
X0055665Y0236100D03*
X0054665Y0232700D03*
D296*
X0066335Y0232766D03*
D297*
X0066435Y0232834D03*
X0064635Y0236766D03*
D298*
X0066600Y0232900D03*
X0055470Y0244700D03*
D299*
X0055400Y0245100D03*
X0054800Y0232900D03*
D300*
X0066700Y0232966D03*
D301*
X0066970Y0233100D03*
D302*
X0056200Y0233100D03*
D303*
X0056500Y0233234D03*
D304*
X0067600Y0233434D03*
D305*
X0068200Y0233700D03*
D306*
X0056765Y0233900D03*
D307*
X0056600Y0234034D03*
D308*
X0056500Y0234100D03*
D309*
X0062500Y0234166D03*
X0066700Y0237366D03*
D310*
X0056365Y0234300D03*
X0055565Y0236900D03*
D311*
X0056100Y0234700D03*
D312*
X0056035Y0234766D03*
X0055635Y0236234D03*
X0065765Y0240366D03*
X0065765Y0240434D03*
D313*
X0065800Y0240300D03*
X0056000Y0234900D03*
D314*
X0055970Y0234966D03*
X0055700Y0235834D03*
X0055700Y0235966D03*
X0065830Y0240034D03*
X0065830Y0240166D03*
X0066030Y0239234D03*
X0066030Y0239166D03*
D315*
X0065935Y0239566D03*
X0065935Y0239634D03*
X0065865Y0239834D03*
X0065865Y0239966D03*
X0055735Y0235766D03*
X0055735Y0235634D03*
X0055865Y0235234D03*
X0055865Y0235166D03*
X0055935Y0235034D03*
D316*
X0055900Y0235100D03*
X0055700Y0235900D03*
X0054570Y0237900D03*
X0065830Y0240100D03*
D317*
X0055835Y0235300D03*
D318*
X0064000Y0235966D03*
D319*
X0066165Y0238900D03*
X0055635Y0236300D03*
D320*
X0064935Y0236500D03*
D321*
X0064865Y0236566D03*
D322*
X0064800Y0236634D03*
D323*
X0064700Y0236700D03*
D324*
X0064565Y0236834D03*
D325*
X0064500Y0236900D03*
D326*
X0055500Y0237034D03*
D327*
X0055500Y0237100D03*
D328*
X0066400Y0237234D03*
D329*
X0066570Y0237300D03*
D330*
X0055435Y0237366D03*
X0055435Y0237434D03*
D331*
X0055400Y0237500D03*
X0066530Y0238100D03*
D332*
X0066900Y0237700D03*
D333*
X0060965Y0237700D03*
X0060235Y0243500D03*
D334*
X0055335Y0237700D03*
D335*
X0066700Y0237900D03*
D336*
X0060900Y0237900D03*
X0061100Y0243100D03*
X0049900Y0242100D03*
D337*
X0054700Y0238234D03*
D338*
X0066435Y0238300D03*
D339*
X0066235Y0238700D03*
D340*
X0065900Y0239700D03*
D341*
X0064935Y0241034D03*
D342*
X0064900Y0241100D03*
D343*
X0064900Y0241234D03*
D344*
X0064735Y0241700D03*
D345*
X0049800Y0241900D03*
D346*
X0059800Y0243700D03*
D347*
X0052565Y0244300D03*
D348*
X0055500Y0244434D03*
D349*
X0055465Y0244566D03*
D350*
X0055465Y0244634D03*
D351*
X0055430Y0244766D03*
D352*
X0055435Y0244900D03*
D353*
X0055400Y0245166D03*
M02*
