G75*
%MOIN*%
%OFA0B0*%
%FSLAX25Y25*%
%IPPOS*%
%LPD*%
%AMOC8*
5,1,8,0,0,1.08239X$1,22.5*
%
%ADD10C,0.01000*%
%ADD11C,0.04724*%
%ADD12C,0.00000*%
%ADD13C,0.05906*%
%ADD14C,0.02400*%
D10*
X0001500Y0038000D02*
X0042500Y0038000D01*
X0042500Y0001500D01*
X0201000Y0001500D01*
X0201000Y0003500D02*
X0044500Y0003500D01*
X0044500Y0038828D01*
X0043328Y0040000D01*
X0041672Y0040000D01*
X0003500Y0040000D01*
X0003500Y0240000D01*
X0003598Y0241251D01*
X0004372Y0243632D01*
X0005843Y0245657D01*
X0007868Y0247128D01*
X0010249Y0247902D01*
X0011500Y0248000D01*
X0201000Y0248000D01*
X0202251Y0247902D01*
X0204632Y0247128D01*
X0206657Y0245657D01*
X0208128Y0243632D01*
X0208902Y0241251D01*
X0209000Y0240000D01*
X0209000Y0011500D01*
X0208902Y0010249D01*
X0208128Y0007868D01*
X0206657Y0005843D01*
X0204632Y0004372D01*
X0202251Y0003598D01*
X0201000Y0003500D01*
X0204802Y0004496D02*
X0044500Y0004496D01*
X0044500Y0005494D02*
X0206176Y0005494D01*
X0207129Y0006493D02*
X0044500Y0006493D01*
X0044500Y0007491D02*
X0207854Y0007491D01*
X0208330Y0008490D02*
X0044500Y0008490D01*
X0044500Y0009488D02*
X0208654Y0009488D01*
X0208920Y0010487D02*
X0044500Y0010487D01*
X0044500Y0011485D02*
X0208999Y0011485D01*
X0209000Y0012484D02*
X0044500Y0012484D01*
X0044500Y0013482D02*
X0209000Y0013482D01*
X0209000Y0014481D02*
X0044500Y0014481D01*
X0044500Y0015479D02*
X0209000Y0015479D01*
X0209000Y0016478D02*
X0044500Y0016478D01*
X0044500Y0017476D02*
X0209000Y0017476D01*
X0209000Y0018475D02*
X0044500Y0018475D01*
X0044500Y0019473D02*
X0209000Y0019473D01*
X0209000Y0020472D02*
X0044500Y0020472D01*
X0044500Y0021470D02*
X0209000Y0021470D01*
X0209000Y0022469D02*
X0044500Y0022469D01*
X0044500Y0023467D02*
X0209000Y0023467D01*
X0209000Y0024466D02*
X0044500Y0024466D01*
X0044500Y0025464D02*
X0209000Y0025464D01*
X0209000Y0026463D02*
X0044500Y0026463D01*
X0044500Y0027461D02*
X0209000Y0027461D01*
X0209000Y0028460D02*
X0044500Y0028460D01*
X0044500Y0029458D02*
X0209000Y0029458D01*
X0209000Y0030457D02*
X0044500Y0030457D01*
X0044500Y0031455D02*
X0209000Y0031455D01*
X0209000Y0032454D02*
X0044500Y0032454D01*
X0044500Y0033452D02*
X0209000Y0033452D01*
X0209000Y0034451D02*
X0044500Y0034451D01*
X0044500Y0035449D02*
X0209000Y0035449D01*
X0209000Y0036448D02*
X0044500Y0036448D01*
X0044500Y0037446D02*
X0209000Y0037446D01*
X0209000Y0038445D02*
X0044500Y0038445D01*
X0043885Y0039443D02*
X0209000Y0039443D01*
X0209000Y0040442D02*
X0003500Y0040442D01*
X0003500Y0041440D02*
X0209000Y0041440D01*
X0209000Y0042439D02*
X0003500Y0042439D01*
X0003500Y0043437D02*
X0209000Y0043437D01*
X0209000Y0044436D02*
X0003500Y0044436D01*
X0003500Y0045434D02*
X0209000Y0045434D01*
X0209000Y0046433D02*
X0166944Y0046433D01*
X0167400Y0046889D02*
X0167400Y0048711D01*
X0166111Y0050000D01*
X0164289Y0050000D01*
X0163450Y0049161D01*
X0162611Y0050000D01*
X0160789Y0050000D01*
X0159950Y0049161D01*
X0159111Y0050000D01*
X0157289Y0050000D01*
X0156000Y0048711D01*
X0156000Y0046889D01*
X0157289Y0045600D01*
X0159111Y0045600D01*
X0159950Y0046439D01*
X0160789Y0045600D01*
X0162611Y0045600D01*
X0163450Y0046439D01*
X0164289Y0045600D01*
X0166111Y0045600D01*
X0167400Y0046889D01*
X0167400Y0047432D02*
X0209000Y0047432D01*
X0209000Y0048430D02*
X0167400Y0048430D01*
X0166683Y0049429D02*
X0209000Y0049429D01*
X0209000Y0050427D02*
X0029362Y0050427D01*
X0029362Y0050669D02*
X0028850Y0051905D01*
X0027905Y0052850D01*
X0026669Y0053362D01*
X0025331Y0053362D01*
X0024095Y0052850D01*
X0023150Y0051905D01*
X0022638Y0050669D01*
X0022638Y0049331D01*
X0023150Y0048095D01*
X0024095Y0047150D01*
X0025331Y0046638D01*
X0026669Y0046638D01*
X0027905Y0047150D01*
X0028850Y0048095D01*
X0029362Y0049331D01*
X0029362Y0050669D01*
X0029049Y0051426D02*
X0209000Y0051426D01*
X0209000Y0052424D02*
X0028331Y0052424D01*
X0029362Y0049429D02*
X0156717Y0049429D01*
X0156000Y0048430D02*
X0028989Y0048430D01*
X0028186Y0047432D02*
X0156000Y0047432D01*
X0156456Y0046433D02*
X0003500Y0046433D01*
X0003500Y0047432D02*
X0013814Y0047432D01*
X0014095Y0047150D02*
X0015331Y0046638D01*
X0016669Y0046638D01*
X0017905Y0047150D01*
X0018850Y0048095D01*
X0019362Y0049331D01*
X0019362Y0050669D01*
X0018850Y0051905D01*
X0017905Y0052850D01*
X0016669Y0053362D01*
X0015331Y0053362D01*
X0014095Y0052850D01*
X0013150Y0051905D01*
X0012638Y0050669D01*
X0012638Y0049331D01*
X0013150Y0048095D01*
X0014095Y0047150D01*
X0013011Y0048430D02*
X0003500Y0048430D01*
X0003500Y0049429D02*
X0012638Y0049429D01*
X0012638Y0050427D02*
X0003500Y0050427D01*
X0003500Y0051426D02*
X0012951Y0051426D01*
X0013669Y0052424D02*
X0003500Y0052424D01*
X0003500Y0053423D02*
X0157366Y0053423D01*
X0157389Y0053400D02*
X0159211Y0053400D01*
X0160050Y0054239D01*
X0160889Y0053400D01*
X0162711Y0053400D01*
X0163550Y0054239D01*
X0164389Y0053400D01*
X0166211Y0053400D01*
X0167500Y0054689D01*
X0167500Y0056511D01*
X0166211Y0057800D01*
X0164389Y0057800D01*
X0163550Y0056961D01*
X0162711Y0057800D01*
X0160889Y0057800D01*
X0160050Y0056961D01*
X0159211Y0057800D01*
X0157389Y0057800D01*
X0156100Y0056511D01*
X0156100Y0054689D01*
X0157389Y0053400D01*
X0156368Y0054421D02*
X0003500Y0054421D01*
X0003500Y0055420D02*
X0156100Y0055420D01*
X0156100Y0056418D02*
X0003500Y0056418D01*
X0003500Y0057417D02*
X0013828Y0057417D01*
X0014095Y0057150D02*
X0015331Y0056638D01*
X0016669Y0056638D01*
X0017905Y0057150D01*
X0018850Y0058095D01*
X0019362Y0059331D01*
X0019362Y0060669D01*
X0018850Y0061905D01*
X0017905Y0062850D01*
X0016669Y0063362D01*
X0015331Y0063362D01*
X0014095Y0062850D01*
X0013150Y0061905D01*
X0012638Y0060669D01*
X0012638Y0059331D01*
X0013150Y0058095D01*
X0014095Y0057150D01*
X0013017Y0058415D02*
X0003500Y0058415D01*
X0003500Y0059414D02*
X0012638Y0059414D01*
X0012638Y0060412D02*
X0003500Y0060412D01*
X0003500Y0061411D02*
X0012945Y0061411D01*
X0013654Y0062409D02*
X0003500Y0062409D01*
X0003500Y0063408D02*
X0209000Y0063408D01*
X0209000Y0064406D02*
X0003500Y0064406D01*
X0003500Y0065405D02*
X0209000Y0065405D01*
X0209000Y0066403D02*
X0003500Y0066403D01*
X0003500Y0067402D02*
X0013843Y0067402D01*
X0014095Y0067150D02*
X0015331Y0066638D01*
X0016669Y0066638D01*
X0017905Y0067150D01*
X0018850Y0068095D01*
X0019362Y0069331D01*
X0019362Y0070669D01*
X0018850Y0071905D01*
X0017905Y0072850D01*
X0016669Y0073362D01*
X0015331Y0073362D01*
X0014095Y0072850D01*
X0013150Y0071905D01*
X0012638Y0070669D01*
X0012638Y0069331D01*
X0013150Y0068095D01*
X0014095Y0067150D01*
X0013023Y0068400D02*
X0003500Y0068400D01*
X0003500Y0069399D02*
X0012638Y0069399D01*
X0012638Y0070397D02*
X0003500Y0070397D01*
X0003500Y0071396D02*
X0012939Y0071396D01*
X0013639Y0072394D02*
X0003500Y0072394D01*
X0003500Y0073393D02*
X0209000Y0073393D01*
X0209000Y0074391D02*
X0003500Y0074391D01*
X0003500Y0075390D02*
X0209000Y0075390D01*
X0209000Y0076388D02*
X0003500Y0076388D01*
X0003500Y0077387D02*
X0013858Y0077387D01*
X0014095Y0077150D02*
X0015331Y0076638D01*
X0016669Y0076638D01*
X0017905Y0077150D01*
X0018850Y0078095D01*
X0019362Y0079331D01*
X0019362Y0080669D01*
X0018850Y0081905D01*
X0017905Y0082850D01*
X0016669Y0083362D01*
X0015331Y0083362D01*
X0014095Y0082850D01*
X0013150Y0081905D01*
X0012638Y0080669D01*
X0012638Y0079331D01*
X0013150Y0078095D01*
X0014095Y0077150D01*
X0013030Y0078385D02*
X0003500Y0078385D01*
X0003500Y0079384D02*
X0012638Y0079384D01*
X0012638Y0080382D02*
X0003500Y0080382D01*
X0003500Y0081381D02*
X0012933Y0081381D01*
X0013625Y0082379D02*
X0003500Y0082379D01*
X0003500Y0083378D02*
X0186031Y0083378D01*
X0186031Y0084009D02*
X0186031Y0082629D01*
X0186560Y0081354D01*
X0187535Y0080378D01*
X0188810Y0079850D01*
X0190190Y0079850D01*
X0191465Y0080378D01*
X0192440Y0081354D01*
X0192968Y0082629D01*
X0192968Y0084009D01*
X0192440Y0085284D01*
X0191465Y0086259D01*
X0190190Y0086787D01*
X0188810Y0086787D01*
X0187535Y0086259D01*
X0186560Y0085284D01*
X0186031Y0084009D01*
X0186184Y0084376D02*
X0003500Y0084376D01*
X0003500Y0085375D02*
X0186651Y0085375D01*
X0187811Y0086373D02*
X0003500Y0086373D01*
X0003500Y0087372D02*
X0013873Y0087372D01*
X0014095Y0087150D02*
X0015331Y0086638D01*
X0016669Y0086638D01*
X0017905Y0087150D01*
X0018850Y0088095D01*
X0019362Y0089331D01*
X0019362Y0090669D01*
X0018850Y0091905D01*
X0017905Y0092850D01*
X0016669Y0093362D01*
X0015331Y0093362D01*
X0014095Y0092850D01*
X0013150Y0091905D01*
X0012638Y0090669D01*
X0012638Y0089331D01*
X0013150Y0088095D01*
X0014095Y0087150D01*
X0013036Y0088370D02*
X0003500Y0088370D01*
X0003500Y0089369D02*
X0012638Y0089369D01*
X0012638Y0090368D02*
X0003500Y0090368D01*
X0003500Y0091366D02*
X0012927Y0091366D01*
X0013610Y0092365D02*
X0003500Y0092365D01*
X0003500Y0093363D02*
X0188226Y0093363D01*
X0188589Y0093000D02*
X0187300Y0094289D01*
X0187300Y0096111D01*
X0188589Y0097400D01*
X0190411Y0097400D01*
X0191700Y0096111D01*
X0191700Y0094289D01*
X0190411Y0093000D01*
X0188589Y0093000D01*
X0187300Y0094362D02*
X0003500Y0094362D01*
X0003500Y0095360D02*
X0187300Y0095360D01*
X0187547Y0096359D02*
X0003500Y0096359D01*
X0003500Y0097357D02*
X0013888Y0097357D01*
X0014095Y0097150D02*
X0015331Y0096638D01*
X0016669Y0096638D01*
X0017905Y0097150D01*
X0018850Y0098095D01*
X0019362Y0099331D01*
X0019362Y0100669D01*
X0018850Y0101905D01*
X0017905Y0102850D01*
X0016669Y0103362D01*
X0015331Y0103362D01*
X0014095Y0102850D01*
X0013150Y0101905D01*
X0012638Y0100669D01*
X0012638Y0099331D01*
X0013150Y0098095D01*
X0014095Y0097150D01*
X0013042Y0098356D02*
X0003500Y0098356D01*
X0003500Y0099354D02*
X0012638Y0099354D01*
X0012638Y0100353D02*
X0003500Y0100353D01*
X0003500Y0101351D02*
X0012920Y0101351D01*
X0013595Y0102350D02*
X0003500Y0102350D01*
X0003500Y0103348D02*
X0015297Y0103348D01*
X0016703Y0103348D02*
X0025297Y0103348D01*
X0025331Y0103362D02*
X0024095Y0102850D01*
X0023150Y0101905D01*
X0022638Y0100669D01*
X0022638Y0099331D01*
X0023150Y0098095D01*
X0024095Y0097150D01*
X0025331Y0096638D01*
X0026669Y0096638D01*
X0027905Y0097150D01*
X0028850Y0098095D01*
X0029362Y0099331D01*
X0029362Y0100669D01*
X0028850Y0101905D01*
X0027905Y0102850D01*
X0026669Y0103362D01*
X0025331Y0103362D01*
X0026703Y0103348D02*
X0209000Y0103348D01*
X0209000Y0102350D02*
X0028405Y0102350D01*
X0029080Y0101351D02*
X0209000Y0101351D01*
X0209000Y0100353D02*
X0029362Y0100353D01*
X0029362Y0099354D02*
X0209000Y0099354D01*
X0209000Y0098356D02*
X0028958Y0098356D01*
X0028112Y0097357D02*
X0188546Y0097357D01*
X0190454Y0097357D02*
X0209000Y0097357D01*
X0209000Y0096359D02*
X0191453Y0096359D01*
X0191700Y0095360D02*
X0209000Y0095360D01*
X0209000Y0094362D02*
X0191700Y0094362D01*
X0190774Y0093363D02*
X0209000Y0093363D01*
X0209000Y0092365D02*
X0028390Y0092365D01*
X0028850Y0091905D02*
X0027905Y0092850D01*
X0026669Y0093362D01*
X0025331Y0093362D01*
X0024095Y0092850D01*
X0023150Y0091905D01*
X0022638Y0090669D01*
X0022638Y0089331D01*
X0023150Y0088095D01*
X0024095Y0087150D01*
X0025331Y0086638D01*
X0026669Y0086638D01*
X0027905Y0087150D01*
X0028850Y0088095D01*
X0029362Y0089331D01*
X0029362Y0090669D01*
X0028850Y0091905D01*
X0029073Y0091366D02*
X0209000Y0091366D01*
X0209000Y0090368D02*
X0029362Y0090368D01*
X0029362Y0089369D02*
X0209000Y0089369D01*
X0209000Y0088370D02*
X0028964Y0088370D01*
X0028127Y0087372D02*
X0209000Y0087372D01*
X0209000Y0086373D02*
X0191189Y0086373D01*
X0192349Y0085375D02*
X0209000Y0085375D01*
X0209000Y0084376D02*
X0192816Y0084376D01*
X0192968Y0083378D02*
X0209000Y0083378D01*
X0209000Y0082379D02*
X0192865Y0082379D01*
X0192452Y0081381D02*
X0209000Y0081381D01*
X0209000Y0080382D02*
X0191469Y0080382D01*
X0187531Y0080382D02*
X0029362Y0080382D01*
X0029362Y0080669D02*
X0029362Y0079331D01*
X0028850Y0078095D01*
X0027905Y0077150D01*
X0026669Y0076638D01*
X0025331Y0076638D01*
X0024095Y0077150D01*
X0023150Y0078095D01*
X0022638Y0079331D01*
X0022638Y0080669D01*
X0023150Y0081905D01*
X0024095Y0082850D01*
X0025331Y0083362D01*
X0026669Y0083362D01*
X0027905Y0082850D01*
X0028850Y0081905D01*
X0029362Y0080669D01*
X0029067Y0081381D02*
X0186548Y0081381D01*
X0186135Y0082379D02*
X0028375Y0082379D01*
X0029362Y0079384D02*
X0209000Y0079384D01*
X0209000Y0078385D02*
X0028970Y0078385D01*
X0028142Y0077387D02*
X0209000Y0077387D01*
X0209000Y0072394D02*
X0028361Y0072394D01*
X0027905Y0072850D02*
X0026669Y0073362D01*
X0025331Y0073362D01*
X0024095Y0072850D01*
X0023150Y0071905D01*
X0022638Y0070669D01*
X0022638Y0069331D01*
X0023150Y0068095D01*
X0024095Y0067150D01*
X0025331Y0066638D01*
X0026669Y0066638D01*
X0027905Y0067150D01*
X0028850Y0068095D01*
X0029362Y0069331D01*
X0029362Y0070669D01*
X0028850Y0071905D01*
X0027905Y0072850D01*
X0029061Y0071396D02*
X0209000Y0071396D01*
X0209000Y0070397D02*
X0029362Y0070397D01*
X0029362Y0069399D02*
X0209000Y0069399D01*
X0209000Y0068400D02*
X0028977Y0068400D01*
X0028157Y0067402D02*
X0209000Y0067402D01*
X0209000Y0062409D02*
X0028346Y0062409D01*
X0027905Y0062850D02*
X0026669Y0063362D01*
X0025331Y0063362D01*
X0024095Y0062850D01*
X0023150Y0061905D01*
X0022638Y0060669D01*
X0022638Y0059331D01*
X0023150Y0058095D01*
X0024095Y0057150D01*
X0025331Y0056638D01*
X0026669Y0056638D01*
X0027905Y0057150D01*
X0028850Y0058095D01*
X0029362Y0059331D01*
X0029362Y0060669D01*
X0028850Y0061905D01*
X0027905Y0062850D01*
X0029055Y0061411D02*
X0209000Y0061411D01*
X0209000Y0060412D02*
X0029362Y0060412D01*
X0029362Y0059414D02*
X0209000Y0059414D01*
X0209000Y0058415D02*
X0028983Y0058415D01*
X0028172Y0057417D02*
X0157005Y0057417D01*
X0159234Y0053423D02*
X0160866Y0053423D01*
X0162734Y0053423D02*
X0164366Y0053423D01*
X0166234Y0053423D02*
X0209000Y0053423D01*
X0209000Y0054421D02*
X0167232Y0054421D01*
X0167500Y0055420D02*
X0209000Y0055420D01*
X0209000Y0056418D02*
X0167500Y0056418D01*
X0166595Y0057417D02*
X0209000Y0057417D01*
X0211000Y0011500D02*
X0211000Y0240000D01*
X0208989Y0240144D02*
X0198510Y0240144D01*
X0198351Y0239761D02*
X0198953Y0241214D01*
X0198953Y0242786D01*
X0198351Y0244239D01*
X0197239Y0245351D01*
X0195786Y0245953D01*
X0194214Y0245953D01*
X0192761Y0245351D01*
X0191649Y0244239D01*
X0191047Y0242786D01*
X0191047Y0241214D01*
X0191649Y0239761D01*
X0192761Y0238649D01*
X0194214Y0238047D01*
X0195786Y0238047D01*
X0197239Y0238649D01*
X0198351Y0239761D01*
X0197736Y0239146D02*
X0209000Y0239146D01*
X0209000Y0238147D02*
X0196028Y0238147D01*
X0193972Y0238147D02*
X0134700Y0238147D01*
X0134700Y0238911D02*
X0133411Y0240200D01*
X0131589Y0240200D01*
X0130750Y0239361D01*
X0129911Y0240200D01*
X0128089Y0240200D01*
X0126800Y0238911D01*
X0126800Y0237089D01*
X0127889Y0236000D01*
X0126800Y0234911D01*
X0126800Y0233089D01*
X0127889Y0232000D01*
X0126800Y0230911D01*
X0126800Y0229089D01*
X0127889Y0228000D01*
X0126800Y0226911D01*
X0126800Y0225089D01*
X0127889Y0224000D01*
X0126800Y0222911D01*
X0126800Y0221089D01*
X0128089Y0219800D01*
X0129911Y0219800D01*
X0130750Y0220639D01*
X0131589Y0219800D01*
X0133411Y0219800D01*
X0134250Y0220639D01*
X0135089Y0219800D01*
X0136911Y0219800D01*
X0137750Y0220639D01*
X0138589Y0219800D01*
X0140411Y0219800D01*
X0141700Y0221089D01*
X0141700Y0222911D01*
X0140411Y0224200D01*
X0138589Y0224200D01*
X0137750Y0223361D01*
X0137111Y0224000D01*
X0138200Y0225089D01*
X0138200Y0226911D01*
X0137111Y0228000D01*
X0138200Y0229089D01*
X0138200Y0230911D01*
X0136911Y0232200D01*
X0135089Y0232200D01*
X0134250Y0231361D01*
X0133611Y0232000D01*
X0134700Y0233089D01*
X0134700Y0234911D01*
X0133611Y0236000D01*
X0134700Y0237089D01*
X0134700Y0238911D01*
X0134466Y0239146D02*
X0192264Y0239146D01*
X0191490Y0240144D02*
X0133467Y0240144D01*
X0131533Y0240144D02*
X0129967Y0240144D01*
X0128033Y0240144D02*
X0029362Y0240144D01*
X0029362Y0240669D02*
X0028850Y0241905D01*
X0027905Y0242850D01*
X0026669Y0243362D01*
X0025331Y0243362D01*
X0024095Y0242850D01*
X0023150Y0241905D01*
X0022638Y0240669D01*
X0022638Y0239331D01*
X0023150Y0238095D01*
X0024095Y0237150D01*
X0025331Y0236638D01*
X0026669Y0236638D01*
X0027905Y0237150D01*
X0028850Y0238095D01*
X0029362Y0239331D01*
X0029362Y0240669D01*
X0029166Y0241143D02*
X0191077Y0241143D01*
X0191047Y0242141D02*
X0028614Y0242141D01*
X0027206Y0243140D02*
X0191194Y0243140D01*
X0191607Y0244138D02*
X0004740Y0244138D01*
X0004212Y0243140D02*
X0014794Y0243140D01*
X0015331Y0243362D02*
X0014095Y0242850D01*
X0013150Y0241905D01*
X0012638Y0240669D01*
X0012638Y0239331D01*
X0013150Y0238095D01*
X0014095Y0237150D01*
X0015331Y0236638D01*
X0016669Y0236638D01*
X0017905Y0237150D01*
X0018850Y0238095D01*
X0019362Y0239331D01*
X0019362Y0240669D01*
X0018850Y0241905D01*
X0017905Y0242850D01*
X0016669Y0243362D01*
X0015331Y0243362D01*
X0017206Y0243140D02*
X0024794Y0243140D01*
X0023386Y0242141D02*
X0018614Y0242141D01*
X0019166Y0241143D02*
X0022834Y0241143D01*
X0022638Y0240144D02*
X0019362Y0240144D01*
X0019285Y0239146D02*
X0022715Y0239146D01*
X0023128Y0238147D02*
X0018872Y0238147D01*
X0017902Y0237149D02*
X0024098Y0237149D01*
X0027902Y0237149D02*
X0126800Y0237149D01*
X0126800Y0238147D02*
X0028872Y0238147D01*
X0029285Y0239146D02*
X0127034Y0239146D01*
X0127739Y0236150D02*
X0105961Y0236150D01*
X0105411Y0236700D02*
X0103589Y0236700D01*
X0103000Y0236111D01*
X0102411Y0236700D01*
X0100589Y0236700D01*
X0099300Y0235411D01*
X0099300Y0233589D01*
X0100589Y0232300D01*
X0102411Y0232300D01*
X0103000Y0232889D01*
X0103589Y0232300D01*
X0105411Y0232300D01*
X0106700Y0233589D01*
X0106700Y0235411D01*
X0105411Y0236700D01*
X0106700Y0235152D02*
X0127040Y0235152D01*
X0126800Y0234153D02*
X0106700Y0234153D01*
X0106266Y0233155D02*
X0126800Y0233155D01*
X0127733Y0232156D02*
X0028599Y0232156D01*
X0028850Y0231905D02*
X0027905Y0232850D01*
X0026669Y0233362D01*
X0025331Y0233362D01*
X0024095Y0232850D01*
X0023150Y0231905D01*
X0022638Y0230669D01*
X0022638Y0229331D01*
X0023150Y0228095D01*
X0024095Y0227150D01*
X0025331Y0226638D01*
X0026669Y0226638D01*
X0027905Y0227150D01*
X0028850Y0228095D01*
X0029362Y0229331D01*
X0029362Y0230669D01*
X0028850Y0231905D01*
X0029160Y0231158D02*
X0127046Y0231158D01*
X0126800Y0230159D02*
X0029362Y0230159D01*
X0029292Y0229161D02*
X0126800Y0229161D01*
X0127727Y0228162D02*
X0102949Y0228162D01*
X0102411Y0228700D02*
X0100589Y0228700D01*
X0100000Y0228111D01*
X0099411Y0228700D01*
X0097589Y0228700D01*
X0096300Y0227411D01*
X0096300Y0225589D01*
X0097589Y0224300D01*
X0099411Y0224300D01*
X0100000Y0224889D01*
X0100589Y0224300D01*
X0102411Y0224300D01*
X0103700Y0225589D01*
X0103700Y0227411D01*
X0102411Y0228700D01*
X0103700Y0227164D02*
X0127052Y0227164D01*
X0126800Y0226165D02*
X0103700Y0226165D01*
X0103278Y0225167D02*
X0126800Y0225167D01*
X0127721Y0224168D02*
X0115943Y0224168D01*
X0115911Y0224200D02*
X0114089Y0224200D01*
X0112800Y0222911D01*
X0112800Y0221089D01*
X0113389Y0220500D01*
X0112800Y0219911D01*
X0112800Y0218089D01*
X0114089Y0216800D01*
X0115911Y0216800D01*
X0117200Y0218089D01*
X0117200Y0219911D01*
X0116611Y0220500D01*
X0117200Y0221089D01*
X0117200Y0222911D01*
X0115911Y0224200D01*
X0116942Y0223170D02*
X0127058Y0223170D01*
X0126800Y0222171D02*
X0117200Y0222171D01*
X0117200Y0221172D02*
X0122061Y0221172D01*
X0122089Y0221200D02*
X0120800Y0219911D01*
X0120800Y0218089D01*
X0121389Y0217500D01*
X0120800Y0216911D01*
X0120800Y0215089D01*
X0122089Y0213800D01*
X0123911Y0213800D01*
X0125200Y0215089D01*
X0125200Y0216911D01*
X0124611Y0217500D01*
X0125200Y0218089D01*
X0125200Y0219911D01*
X0123911Y0221200D01*
X0122089Y0221200D01*
X0121063Y0220174D02*
X0116937Y0220174D01*
X0117200Y0219175D02*
X0120800Y0219175D01*
X0120800Y0218177D02*
X0117200Y0218177D01*
X0116290Y0217178D02*
X0121067Y0217178D01*
X0120800Y0216180D02*
X0003500Y0216180D01*
X0003500Y0217178D02*
X0014067Y0217178D01*
X0014095Y0217150D02*
X0015331Y0216638D01*
X0016669Y0216638D01*
X0017905Y0217150D01*
X0018850Y0218095D01*
X0019362Y0219331D01*
X0019362Y0220669D01*
X0018850Y0221905D01*
X0017905Y0222850D01*
X0016669Y0223362D01*
X0015331Y0223362D01*
X0014095Y0222850D01*
X0013150Y0221905D01*
X0012638Y0220669D01*
X0012638Y0219331D01*
X0013150Y0218095D01*
X0014095Y0217150D01*
X0013116Y0218177D02*
X0003500Y0218177D01*
X0003500Y0219175D02*
X0012702Y0219175D01*
X0012638Y0220174D02*
X0003500Y0220174D01*
X0003500Y0221172D02*
X0012846Y0221172D01*
X0013416Y0222171D02*
X0003500Y0222171D01*
X0003500Y0223170D02*
X0014866Y0223170D01*
X0017134Y0223170D02*
X0024866Y0223170D01*
X0025331Y0223362D02*
X0024095Y0222850D01*
X0023150Y0221905D01*
X0022638Y0220669D01*
X0022638Y0219331D01*
X0023150Y0218095D01*
X0024095Y0217150D01*
X0025331Y0216638D01*
X0026669Y0216638D01*
X0027905Y0217150D01*
X0028850Y0218095D01*
X0029362Y0219331D01*
X0029362Y0220669D01*
X0028850Y0221905D01*
X0027905Y0222850D01*
X0026669Y0223362D01*
X0025331Y0223362D01*
X0027134Y0223170D02*
X0052800Y0223170D01*
X0052800Y0223911D02*
X0052800Y0222089D01*
X0053639Y0221250D01*
X0052800Y0220411D01*
X0052800Y0218589D01*
X0054089Y0217300D01*
X0055911Y0217300D01*
X0057200Y0218589D01*
X0057200Y0220411D01*
X0056361Y0221250D01*
X0057200Y0222089D01*
X0057200Y0223911D01*
X0055911Y0225200D01*
X0054089Y0225200D01*
X0052800Y0223911D01*
X0053057Y0224168D02*
X0003500Y0224168D01*
X0003500Y0225167D02*
X0054055Y0225167D01*
X0055945Y0225167D02*
X0096722Y0225167D01*
X0096300Y0226165D02*
X0003500Y0226165D01*
X0003500Y0227164D02*
X0014082Y0227164D01*
X0014095Y0227150D02*
X0015331Y0226638D01*
X0016669Y0226638D01*
X0017905Y0227150D01*
X0018850Y0228095D01*
X0019362Y0229331D01*
X0019362Y0230669D01*
X0018850Y0231905D01*
X0017905Y0232850D01*
X0016669Y0233362D01*
X0015331Y0233362D01*
X0014095Y0232850D01*
X0013150Y0231905D01*
X0012638Y0230669D01*
X0012638Y0229331D01*
X0013150Y0228095D01*
X0014095Y0227150D01*
X0013122Y0228162D02*
X0003500Y0228162D01*
X0003500Y0229161D02*
X0012708Y0229161D01*
X0012638Y0230159D02*
X0003500Y0230159D01*
X0003500Y0231158D02*
X0012840Y0231158D01*
X0013401Y0232156D02*
X0003500Y0232156D01*
X0003500Y0233155D02*
X0014830Y0233155D01*
X0017170Y0233155D02*
X0024830Y0233155D01*
X0023401Y0232156D02*
X0018599Y0232156D01*
X0019160Y0231158D02*
X0022840Y0231158D01*
X0022638Y0230159D02*
X0019362Y0230159D01*
X0019292Y0229161D02*
X0022708Y0229161D01*
X0023122Y0228162D02*
X0018878Y0228162D01*
X0017918Y0227164D02*
X0024082Y0227164D01*
X0027918Y0227164D02*
X0096300Y0227164D01*
X0097051Y0228162D02*
X0028878Y0228162D01*
X0027170Y0233155D02*
X0099734Y0233155D01*
X0099300Y0234153D02*
X0003500Y0234153D01*
X0003500Y0235152D02*
X0099300Y0235152D01*
X0100039Y0236150D02*
X0003500Y0236150D01*
X0003500Y0237149D02*
X0014098Y0237149D01*
X0013128Y0238147D02*
X0003500Y0238147D01*
X0003500Y0239146D02*
X0012715Y0239146D01*
X0012638Y0240144D02*
X0003511Y0240144D01*
X0003590Y0241143D02*
X0012834Y0241143D01*
X0013386Y0242141D02*
X0003888Y0242141D01*
X0001500Y0240000D02*
X0001500Y0038000D01*
X0018186Y0047432D02*
X0023814Y0047432D01*
X0023011Y0048430D02*
X0018989Y0048430D01*
X0019362Y0049429D02*
X0022638Y0049429D01*
X0022638Y0050427D02*
X0019362Y0050427D01*
X0019049Y0051426D02*
X0022951Y0051426D01*
X0023669Y0052424D02*
X0018331Y0052424D01*
X0018172Y0057417D02*
X0023828Y0057417D01*
X0023017Y0058415D02*
X0018983Y0058415D01*
X0019362Y0059414D02*
X0022638Y0059414D01*
X0022638Y0060412D02*
X0019362Y0060412D01*
X0019055Y0061411D02*
X0022945Y0061411D01*
X0023654Y0062409D02*
X0018346Y0062409D01*
X0018157Y0067402D02*
X0023843Y0067402D01*
X0023023Y0068400D02*
X0018977Y0068400D01*
X0019362Y0069399D02*
X0022638Y0069399D01*
X0022638Y0070397D02*
X0019362Y0070397D01*
X0019061Y0071396D02*
X0022939Y0071396D01*
X0023639Y0072394D02*
X0018361Y0072394D01*
X0018142Y0077387D02*
X0023858Y0077387D01*
X0023030Y0078385D02*
X0018970Y0078385D01*
X0019362Y0079384D02*
X0022638Y0079384D01*
X0022638Y0080382D02*
X0019362Y0080382D01*
X0019067Y0081381D02*
X0022933Y0081381D01*
X0023625Y0082379D02*
X0018375Y0082379D01*
X0018127Y0087372D02*
X0023873Y0087372D01*
X0023036Y0088370D02*
X0018964Y0088370D01*
X0019362Y0089369D02*
X0022638Y0089369D01*
X0022638Y0090368D02*
X0019362Y0090368D01*
X0019073Y0091366D02*
X0022927Y0091366D01*
X0023610Y0092365D02*
X0018390Y0092365D01*
X0018112Y0097357D02*
X0023888Y0097357D01*
X0023042Y0098356D02*
X0018958Y0098356D01*
X0019362Y0099354D02*
X0022638Y0099354D01*
X0022638Y0100353D02*
X0019362Y0100353D01*
X0019080Y0101351D02*
X0022920Y0101351D01*
X0023595Y0102350D02*
X0018405Y0102350D01*
X0016669Y0106638D02*
X0017905Y0107150D01*
X0018850Y0108095D01*
X0019362Y0109331D01*
X0019362Y0110669D01*
X0018850Y0111905D01*
X0017905Y0112850D01*
X0016669Y0113362D01*
X0015331Y0113362D01*
X0014095Y0112850D01*
X0013150Y0111905D01*
X0012638Y0110669D01*
X0012638Y0109331D01*
X0013150Y0108095D01*
X0014095Y0107150D01*
X0015331Y0106638D01*
X0016669Y0106638D01*
X0018097Y0107342D02*
X0023903Y0107342D01*
X0024095Y0107150D02*
X0025331Y0106638D01*
X0026669Y0106638D01*
X0027905Y0107150D01*
X0028850Y0108095D01*
X0029362Y0109331D01*
X0029362Y0110669D01*
X0028850Y0111905D01*
X0027905Y0112850D01*
X0026669Y0113362D01*
X0025331Y0113362D01*
X0024095Y0112850D01*
X0023150Y0111905D01*
X0022638Y0110669D01*
X0022638Y0109331D01*
X0023150Y0108095D01*
X0024095Y0107150D01*
X0023048Y0108341D02*
X0018952Y0108341D01*
X0019362Y0109339D02*
X0022638Y0109339D01*
X0022638Y0110338D02*
X0019362Y0110338D01*
X0019086Y0111336D02*
X0022914Y0111336D01*
X0023580Y0112335D02*
X0018420Y0112335D01*
X0016739Y0113333D02*
X0025261Y0113333D01*
X0026739Y0113333D02*
X0209000Y0113333D01*
X0209000Y0112335D02*
X0028420Y0112335D01*
X0029086Y0111336D02*
X0209000Y0111336D01*
X0209000Y0110338D02*
X0029362Y0110338D01*
X0029362Y0109339D02*
X0209000Y0109339D01*
X0209000Y0108341D02*
X0028952Y0108341D01*
X0028097Y0107342D02*
X0209000Y0107342D01*
X0209000Y0106344D02*
X0003500Y0106344D01*
X0003500Y0107342D02*
X0013903Y0107342D01*
X0013048Y0108341D02*
X0003500Y0108341D01*
X0003500Y0109339D02*
X0012638Y0109339D01*
X0012638Y0110338D02*
X0003500Y0110338D01*
X0003500Y0111336D02*
X0012914Y0111336D01*
X0013580Y0112335D02*
X0003500Y0112335D01*
X0003500Y0113333D02*
X0015261Y0113333D01*
X0015331Y0116638D02*
X0014095Y0117150D01*
X0013150Y0118095D01*
X0012638Y0119331D01*
X0012638Y0120669D01*
X0013150Y0121905D01*
X0014095Y0122850D01*
X0015331Y0123362D01*
X0016669Y0123362D01*
X0017905Y0122850D01*
X0018850Y0121905D01*
X0019362Y0120669D01*
X0019362Y0119331D01*
X0018850Y0118095D01*
X0017905Y0117150D01*
X0016669Y0116638D01*
X0015331Y0116638D01*
X0013918Y0117327D02*
X0003500Y0117327D01*
X0003500Y0116329D02*
X0209000Y0116329D01*
X0209000Y0117327D02*
X0028082Y0117327D01*
X0027905Y0117150D02*
X0028850Y0118095D01*
X0029362Y0119331D01*
X0029362Y0120669D01*
X0028850Y0121905D01*
X0027905Y0122850D01*
X0026669Y0123362D01*
X0025331Y0123362D01*
X0024095Y0122850D01*
X0023150Y0121905D01*
X0022638Y0120669D01*
X0022638Y0119331D01*
X0023150Y0118095D01*
X0024095Y0117150D01*
X0025331Y0116638D01*
X0026669Y0116638D01*
X0027905Y0117150D01*
X0028946Y0118326D02*
X0089563Y0118326D01*
X0089589Y0118300D02*
X0091411Y0118300D01*
X0092700Y0119589D01*
X0092700Y0121411D01*
X0091411Y0122700D01*
X0089589Y0122700D01*
X0088300Y0121411D01*
X0088300Y0119589D01*
X0089589Y0118300D01*
X0088564Y0119324D02*
X0029359Y0119324D01*
X0029362Y0120323D02*
X0088300Y0120323D01*
X0088300Y0121321D02*
X0029092Y0121321D01*
X0028435Y0122320D02*
X0089209Y0122320D01*
X0091791Y0122320D02*
X0209000Y0122320D01*
X0209000Y0123318D02*
X0026775Y0123318D01*
X0025225Y0123318D02*
X0016775Y0123318D01*
X0015225Y0123318D02*
X0003500Y0123318D01*
X0003500Y0122320D02*
X0013565Y0122320D01*
X0012908Y0121321D02*
X0003500Y0121321D01*
X0003500Y0120323D02*
X0012638Y0120323D01*
X0012641Y0119324D02*
X0003500Y0119324D01*
X0003500Y0118326D02*
X0013054Y0118326D01*
X0018082Y0117327D02*
X0023918Y0117327D01*
X0023054Y0118326D02*
X0018946Y0118326D01*
X0019359Y0119324D02*
X0022641Y0119324D01*
X0022638Y0120323D02*
X0019362Y0120323D01*
X0019092Y0121321D02*
X0022908Y0121321D01*
X0023565Y0122320D02*
X0018435Y0122320D01*
X0016669Y0126638D02*
X0017905Y0127150D01*
X0018850Y0128095D01*
X0019362Y0129331D01*
X0019362Y0130669D01*
X0018850Y0131905D01*
X0017905Y0132850D01*
X0016669Y0133362D01*
X0015331Y0133362D01*
X0014095Y0132850D01*
X0013150Y0131905D01*
X0012638Y0130669D01*
X0012638Y0129331D01*
X0013150Y0128095D01*
X0014095Y0127150D01*
X0015331Y0126638D01*
X0016669Y0126638D01*
X0018067Y0127312D02*
X0023933Y0127312D01*
X0024095Y0127150D02*
X0025331Y0126638D01*
X0026669Y0126638D01*
X0027905Y0127150D01*
X0028850Y0128095D01*
X0029362Y0129331D01*
X0029362Y0130669D01*
X0028850Y0131905D01*
X0027905Y0132850D01*
X0026669Y0133362D01*
X0025331Y0133362D01*
X0024095Y0132850D01*
X0023150Y0131905D01*
X0022638Y0130669D01*
X0022638Y0129331D01*
X0023150Y0128095D01*
X0024095Y0127150D01*
X0023060Y0128311D02*
X0018940Y0128311D01*
X0019353Y0129309D02*
X0022647Y0129309D01*
X0022638Y0130308D02*
X0019362Y0130308D01*
X0019098Y0131306D02*
X0022902Y0131306D01*
X0023550Y0132305D02*
X0018450Y0132305D01*
X0016811Y0133303D02*
X0025189Y0133303D01*
X0026811Y0133303D02*
X0209000Y0133303D01*
X0209000Y0132305D02*
X0156806Y0132305D01*
X0157200Y0131911D02*
X0155911Y0133200D01*
X0154089Y0133200D01*
X0152800Y0131911D01*
X0152800Y0130089D01*
X0154089Y0128800D01*
X0155911Y0128800D01*
X0157200Y0130089D01*
X0157200Y0131911D01*
X0157200Y0131306D02*
X0209000Y0131306D01*
X0209000Y0130308D02*
X0157200Y0130308D01*
X0156421Y0129309D02*
X0209000Y0129309D01*
X0209000Y0128311D02*
X0085922Y0128311D01*
X0086200Y0128589D02*
X0084911Y0127300D01*
X0083089Y0127300D01*
X0081800Y0128589D01*
X0081800Y0130411D01*
X0083089Y0131700D01*
X0084911Y0131700D01*
X0086200Y0130411D01*
X0086200Y0128589D01*
X0086200Y0129309D02*
X0153579Y0129309D01*
X0152800Y0130308D02*
X0086200Y0130308D01*
X0085305Y0131306D02*
X0152800Y0131306D01*
X0153194Y0132305D02*
X0028450Y0132305D01*
X0029098Y0131306D02*
X0082695Y0131306D01*
X0081800Y0130308D02*
X0029362Y0130308D01*
X0029353Y0129309D02*
X0081800Y0129309D01*
X0082078Y0128311D02*
X0028940Y0128311D01*
X0028067Y0127312D02*
X0083076Y0127312D01*
X0084924Y0127312D02*
X0209000Y0127312D01*
X0209000Y0126314D02*
X0003500Y0126314D01*
X0003500Y0127312D02*
X0013933Y0127312D01*
X0013060Y0128311D02*
X0003500Y0128311D01*
X0003500Y0129309D02*
X0012647Y0129309D01*
X0012638Y0130308D02*
X0003500Y0130308D01*
X0003500Y0131306D02*
X0012902Y0131306D01*
X0013550Y0132305D02*
X0003500Y0132305D01*
X0003500Y0133303D02*
X0015189Y0133303D01*
X0015331Y0136638D02*
X0014095Y0137150D01*
X0013150Y0138095D01*
X0012638Y0139331D01*
X0012638Y0140669D01*
X0013150Y0141905D01*
X0014095Y0142850D01*
X0015331Y0143362D01*
X0016669Y0143362D01*
X0017905Y0142850D01*
X0018850Y0141905D01*
X0019362Y0140669D01*
X0019362Y0139331D01*
X0018850Y0138095D01*
X0017905Y0137150D01*
X0016669Y0136638D01*
X0015331Y0136638D01*
X0013948Y0137298D02*
X0003500Y0137298D01*
X0003500Y0138296D02*
X0013067Y0138296D01*
X0012653Y0139295D02*
X0003500Y0139295D01*
X0003500Y0140293D02*
X0012638Y0140293D01*
X0012896Y0141292D02*
X0003500Y0141292D01*
X0003500Y0142290D02*
X0013535Y0142290D01*
X0015154Y0143289D02*
X0003500Y0143289D01*
X0003500Y0144287D02*
X0188176Y0144287D01*
X0188489Y0144600D02*
X0187200Y0143311D01*
X0187200Y0141489D01*
X0188489Y0140200D01*
X0190311Y0140200D01*
X0191600Y0141489D01*
X0191600Y0143311D01*
X0190311Y0144600D01*
X0188489Y0144600D01*
X0187200Y0143289D02*
X0059323Y0143289D01*
X0058911Y0143700D02*
X0057089Y0143700D01*
X0055800Y0142411D01*
X0055800Y0140589D01*
X0057089Y0139300D01*
X0058911Y0139300D01*
X0060200Y0140589D01*
X0060200Y0142411D01*
X0058911Y0143700D01*
X0060200Y0142290D02*
X0187200Y0142290D01*
X0187397Y0141292D02*
X0060200Y0141292D01*
X0059904Y0140293D02*
X0089182Y0140293D01*
X0089589Y0140700D02*
X0088300Y0139411D01*
X0088300Y0137589D01*
X0089589Y0136300D01*
X0091411Y0136300D01*
X0092700Y0137589D01*
X0092700Y0139411D01*
X0091411Y0140700D01*
X0089589Y0140700D01*
X0088300Y0139295D02*
X0029347Y0139295D01*
X0029362Y0139331D02*
X0028850Y0138095D01*
X0027905Y0137150D01*
X0026669Y0136638D01*
X0025331Y0136638D01*
X0024095Y0137150D01*
X0023150Y0138095D01*
X0022638Y0139331D01*
X0022638Y0140669D01*
X0023150Y0141905D01*
X0024095Y0142850D01*
X0025331Y0143362D01*
X0026669Y0143362D01*
X0027905Y0142850D01*
X0028850Y0141905D01*
X0029362Y0140669D01*
X0029362Y0139331D01*
X0029362Y0140293D02*
X0056096Y0140293D01*
X0055800Y0141292D02*
X0029104Y0141292D01*
X0028465Y0142290D02*
X0055800Y0142290D01*
X0056677Y0143289D02*
X0026846Y0143289D01*
X0025154Y0143289D02*
X0016846Y0143289D01*
X0018465Y0142290D02*
X0023535Y0142290D01*
X0022896Y0141292D02*
X0019104Y0141292D01*
X0019362Y0140293D02*
X0022638Y0140293D01*
X0022653Y0139295D02*
X0019347Y0139295D01*
X0018933Y0138296D02*
X0023067Y0138296D01*
X0023948Y0137298D02*
X0018052Y0137298D01*
X0016669Y0146638D02*
X0017905Y0147150D01*
X0018850Y0148095D01*
X0019362Y0149331D01*
X0019362Y0150669D01*
X0018850Y0151905D01*
X0017905Y0152850D01*
X0016669Y0153362D01*
X0015331Y0153362D01*
X0014095Y0152850D01*
X0013150Y0151905D01*
X0012638Y0150669D01*
X0012638Y0149331D01*
X0013150Y0148095D01*
X0014095Y0147150D01*
X0015331Y0146638D01*
X0016669Y0146638D01*
X0018038Y0147283D02*
X0023962Y0147283D01*
X0024095Y0147150D02*
X0025331Y0146638D01*
X0026669Y0146638D01*
X0027905Y0147150D01*
X0028850Y0148095D01*
X0029362Y0149331D01*
X0029362Y0150669D01*
X0028850Y0151905D01*
X0027905Y0152850D01*
X0026669Y0153362D01*
X0025331Y0153362D01*
X0024095Y0152850D01*
X0023150Y0151905D01*
X0022638Y0150669D01*
X0022638Y0149331D01*
X0023150Y0148095D01*
X0024095Y0147150D01*
X0023073Y0148281D02*
X0018927Y0148281D01*
X0019341Y0149280D02*
X0022659Y0149280D01*
X0022638Y0150278D02*
X0019362Y0150278D01*
X0019110Y0151277D02*
X0022890Y0151277D01*
X0023520Y0152275D02*
X0018480Y0152275D01*
X0016882Y0153274D02*
X0025118Y0153274D01*
X0026882Y0153274D02*
X0209000Y0153274D01*
X0209000Y0154272D02*
X0003500Y0154272D01*
X0003500Y0153274D02*
X0015118Y0153274D01*
X0013520Y0152275D02*
X0003500Y0152275D01*
X0003500Y0151277D02*
X0012890Y0151277D01*
X0012638Y0150278D02*
X0003500Y0150278D01*
X0003500Y0149280D02*
X0012659Y0149280D01*
X0013073Y0148281D02*
X0003500Y0148281D01*
X0003500Y0147283D02*
X0013962Y0147283D01*
X0015331Y0156638D02*
X0014095Y0157150D01*
X0013150Y0158095D01*
X0012638Y0159331D01*
X0012638Y0160669D01*
X0013150Y0161905D01*
X0014095Y0162850D01*
X0015331Y0163362D01*
X0016669Y0163362D01*
X0017905Y0162850D01*
X0018850Y0161905D01*
X0019362Y0160669D01*
X0019362Y0159331D01*
X0018850Y0158095D01*
X0017905Y0157150D01*
X0016669Y0156638D01*
X0015331Y0156638D01*
X0013977Y0157268D02*
X0003500Y0157268D01*
X0003500Y0158266D02*
X0013079Y0158266D01*
X0012665Y0159265D02*
X0003500Y0159265D01*
X0003500Y0160263D02*
X0012638Y0160263D01*
X0012883Y0161262D02*
X0003500Y0161262D01*
X0003500Y0162260D02*
X0013505Y0162260D01*
X0015082Y0163259D02*
X0003500Y0163259D01*
X0003500Y0164257D02*
X0088631Y0164257D01*
X0088300Y0164589D02*
X0089589Y0163300D01*
X0091411Y0163300D01*
X0092700Y0164589D01*
X0092700Y0166411D01*
X0091411Y0167700D01*
X0089589Y0167700D01*
X0088300Y0166411D01*
X0088300Y0164589D01*
X0088300Y0165256D02*
X0003500Y0165256D01*
X0003500Y0166254D02*
X0088300Y0166254D01*
X0089142Y0167253D02*
X0028008Y0167253D01*
X0027905Y0167150D02*
X0028850Y0168095D01*
X0029362Y0169331D01*
X0029362Y0170669D01*
X0028850Y0171905D01*
X0027905Y0172850D01*
X0026669Y0173362D01*
X0025331Y0173362D01*
X0024095Y0172850D01*
X0023150Y0171905D01*
X0022638Y0170669D01*
X0022638Y0169331D01*
X0023150Y0168095D01*
X0024095Y0167150D01*
X0025331Y0166638D01*
X0026669Y0166638D01*
X0027905Y0167150D01*
X0028915Y0168251D02*
X0146300Y0168251D01*
X0146300Y0168411D02*
X0146300Y0166589D01*
X0147589Y0165300D01*
X0149411Y0165300D01*
X0150700Y0166589D01*
X0150700Y0168411D01*
X0149411Y0169700D01*
X0147589Y0169700D01*
X0146300Y0168411D01*
X0146300Y0167253D02*
X0091858Y0167253D01*
X0092700Y0166254D02*
X0146634Y0166254D01*
X0147139Y0169250D02*
X0029329Y0169250D01*
X0029362Y0170248D02*
X0209000Y0170248D01*
X0209000Y0169250D02*
X0149861Y0169250D01*
X0150700Y0168251D02*
X0209000Y0168251D01*
X0209000Y0167253D02*
X0150700Y0167253D01*
X0150366Y0166254D02*
X0209000Y0166254D01*
X0209000Y0165256D02*
X0092700Y0165256D01*
X0092369Y0164257D02*
X0209000Y0164257D01*
X0209000Y0163259D02*
X0026918Y0163259D01*
X0026669Y0163362D02*
X0025331Y0163362D01*
X0024095Y0162850D01*
X0023150Y0161905D01*
X0022638Y0160669D01*
X0022638Y0159331D01*
X0023150Y0158095D01*
X0024095Y0157150D01*
X0025331Y0156638D01*
X0026669Y0156638D01*
X0027905Y0157150D01*
X0028850Y0158095D01*
X0029362Y0159331D01*
X0029362Y0160669D01*
X0028850Y0161905D01*
X0027905Y0162850D01*
X0026669Y0163362D01*
X0025082Y0163259D02*
X0016918Y0163259D01*
X0018495Y0162260D02*
X0023505Y0162260D01*
X0022883Y0161262D02*
X0019117Y0161262D01*
X0019362Y0160263D02*
X0022638Y0160263D01*
X0022665Y0159265D02*
X0019335Y0159265D01*
X0018921Y0158266D02*
X0023079Y0158266D01*
X0023977Y0157268D02*
X0018023Y0157268D01*
X0016669Y0166638D02*
X0017905Y0167150D01*
X0018850Y0168095D01*
X0019362Y0169331D01*
X0019362Y0170669D01*
X0018850Y0171905D01*
X0017905Y0172850D01*
X0016669Y0173362D01*
X0015331Y0173362D01*
X0014095Y0172850D01*
X0013150Y0171905D01*
X0012638Y0170669D01*
X0012638Y0169331D01*
X0013150Y0168095D01*
X0014095Y0167150D01*
X0015331Y0166638D01*
X0016669Y0166638D01*
X0018008Y0167253D02*
X0023992Y0167253D01*
X0023085Y0168251D02*
X0018915Y0168251D01*
X0019329Y0169250D02*
X0022671Y0169250D01*
X0022638Y0170248D02*
X0019362Y0170248D01*
X0019123Y0171247D02*
X0022877Y0171247D01*
X0023491Y0172245D02*
X0018509Y0172245D01*
X0016954Y0173244D02*
X0025046Y0173244D01*
X0026954Y0173244D02*
X0081845Y0173244D01*
X0081800Y0173289D02*
X0083089Y0172000D01*
X0084911Y0172000D01*
X0086200Y0173289D01*
X0086200Y0175111D01*
X0084911Y0176400D01*
X0083089Y0176400D01*
X0081800Y0175111D01*
X0081800Y0173289D01*
X0081800Y0174242D02*
X0003500Y0174242D01*
X0003500Y0173244D02*
X0015046Y0173244D01*
X0013491Y0172245D02*
X0003500Y0172245D01*
X0003500Y0171247D02*
X0012877Y0171247D01*
X0012638Y0170248D02*
X0003500Y0170248D01*
X0003500Y0169250D02*
X0012671Y0169250D01*
X0013085Y0168251D02*
X0003500Y0168251D01*
X0003500Y0167253D02*
X0013992Y0167253D01*
X0015331Y0176638D02*
X0014095Y0177150D01*
X0013150Y0178095D01*
X0012638Y0179331D01*
X0012638Y0180669D01*
X0013150Y0181905D01*
X0014095Y0182850D01*
X0015331Y0183362D01*
X0016669Y0183362D01*
X0017905Y0182850D01*
X0018850Y0181905D01*
X0019362Y0180669D01*
X0019362Y0179331D01*
X0018850Y0178095D01*
X0017905Y0177150D01*
X0016669Y0176638D01*
X0015331Y0176638D01*
X0014007Y0177238D02*
X0003500Y0177238D01*
X0003500Y0178237D02*
X0013091Y0178237D01*
X0012678Y0179235D02*
X0003500Y0179235D01*
X0003500Y0180234D02*
X0012638Y0180234D01*
X0012871Y0181232D02*
X0003500Y0181232D01*
X0003500Y0182231D02*
X0013476Y0182231D01*
X0015010Y0183229D02*
X0003500Y0183229D01*
X0003500Y0184228D02*
X0186348Y0184228D01*
X0186560Y0183716D02*
X0187535Y0182741D01*
X0188810Y0182213D01*
X0190190Y0182213D01*
X0191465Y0182741D01*
X0192440Y0183716D01*
X0192968Y0184991D01*
X0192968Y0186371D01*
X0192440Y0187646D01*
X0191465Y0188622D01*
X0190190Y0189150D01*
X0188810Y0189150D01*
X0187535Y0188622D01*
X0186560Y0187646D01*
X0186031Y0186371D01*
X0186031Y0184991D01*
X0186560Y0183716D01*
X0187047Y0183229D02*
X0026990Y0183229D01*
X0026669Y0183362D02*
X0025331Y0183362D01*
X0024095Y0182850D01*
X0023150Y0181905D01*
X0022638Y0180669D01*
X0022638Y0179331D01*
X0023150Y0178095D01*
X0024095Y0177150D01*
X0025331Y0176638D01*
X0026669Y0176638D01*
X0027905Y0177150D01*
X0028850Y0178095D01*
X0029362Y0179331D01*
X0029362Y0180669D01*
X0028850Y0181905D01*
X0027905Y0182850D01*
X0026669Y0183362D01*
X0025010Y0183229D02*
X0016990Y0183229D01*
X0018524Y0182231D02*
X0023476Y0182231D01*
X0022871Y0181232D02*
X0019129Y0181232D01*
X0019362Y0180234D02*
X0022638Y0180234D01*
X0022678Y0179235D02*
X0019322Y0179235D01*
X0018909Y0178237D02*
X0023091Y0178237D01*
X0024007Y0177238D02*
X0017993Y0177238D01*
X0016669Y0186638D02*
X0017905Y0187150D01*
X0018850Y0188095D01*
X0019362Y0189331D01*
X0019362Y0190669D01*
X0018850Y0191905D01*
X0017905Y0192850D01*
X0016669Y0193362D01*
X0015331Y0193362D01*
X0014095Y0192850D01*
X0013150Y0191905D01*
X0012638Y0190669D01*
X0012638Y0189331D01*
X0013150Y0188095D01*
X0014095Y0187150D01*
X0015331Y0186638D01*
X0016669Y0186638D01*
X0017978Y0187223D02*
X0024022Y0187223D01*
X0024095Y0187150D02*
X0025331Y0186638D01*
X0026669Y0186638D01*
X0027905Y0187150D01*
X0028850Y0188095D01*
X0029362Y0189331D01*
X0029362Y0190669D01*
X0028850Y0191905D01*
X0027905Y0192850D01*
X0026669Y0193362D01*
X0025331Y0193362D01*
X0024095Y0192850D01*
X0023150Y0191905D01*
X0022638Y0190669D01*
X0022638Y0189331D01*
X0023150Y0188095D01*
X0024095Y0187150D01*
X0023097Y0188222D02*
X0018903Y0188222D01*
X0019316Y0189220D02*
X0022684Y0189220D01*
X0022638Y0190219D02*
X0019362Y0190219D01*
X0019135Y0191217D02*
X0022865Y0191217D01*
X0023461Y0192216D02*
X0018539Y0192216D01*
X0017026Y0193214D02*
X0024974Y0193214D01*
X0027026Y0193214D02*
X0209000Y0193214D01*
X0209000Y0192216D02*
X0028539Y0192216D01*
X0029135Y0191217D02*
X0209000Y0191217D01*
X0209000Y0190219D02*
X0029362Y0190219D01*
X0029316Y0189220D02*
X0209000Y0189220D01*
X0209000Y0188222D02*
X0191865Y0188222D01*
X0192616Y0187223D02*
X0209000Y0187223D01*
X0209000Y0186225D02*
X0192968Y0186225D01*
X0192968Y0185226D02*
X0209000Y0185226D01*
X0209000Y0184228D02*
X0192652Y0184228D01*
X0191953Y0183229D02*
X0209000Y0183229D01*
X0209000Y0182231D02*
X0190233Y0182231D01*
X0188767Y0182231D02*
X0028524Y0182231D01*
X0029129Y0181232D02*
X0209000Y0181232D01*
X0209000Y0180234D02*
X0029362Y0180234D01*
X0029322Y0179235D02*
X0209000Y0179235D01*
X0209000Y0178237D02*
X0028909Y0178237D01*
X0027993Y0177238D02*
X0209000Y0177238D01*
X0209000Y0176239D02*
X0085072Y0176239D01*
X0086070Y0175241D02*
X0187530Y0175241D01*
X0187100Y0174811D02*
X0187100Y0172989D01*
X0188389Y0171700D01*
X0190211Y0171700D01*
X0191500Y0172989D01*
X0191500Y0174811D01*
X0190211Y0176100D01*
X0188389Y0176100D01*
X0187100Y0174811D01*
X0187100Y0174242D02*
X0086200Y0174242D01*
X0086155Y0173244D02*
X0187100Y0173244D01*
X0187843Y0172245D02*
X0085157Y0172245D01*
X0082843Y0172245D02*
X0028509Y0172245D01*
X0029123Y0171247D02*
X0209000Y0171247D01*
X0209000Y0172245D02*
X0190757Y0172245D01*
X0191500Y0173244D02*
X0209000Y0173244D01*
X0209000Y0174242D02*
X0191500Y0174242D01*
X0191070Y0175241D02*
X0209000Y0175241D01*
X0209000Y0162260D02*
X0028495Y0162260D01*
X0029117Y0161262D02*
X0147151Y0161262D01*
X0147589Y0161700D02*
X0146300Y0160411D01*
X0146300Y0158589D01*
X0147589Y0157300D01*
X0149411Y0157300D01*
X0150700Y0158589D01*
X0150700Y0160411D01*
X0149411Y0161700D01*
X0147589Y0161700D01*
X0146300Y0160263D02*
X0029362Y0160263D01*
X0029335Y0159265D02*
X0082154Y0159265D01*
X0081800Y0158911D02*
X0081800Y0157089D01*
X0083089Y0155800D01*
X0084911Y0155800D01*
X0086200Y0157089D01*
X0086200Y0158911D01*
X0084911Y0160200D01*
X0083089Y0160200D01*
X0081800Y0158911D01*
X0081800Y0158266D02*
X0028921Y0158266D01*
X0028023Y0157268D02*
X0081800Y0157268D01*
X0082619Y0156269D02*
X0003500Y0156269D01*
X0003500Y0155271D02*
X0209000Y0155271D01*
X0209000Y0156269D02*
X0085381Y0156269D01*
X0086200Y0157268D02*
X0209000Y0157268D01*
X0209000Y0158266D02*
X0150378Y0158266D01*
X0150700Y0159265D02*
X0209000Y0159265D01*
X0209000Y0160263D02*
X0150700Y0160263D01*
X0149849Y0161262D02*
X0209000Y0161262D01*
X0209000Y0152275D02*
X0091836Y0152275D01*
X0091411Y0152700D02*
X0089589Y0152700D01*
X0088300Y0151411D01*
X0088300Y0149589D01*
X0089589Y0148300D01*
X0091411Y0148300D01*
X0092700Y0149589D01*
X0092700Y0151411D01*
X0091411Y0152700D01*
X0092700Y0151277D02*
X0209000Y0151277D01*
X0209000Y0150278D02*
X0092700Y0150278D01*
X0092391Y0149280D02*
X0147168Y0149280D01*
X0147589Y0149700D02*
X0146300Y0148411D01*
X0146300Y0146589D01*
X0147589Y0145300D01*
X0149411Y0145300D01*
X0150700Y0146589D01*
X0150700Y0148411D01*
X0149411Y0149700D01*
X0147589Y0149700D01*
X0146300Y0148281D02*
X0028927Y0148281D01*
X0029341Y0149280D02*
X0088609Y0149280D01*
X0088300Y0150278D02*
X0029362Y0150278D01*
X0029110Y0151277D02*
X0088300Y0151277D01*
X0089164Y0152275D02*
X0028480Y0152275D01*
X0028038Y0147283D02*
X0146300Y0147283D01*
X0146605Y0146284D02*
X0003500Y0146284D01*
X0003500Y0145286D02*
X0209000Y0145286D01*
X0209000Y0146284D02*
X0150395Y0146284D01*
X0150700Y0147283D02*
X0209000Y0147283D01*
X0209000Y0148281D02*
X0150700Y0148281D01*
X0149832Y0149280D02*
X0209000Y0149280D01*
X0209000Y0144287D02*
X0190624Y0144287D01*
X0191600Y0143289D02*
X0209000Y0143289D01*
X0209000Y0142290D02*
X0191600Y0142290D01*
X0191403Y0141292D02*
X0209000Y0141292D01*
X0209000Y0140293D02*
X0190404Y0140293D01*
X0188396Y0140293D02*
X0091818Y0140293D01*
X0092700Y0139295D02*
X0147183Y0139295D01*
X0147589Y0139700D02*
X0146300Y0138411D01*
X0146300Y0136589D01*
X0147589Y0135300D01*
X0149411Y0135300D01*
X0150700Y0136589D01*
X0150700Y0138411D01*
X0149411Y0139700D01*
X0147589Y0139700D01*
X0146300Y0138296D02*
X0092700Y0138296D01*
X0092409Y0137298D02*
X0146300Y0137298D01*
X0146590Y0136299D02*
X0003500Y0136299D01*
X0003500Y0135301D02*
X0147588Y0135301D01*
X0149412Y0135301D02*
X0209000Y0135301D01*
X0209000Y0136299D02*
X0150410Y0136299D01*
X0150700Y0137298D02*
X0209000Y0137298D01*
X0209000Y0138296D02*
X0150700Y0138296D01*
X0149817Y0139295D02*
X0209000Y0139295D01*
X0209000Y0134302D02*
X0003500Y0134302D01*
X0003500Y0125315D02*
X0209000Y0125315D01*
X0209000Y0124317D02*
X0003500Y0124317D01*
X0003500Y0115330D02*
X0209000Y0115330D01*
X0209000Y0114332D02*
X0003500Y0114332D01*
X0003500Y0105345D02*
X0209000Y0105345D01*
X0209000Y0104347D02*
X0003500Y0104347D01*
X0028052Y0137298D02*
X0088591Y0137298D01*
X0088300Y0138296D02*
X0028933Y0138296D01*
X0003500Y0175241D02*
X0081930Y0175241D01*
X0082928Y0176239D02*
X0003500Y0176239D01*
X0003500Y0185226D02*
X0186031Y0185226D01*
X0186031Y0186225D02*
X0003500Y0186225D01*
X0003500Y0187223D02*
X0014022Y0187223D01*
X0013097Y0188222D02*
X0003500Y0188222D01*
X0003500Y0189220D02*
X0012684Y0189220D01*
X0012638Y0190219D02*
X0003500Y0190219D01*
X0003500Y0191217D02*
X0012865Y0191217D01*
X0013461Y0192216D02*
X0003500Y0192216D01*
X0003500Y0193214D02*
X0014974Y0193214D01*
X0015331Y0196638D02*
X0014095Y0197150D01*
X0013150Y0198095D01*
X0012638Y0199331D01*
X0012638Y0200669D01*
X0013150Y0201905D01*
X0014095Y0202850D01*
X0015331Y0203362D01*
X0016669Y0203362D01*
X0017905Y0202850D01*
X0018850Y0201905D01*
X0019362Y0200669D01*
X0019362Y0199331D01*
X0018850Y0198095D01*
X0017905Y0197150D01*
X0016669Y0196638D01*
X0015331Y0196638D01*
X0014037Y0197208D02*
X0003500Y0197208D01*
X0003500Y0196210D02*
X0209000Y0196210D01*
X0209000Y0197208D02*
X0027963Y0197208D01*
X0027905Y0197150D02*
X0028850Y0198095D01*
X0029362Y0199331D01*
X0029362Y0200669D01*
X0028850Y0201905D01*
X0027905Y0202850D01*
X0026669Y0203362D01*
X0025331Y0203362D01*
X0024095Y0202850D01*
X0023150Y0201905D01*
X0022638Y0200669D01*
X0022638Y0199331D01*
X0023150Y0198095D01*
X0024095Y0197150D01*
X0025331Y0196638D01*
X0026669Y0196638D01*
X0027905Y0197150D01*
X0028896Y0198207D02*
X0209000Y0198207D01*
X0209000Y0199205D02*
X0029310Y0199205D01*
X0029362Y0200204D02*
X0078185Y0200204D01*
X0077800Y0200589D02*
X0079089Y0199300D01*
X0080911Y0199300D01*
X0081750Y0200139D01*
X0082589Y0199300D01*
X0084411Y0199300D01*
X0085250Y0200139D01*
X0086089Y0199300D01*
X0087911Y0199300D01*
X0088750Y0200139D01*
X0089589Y0199300D01*
X0091411Y0199300D01*
X0092250Y0200139D01*
X0093089Y0199300D01*
X0094911Y0199300D01*
X0095750Y0200139D01*
X0096589Y0199300D01*
X0098411Y0199300D01*
X0099700Y0200589D01*
X0099700Y0202411D01*
X0098411Y0203700D01*
X0096589Y0203700D01*
X0095750Y0202861D01*
X0094911Y0203700D01*
X0093089Y0203700D01*
X0092250Y0202861D01*
X0091411Y0203700D01*
X0089589Y0203700D01*
X0088750Y0202861D01*
X0088361Y0203250D01*
X0089200Y0204089D01*
X0089200Y0205911D01*
X0087911Y0207200D01*
X0086089Y0207200D01*
X0085250Y0206361D01*
X0084411Y0207200D01*
X0082589Y0207200D01*
X0081750Y0206361D01*
X0080911Y0207200D01*
X0079089Y0207200D01*
X0077800Y0205911D01*
X0077800Y0204089D01*
X0078639Y0203250D01*
X0077800Y0202411D01*
X0077800Y0200589D01*
X0077800Y0201202D02*
X0029141Y0201202D01*
X0028554Y0202201D02*
X0077800Y0202201D01*
X0078588Y0203199D02*
X0027062Y0203199D01*
X0024938Y0203199D02*
X0017062Y0203199D01*
X0018554Y0202201D02*
X0023446Y0202201D01*
X0022859Y0201202D02*
X0019141Y0201202D01*
X0019362Y0200204D02*
X0022638Y0200204D01*
X0022690Y0199205D02*
X0019310Y0199205D01*
X0018896Y0198207D02*
X0023104Y0198207D01*
X0024037Y0197208D02*
X0017963Y0197208D01*
X0013104Y0198207D02*
X0003500Y0198207D01*
X0003500Y0199205D02*
X0012690Y0199205D01*
X0012638Y0200204D02*
X0003500Y0200204D01*
X0003500Y0201202D02*
X0012859Y0201202D01*
X0013446Y0202201D02*
X0003500Y0202201D01*
X0003500Y0203199D02*
X0014938Y0203199D01*
X0015331Y0206638D02*
X0014095Y0207150D01*
X0013150Y0208095D01*
X0012638Y0209331D01*
X0012638Y0210669D01*
X0013150Y0211905D01*
X0014095Y0212850D01*
X0015331Y0213362D01*
X0016669Y0213362D01*
X0017905Y0212850D01*
X0018850Y0211905D01*
X0019362Y0210669D01*
X0019362Y0209331D01*
X0018850Y0208095D01*
X0017905Y0207150D01*
X0016669Y0206638D01*
X0015331Y0206638D01*
X0014052Y0207193D02*
X0003500Y0207193D01*
X0003500Y0206195D02*
X0078084Y0206195D01*
X0077800Y0205196D02*
X0003500Y0205196D01*
X0003500Y0204198D02*
X0077800Y0204198D01*
X0079082Y0207193D02*
X0027948Y0207193D01*
X0027905Y0207150D02*
X0028850Y0208095D01*
X0029362Y0209331D01*
X0029362Y0210669D01*
X0028850Y0211905D01*
X0027905Y0212850D01*
X0026669Y0213362D01*
X0025331Y0213362D01*
X0024095Y0212850D01*
X0023150Y0211905D01*
X0022638Y0210669D01*
X0022638Y0209331D01*
X0023150Y0208095D01*
X0024095Y0207150D01*
X0025331Y0206638D01*
X0026669Y0206638D01*
X0027905Y0207150D01*
X0028890Y0208192D02*
X0187600Y0208192D01*
X0187600Y0208311D02*
X0187600Y0206489D01*
X0188889Y0205200D01*
X0190711Y0205200D01*
X0192000Y0206489D01*
X0192000Y0208311D01*
X0190711Y0209600D01*
X0188889Y0209600D01*
X0187600Y0208311D01*
X0187600Y0207193D02*
X0087918Y0207193D01*
X0088916Y0206195D02*
X0187894Y0206195D01*
X0188479Y0209190D02*
X0029304Y0209190D01*
X0029362Y0210189D02*
X0209000Y0210189D01*
X0209000Y0211187D02*
X0029147Y0211187D01*
X0028569Y0212186D02*
X0209000Y0212186D01*
X0209000Y0213184D02*
X0027098Y0213184D01*
X0024902Y0213184D02*
X0017098Y0213184D01*
X0018569Y0212186D02*
X0023431Y0212186D01*
X0022853Y0211187D02*
X0019147Y0211187D01*
X0019362Y0210189D02*
X0022638Y0210189D01*
X0022696Y0209190D02*
X0019304Y0209190D01*
X0018890Y0208192D02*
X0023110Y0208192D01*
X0024052Y0207193D02*
X0017948Y0207193D01*
X0013110Y0208192D02*
X0003500Y0208192D01*
X0003500Y0209190D02*
X0012696Y0209190D01*
X0012638Y0210189D02*
X0003500Y0210189D01*
X0003500Y0211187D02*
X0012853Y0211187D01*
X0013431Y0212186D02*
X0003500Y0212186D01*
X0003500Y0213184D02*
X0014902Y0213184D01*
X0017933Y0217178D02*
X0024067Y0217178D01*
X0023116Y0218177D02*
X0018884Y0218177D01*
X0019298Y0219175D02*
X0022702Y0219175D01*
X0022638Y0220174D02*
X0019362Y0220174D01*
X0019154Y0221172D02*
X0022846Y0221172D01*
X0023416Y0222171D02*
X0018584Y0222171D01*
X0028584Y0222171D02*
X0052800Y0222171D01*
X0053561Y0221172D02*
X0029154Y0221172D01*
X0029362Y0220174D02*
X0052800Y0220174D01*
X0052800Y0219175D02*
X0029298Y0219175D01*
X0028884Y0218177D02*
X0053212Y0218177D01*
X0056788Y0218177D02*
X0112800Y0218177D01*
X0112800Y0219175D02*
X0057200Y0219175D01*
X0057200Y0220174D02*
X0113063Y0220174D01*
X0112800Y0221172D02*
X0056439Y0221172D01*
X0057200Y0222171D02*
X0112800Y0222171D01*
X0113058Y0223170D02*
X0057200Y0223170D01*
X0056943Y0224168D02*
X0114057Y0224168D01*
X0113710Y0217178D02*
X0027933Y0217178D01*
X0001500Y0240000D02*
X0001503Y0240242D01*
X0001512Y0240483D01*
X0001526Y0240724D01*
X0001547Y0240965D01*
X0001573Y0241205D01*
X0001605Y0241445D01*
X0001643Y0241684D01*
X0001686Y0241921D01*
X0001736Y0242158D01*
X0001791Y0242393D01*
X0001851Y0242627D01*
X0001918Y0242859D01*
X0001989Y0243090D01*
X0002067Y0243319D01*
X0002150Y0243546D01*
X0002238Y0243771D01*
X0002332Y0243994D01*
X0002431Y0244214D01*
X0002536Y0244432D01*
X0002645Y0244647D01*
X0002760Y0244860D01*
X0002880Y0245070D01*
X0003005Y0245276D01*
X0003135Y0245480D01*
X0003270Y0245681D01*
X0003410Y0245878D01*
X0003554Y0246072D01*
X0003703Y0246262D01*
X0003857Y0246448D01*
X0004015Y0246631D01*
X0004177Y0246810D01*
X0004344Y0246985D01*
X0004515Y0247156D01*
X0004690Y0247323D01*
X0004869Y0247485D01*
X0005052Y0247643D01*
X0005238Y0247797D01*
X0005428Y0247946D01*
X0005622Y0248090D01*
X0005819Y0248230D01*
X0006020Y0248365D01*
X0006224Y0248495D01*
X0006430Y0248620D01*
X0006640Y0248740D01*
X0006853Y0248855D01*
X0007068Y0248964D01*
X0007286Y0249069D01*
X0007506Y0249168D01*
X0007729Y0249262D01*
X0007954Y0249350D01*
X0008181Y0249433D01*
X0008410Y0249511D01*
X0008641Y0249582D01*
X0008873Y0249649D01*
X0009107Y0249709D01*
X0009342Y0249764D01*
X0009579Y0249814D01*
X0009816Y0249857D01*
X0010055Y0249895D01*
X0010295Y0249927D01*
X0010535Y0249953D01*
X0010776Y0249974D01*
X0011017Y0249988D01*
X0011258Y0249997D01*
X0011500Y0250000D01*
X0201000Y0250000D01*
X0204614Y0247134D02*
X0007886Y0247134D01*
X0006502Y0246135D02*
X0205998Y0246135D01*
X0207035Y0245137D02*
X0197453Y0245137D01*
X0198393Y0244138D02*
X0207760Y0244138D01*
X0208288Y0243140D02*
X0198806Y0243140D01*
X0198953Y0242141D02*
X0208612Y0242141D01*
X0208910Y0241143D02*
X0198923Y0241143D01*
X0201000Y0250000D02*
X0201242Y0249997D01*
X0201483Y0249988D01*
X0201724Y0249974D01*
X0201965Y0249953D01*
X0202205Y0249927D01*
X0202445Y0249895D01*
X0202684Y0249857D01*
X0202921Y0249814D01*
X0203158Y0249764D01*
X0203393Y0249709D01*
X0203627Y0249649D01*
X0203859Y0249582D01*
X0204090Y0249511D01*
X0204319Y0249433D01*
X0204546Y0249350D01*
X0204771Y0249262D01*
X0204994Y0249168D01*
X0205214Y0249069D01*
X0205432Y0248964D01*
X0205647Y0248855D01*
X0205860Y0248740D01*
X0206070Y0248620D01*
X0206276Y0248495D01*
X0206480Y0248365D01*
X0206681Y0248230D01*
X0206878Y0248090D01*
X0207072Y0247946D01*
X0207262Y0247797D01*
X0207448Y0247643D01*
X0207631Y0247485D01*
X0207810Y0247323D01*
X0207985Y0247156D01*
X0208156Y0246985D01*
X0208323Y0246810D01*
X0208485Y0246631D01*
X0208643Y0246448D01*
X0208797Y0246262D01*
X0208946Y0246072D01*
X0209090Y0245878D01*
X0209230Y0245681D01*
X0209365Y0245480D01*
X0209495Y0245276D01*
X0209620Y0245070D01*
X0209740Y0244860D01*
X0209855Y0244647D01*
X0209964Y0244432D01*
X0210069Y0244214D01*
X0210168Y0243994D01*
X0210262Y0243771D01*
X0210350Y0243546D01*
X0210433Y0243319D01*
X0210511Y0243090D01*
X0210582Y0242859D01*
X0210649Y0242627D01*
X0210709Y0242393D01*
X0210764Y0242158D01*
X0210814Y0241921D01*
X0210857Y0241684D01*
X0210895Y0241445D01*
X0210927Y0241205D01*
X0210953Y0240965D01*
X0210974Y0240724D01*
X0210988Y0240483D01*
X0210997Y0240242D01*
X0211000Y0240000D01*
X0209000Y0237149D02*
X0134700Y0237149D01*
X0133761Y0236150D02*
X0209000Y0236150D01*
X0209000Y0235152D02*
X0197438Y0235152D01*
X0197239Y0235351D02*
X0195786Y0235953D01*
X0194214Y0235953D01*
X0192761Y0235351D01*
X0191649Y0234239D01*
X0191047Y0232786D01*
X0191047Y0231214D01*
X0191649Y0229761D01*
X0192761Y0228649D01*
X0194214Y0228047D01*
X0195786Y0228047D01*
X0197239Y0228649D01*
X0198351Y0229761D01*
X0198953Y0231214D01*
X0198953Y0232786D01*
X0198351Y0234239D01*
X0197239Y0235351D01*
X0198387Y0234153D02*
X0209000Y0234153D01*
X0209000Y0233155D02*
X0198800Y0233155D01*
X0198953Y0232156D02*
X0209000Y0232156D01*
X0209000Y0231158D02*
X0198929Y0231158D01*
X0198516Y0230159D02*
X0209000Y0230159D01*
X0209000Y0229161D02*
X0197751Y0229161D01*
X0196063Y0228162D02*
X0209000Y0228162D01*
X0209000Y0227164D02*
X0137948Y0227164D01*
X0138200Y0226165D02*
X0209000Y0226165D01*
X0209000Y0225167D02*
X0138200Y0225167D01*
X0138557Y0224168D02*
X0137279Y0224168D01*
X0137273Y0228162D02*
X0193937Y0228162D01*
X0192249Y0229161D02*
X0138200Y0229161D01*
X0138200Y0230159D02*
X0191484Y0230159D01*
X0191070Y0231158D02*
X0137954Y0231158D01*
X0136955Y0232156D02*
X0191047Y0232156D01*
X0191200Y0233155D02*
X0134700Y0233155D01*
X0134700Y0234153D02*
X0191613Y0234153D01*
X0192562Y0235152D02*
X0134460Y0235152D01*
X0135045Y0232156D02*
X0133767Y0232156D01*
X0140443Y0224168D02*
X0209000Y0224168D01*
X0209000Y0223170D02*
X0141442Y0223170D01*
X0141700Y0222171D02*
X0209000Y0222171D01*
X0209000Y0221172D02*
X0141700Y0221172D01*
X0140785Y0220174D02*
X0209000Y0220174D01*
X0209000Y0219175D02*
X0201136Y0219175D01*
X0201500Y0218811D02*
X0200211Y0220100D01*
X0198389Y0220100D01*
X0197100Y0218811D01*
X0197100Y0216989D01*
X0198389Y0215700D01*
X0200211Y0215700D01*
X0201500Y0216989D01*
X0201500Y0218811D01*
X0201500Y0218177D02*
X0209000Y0218177D01*
X0209000Y0217178D02*
X0201500Y0217178D01*
X0200691Y0216180D02*
X0209000Y0216180D01*
X0209000Y0215181D02*
X0125200Y0215181D01*
X0125200Y0216180D02*
X0137709Y0216180D01*
X0137300Y0216589D02*
X0138589Y0215300D01*
X0140411Y0215300D01*
X0141700Y0216589D01*
X0141700Y0218411D01*
X0140411Y0219700D01*
X0138589Y0219700D01*
X0137300Y0218411D01*
X0137300Y0216589D01*
X0137300Y0217178D02*
X0124933Y0217178D01*
X0125200Y0218177D02*
X0137300Y0218177D01*
X0138064Y0219175D02*
X0125200Y0219175D01*
X0124937Y0220174D02*
X0127715Y0220174D01*
X0126800Y0221172D02*
X0123939Y0221172D01*
X0120800Y0215181D02*
X0003500Y0215181D01*
X0003500Y0214183D02*
X0121706Y0214183D01*
X0124294Y0214183D02*
X0209000Y0214183D01*
X0209000Y0209190D02*
X0200621Y0209190D01*
X0200211Y0209600D02*
X0198389Y0209600D01*
X0197100Y0208311D01*
X0197100Y0206489D01*
X0198389Y0205200D01*
X0200211Y0205200D01*
X0201500Y0206489D01*
X0201500Y0208311D01*
X0200211Y0209600D01*
X0201500Y0208192D02*
X0209000Y0208192D01*
X0209000Y0207193D02*
X0201500Y0207193D01*
X0201206Y0206195D02*
X0209000Y0206195D01*
X0209000Y0205196D02*
X0089200Y0205196D01*
X0089200Y0204198D02*
X0209000Y0204198D01*
X0209000Y0203199D02*
X0098912Y0203199D01*
X0099700Y0202201D02*
X0209000Y0202201D01*
X0209000Y0201202D02*
X0099700Y0201202D01*
X0099315Y0200204D02*
X0209000Y0200204D01*
X0209000Y0195211D02*
X0003500Y0195211D01*
X0003500Y0194213D02*
X0209000Y0194213D01*
X0197394Y0206195D02*
X0196206Y0206195D01*
X0196500Y0206489D02*
X0195211Y0205200D01*
X0193389Y0205200D01*
X0192100Y0206489D01*
X0192100Y0208311D01*
X0193389Y0209600D01*
X0195211Y0209600D01*
X0196500Y0208311D01*
X0196500Y0206489D01*
X0196500Y0207193D02*
X0197100Y0207193D01*
X0197100Y0208192D02*
X0196500Y0208192D01*
X0195621Y0209190D02*
X0197979Y0209190D01*
X0197909Y0216180D02*
X0195691Y0216180D01*
X0195211Y0215700D02*
X0196500Y0216989D01*
X0196500Y0218811D01*
X0195211Y0220100D01*
X0193389Y0220100D01*
X0192100Y0218811D01*
X0192100Y0216989D01*
X0193389Y0215700D01*
X0195211Y0215700D01*
X0196500Y0217178D02*
X0197100Y0217178D01*
X0197100Y0218177D02*
X0196500Y0218177D01*
X0196136Y0219175D02*
X0197464Y0219175D01*
X0192464Y0219175D02*
X0191636Y0219175D01*
X0192000Y0218811D02*
X0190711Y0220100D01*
X0188889Y0220100D01*
X0187600Y0218811D01*
X0187600Y0216989D01*
X0188889Y0215700D01*
X0190711Y0215700D01*
X0192000Y0216989D01*
X0192000Y0218811D01*
X0192000Y0218177D02*
X0192100Y0218177D01*
X0192100Y0217178D02*
X0192000Y0217178D01*
X0191191Y0216180D02*
X0192909Y0216180D01*
X0188409Y0216180D02*
X0141291Y0216180D01*
X0141700Y0217178D02*
X0187600Y0217178D01*
X0187600Y0218177D02*
X0141700Y0218177D01*
X0140936Y0219175D02*
X0187964Y0219175D01*
X0191121Y0209190D02*
X0192979Y0209190D01*
X0192100Y0208192D02*
X0192000Y0208192D01*
X0192000Y0207193D02*
X0192100Y0207193D01*
X0192394Y0206195D02*
X0191706Y0206195D01*
X0187135Y0188222D02*
X0028903Y0188222D01*
X0027978Y0187223D02*
X0186384Y0187223D01*
X0146300Y0159265D02*
X0085846Y0159265D01*
X0086200Y0158266D02*
X0146622Y0158266D01*
X0096088Y0203199D02*
X0095412Y0203199D01*
X0092588Y0203199D02*
X0091912Y0203199D01*
X0089088Y0203199D02*
X0088412Y0203199D01*
X0086082Y0207193D02*
X0084418Y0207193D01*
X0082582Y0207193D02*
X0080918Y0207193D01*
X0099949Y0228162D02*
X0100051Y0228162D01*
X0102961Y0236150D02*
X0103039Y0236150D01*
X0130285Y0220174D02*
X0131215Y0220174D01*
X0133785Y0220174D02*
X0134715Y0220174D01*
X0137285Y0220174D02*
X0138215Y0220174D01*
X0192547Y0245137D02*
X0005465Y0245137D01*
X0092700Y0121321D02*
X0209000Y0121321D01*
X0209000Y0120323D02*
X0092700Y0120323D01*
X0092436Y0119324D02*
X0209000Y0119324D01*
X0209000Y0118326D02*
X0091437Y0118326D01*
X0159595Y0057417D02*
X0160505Y0057417D01*
X0163095Y0057417D02*
X0164005Y0057417D01*
X0163717Y0049429D02*
X0163183Y0049429D01*
X0160217Y0049429D02*
X0159683Y0049429D01*
X0159944Y0046433D02*
X0159956Y0046433D01*
X0163444Y0046433D02*
X0163456Y0046433D01*
X0201000Y0001500D02*
X0201242Y0001503D01*
X0201483Y0001512D01*
X0201724Y0001526D01*
X0201965Y0001547D01*
X0202205Y0001573D01*
X0202445Y0001605D01*
X0202684Y0001643D01*
X0202921Y0001686D01*
X0203158Y0001736D01*
X0203393Y0001791D01*
X0203627Y0001851D01*
X0203859Y0001918D01*
X0204090Y0001989D01*
X0204319Y0002067D01*
X0204546Y0002150D01*
X0204771Y0002238D01*
X0204994Y0002332D01*
X0205214Y0002431D01*
X0205432Y0002536D01*
X0205647Y0002645D01*
X0205860Y0002760D01*
X0206070Y0002880D01*
X0206276Y0003005D01*
X0206480Y0003135D01*
X0206681Y0003270D01*
X0206878Y0003410D01*
X0207072Y0003554D01*
X0207262Y0003703D01*
X0207448Y0003857D01*
X0207631Y0004015D01*
X0207810Y0004177D01*
X0207985Y0004344D01*
X0208156Y0004515D01*
X0208323Y0004690D01*
X0208485Y0004869D01*
X0208643Y0005052D01*
X0208797Y0005238D01*
X0208946Y0005428D01*
X0209090Y0005622D01*
X0209230Y0005819D01*
X0209365Y0006020D01*
X0209495Y0006224D01*
X0209620Y0006430D01*
X0209740Y0006640D01*
X0209855Y0006853D01*
X0209964Y0007068D01*
X0210069Y0007286D01*
X0210168Y0007506D01*
X0210262Y0007729D01*
X0210350Y0007954D01*
X0210433Y0008181D01*
X0210511Y0008410D01*
X0210582Y0008641D01*
X0210649Y0008873D01*
X0210709Y0009107D01*
X0210764Y0009342D01*
X0210814Y0009579D01*
X0210857Y0009816D01*
X0210895Y0010055D01*
X0210927Y0010295D01*
X0210953Y0010535D01*
X0210974Y0010776D01*
X0210988Y0011017D01*
X0210997Y0011258D01*
X0211000Y0011500D01*
D11*
X0026000Y0050000D03*
X0026000Y0060000D03*
X0026000Y0070000D03*
X0026000Y0080000D03*
X0026000Y0090000D03*
X0026000Y0100000D03*
X0026000Y0110000D03*
X0026000Y0120000D03*
X0026000Y0130000D03*
X0026000Y0140000D03*
X0026000Y0150000D03*
X0026000Y0160000D03*
X0026000Y0170000D03*
X0026000Y0180000D03*
X0026000Y0190000D03*
X0026000Y0200000D03*
X0026000Y0210000D03*
X0026000Y0220000D03*
X0026000Y0230000D03*
X0026000Y0240000D03*
X0016000Y0240000D03*
X0016000Y0230000D03*
X0016000Y0220000D03*
X0016000Y0210000D03*
X0016000Y0200000D03*
X0016000Y0190000D03*
X0016000Y0180000D03*
X0016000Y0170000D03*
X0016000Y0160000D03*
X0016000Y0150000D03*
X0016000Y0140000D03*
X0016000Y0130000D03*
X0016000Y0120000D03*
X0016000Y0110000D03*
X0016000Y0100000D03*
X0016000Y0090000D03*
X0016000Y0080000D03*
X0016000Y0070000D03*
X0016000Y0060000D03*
X0016000Y0050000D03*
D12*
X0187531Y0083319D02*
X0187533Y0083407D01*
X0187539Y0083495D01*
X0187549Y0083583D01*
X0187563Y0083671D01*
X0187580Y0083757D01*
X0187602Y0083843D01*
X0187627Y0083927D01*
X0187657Y0084011D01*
X0187689Y0084093D01*
X0187726Y0084173D01*
X0187766Y0084252D01*
X0187810Y0084329D01*
X0187857Y0084404D01*
X0187907Y0084476D01*
X0187961Y0084547D01*
X0188017Y0084614D01*
X0188077Y0084680D01*
X0188139Y0084742D01*
X0188205Y0084802D01*
X0188272Y0084858D01*
X0188343Y0084912D01*
X0188415Y0084962D01*
X0188490Y0085009D01*
X0188567Y0085053D01*
X0188646Y0085093D01*
X0188726Y0085130D01*
X0188808Y0085162D01*
X0188892Y0085192D01*
X0188976Y0085217D01*
X0189062Y0085239D01*
X0189148Y0085256D01*
X0189236Y0085270D01*
X0189324Y0085280D01*
X0189412Y0085286D01*
X0189500Y0085288D01*
X0189588Y0085286D01*
X0189676Y0085280D01*
X0189764Y0085270D01*
X0189852Y0085256D01*
X0189938Y0085239D01*
X0190024Y0085217D01*
X0190108Y0085192D01*
X0190192Y0085162D01*
X0190274Y0085130D01*
X0190354Y0085093D01*
X0190433Y0085053D01*
X0190510Y0085009D01*
X0190585Y0084962D01*
X0190657Y0084912D01*
X0190728Y0084858D01*
X0190795Y0084802D01*
X0190861Y0084742D01*
X0190923Y0084680D01*
X0190983Y0084614D01*
X0191039Y0084547D01*
X0191093Y0084476D01*
X0191143Y0084404D01*
X0191190Y0084329D01*
X0191234Y0084252D01*
X0191274Y0084173D01*
X0191311Y0084093D01*
X0191343Y0084011D01*
X0191373Y0083927D01*
X0191398Y0083843D01*
X0191420Y0083757D01*
X0191437Y0083671D01*
X0191451Y0083583D01*
X0191461Y0083495D01*
X0191467Y0083407D01*
X0191469Y0083319D01*
X0191467Y0083231D01*
X0191461Y0083143D01*
X0191451Y0083055D01*
X0191437Y0082967D01*
X0191420Y0082881D01*
X0191398Y0082795D01*
X0191373Y0082711D01*
X0191343Y0082627D01*
X0191311Y0082545D01*
X0191274Y0082465D01*
X0191234Y0082386D01*
X0191190Y0082309D01*
X0191143Y0082234D01*
X0191093Y0082162D01*
X0191039Y0082091D01*
X0190983Y0082024D01*
X0190923Y0081958D01*
X0190861Y0081896D01*
X0190795Y0081836D01*
X0190728Y0081780D01*
X0190657Y0081726D01*
X0190585Y0081676D01*
X0190510Y0081629D01*
X0190433Y0081585D01*
X0190354Y0081545D01*
X0190274Y0081508D01*
X0190192Y0081476D01*
X0190108Y0081446D01*
X0190024Y0081421D01*
X0189938Y0081399D01*
X0189852Y0081382D01*
X0189764Y0081368D01*
X0189676Y0081358D01*
X0189588Y0081352D01*
X0189500Y0081350D01*
X0189412Y0081352D01*
X0189324Y0081358D01*
X0189236Y0081368D01*
X0189148Y0081382D01*
X0189062Y0081399D01*
X0188976Y0081421D01*
X0188892Y0081446D01*
X0188808Y0081476D01*
X0188726Y0081508D01*
X0188646Y0081545D01*
X0188567Y0081585D01*
X0188490Y0081629D01*
X0188415Y0081676D01*
X0188343Y0081726D01*
X0188272Y0081780D01*
X0188205Y0081836D01*
X0188139Y0081896D01*
X0188077Y0081958D01*
X0188017Y0082024D01*
X0187961Y0082091D01*
X0187907Y0082162D01*
X0187857Y0082234D01*
X0187810Y0082309D01*
X0187766Y0082386D01*
X0187726Y0082465D01*
X0187689Y0082545D01*
X0187657Y0082627D01*
X0187627Y0082711D01*
X0187602Y0082795D01*
X0187580Y0082881D01*
X0187563Y0082967D01*
X0187549Y0083055D01*
X0187539Y0083143D01*
X0187533Y0083231D01*
X0187531Y0083319D01*
X0187531Y0185681D02*
X0187533Y0185769D01*
X0187539Y0185857D01*
X0187549Y0185945D01*
X0187563Y0186033D01*
X0187580Y0186119D01*
X0187602Y0186205D01*
X0187627Y0186289D01*
X0187657Y0186373D01*
X0187689Y0186455D01*
X0187726Y0186535D01*
X0187766Y0186614D01*
X0187810Y0186691D01*
X0187857Y0186766D01*
X0187907Y0186838D01*
X0187961Y0186909D01*
X0188017Y0186976D01*
X0188077Y0187042D01*
X0188139Y0187104D01*
X0188205Y0187164D01*
X0188272Y0187220D01*
X0188343Y0187274D01*
X0188415Y0187324D01*
X0188490Y0187371D01*
X0188567Y0187415D01*
X0188646Y0187455D01*
X0188726Y0187492D01*
X0188808Y0187524D01*
X0188892Y0187554D01*
X0188976Y0187579D01*
X0189062Y0187601D01*
X0189148Y0187618D01*
X0189236Y0187632D01*
X0189324Y0187642D01*
X0189412Y0187648D01*
X0189500Y0187650D01*
X0189588Y0187648D01*
X0189676Y0187642D01*
X0189764Y0187632D01*
X0189852Y0187618D01*
X0189938Y0187601D01*
X0190024Y0187579D01*
X0190108Y0187554D01*
X0190192Y0187524D01*
X0190274Y0187492D01*
X0190354Y0187455D01*
X0190433Y0187415D01*
X0190510Y0187371D01*
X0190585Y0187324D01*
X0190657Y0187274D01*
X0190728Y0187220D01*
X0190795Y0187164D01*
X0190861Y0187104D01*
X0190923Y0187042D01*
X0190983Y0186976D01*
X0191039Y0186909D01*
X0191093Y0186838D01*
X0191143Y0186766D01*
X0191190Y0186691D01*
X0191234Y0186614D01*
X0191274Y0186535D01*
X0191311Y0186455D01*
X0191343Y0186373D01*
X0191373Y0186289D01*
X0191398Y0186205D01*
X0191420Y0186119D01*
X0191437Y0186033D01*
X0191451Y0185945D01*
X0191461Y0185857D01*
X0191467Y0185769D01*
X0191469Y0185681D01*
X0191467Y0185593D01*
X0191461Y0185505D01*
X0191451Y0185417D01*
X0191437Y0185329D01*
X0191420Y0185243D01*
X0191398Y0185157D01*
X0191373Y0185073D01*
X0191343Y0184989D01*
X0191311Y0184907D01*
X0191274Y0184827D01*
X0191234Y0184748D01*
X0191190Y0184671D01*
X0191143Y0184596D01*
X0191093Y0184524D01*
X0191039Y0184453D01*
X0190983Y0184386D01*
X0190923Y0184320D01*
X0190861Y0184258D01*
X0190795Y0184198D01*
X0190728Y0184142D01*
X0190657Y0184088D01*
X0190585Y0184038D01*
X0190510Y0183991D01*
X0190433Y0183947D01*
X0190354Y0183907D01*
X0190274Y0183870D01*
X0190192Y0183838D01*
X0190108Y0183808D01*
X0190024Y0183783D01*
X0189938Y0183761D01*
X0189852Y0183744D01*
X0189764Y0183730D01*
X0189676Y0183720D01*
X0189588Y0183714D01*
X0189500Y0183712D01*
X0189412Y0183714D01*
X0189324Y0183720D01*
X0189236Y0183730D01*
X0189148Y0183744D01*
X0189062Y0183761D01*
X0188976Y0183783D01*
X0188892Y0183808D01*
X0188808Y0183838D01*
X0188726Y0183870D01*
X0188646Y0183907D01*
X0188567Y0183947D01*
X0188490Y0183991D01*
X0188415Y0184038D01*
X0188343Y0184088D01*
X0188272Y0184142D01*
X0188205Y0184198D01*
X0188139Y0184258D01*
X0188077Y0184320D01*
X0188017Y0184386D01*
X0187961Y0184453D01*
X0187907Y0184524D01*
X0187857Y0184596D01*
X0187810Y0184671D01*
X0187766Y0184748D01*
X0187726Y0184827D01*
X0187689Y0184907D01*
X0187657Y0184989D01*
X0187627Y0185073D01*
X0187602Y0185157D01*
X0187580Y0185243D01*
X0187563Y0185329D01*
X0187549Y0185417D01*
X0187539Y0185505D01*
X0187533Y0185593D01*
X0187531Y0185681D01*
D13*
X0195000Y0232000D03*
X0195000Y0242000D03*
D14*
X0194300Y0217900D03*
X0189800Y0217900D03*
X0199300Y0217900D03*
X0199300Y0207400D03*
X0194300Y0207400D03*
X0189800Y0207400D03*
X0197866Y0193600D03*
X0189300Y0173900D03*
X0181100Y0185700D03*
X0158500Y0199500D03*
X0154000Y0199500D03*
X0150000Y0201500D03*
X0150000Y0205000D03*
X0150000Y0208500D03*
X0150000Y0212000D03*
X0150000Y0215500D03*
X0154000Y0217500D03*
X0158500Y0217500D03*
X0139500Y0217500D03*
X0139500Y0222000D03*
X0136000Y0222000D03*
X0136000Y0226000D03*
X0132500Y0226000D03*
X0132500Y0222000D03*
X0129000Y0222000D03*
X0129000Y0226000D03*
X0129000Y0230000D03*
X0132500Y0230000D03*
X0136000Y0230000D03*
X0132500Y0234000D03*
X0132500Y0238000D03*
X0129000Y0238000D03*
X0129000Y0234000D03*
X0123000Y0219000D03*
X0123000Y0216000D03*
X0115000Y0219000D03*
X0115000Y0222000D03*
X0104500Y0234500D03*
X0101500Y0234500D03*
X0101500Y0226500D03*
X0098500Y0226500D03*
X0087000Y0205000D03*
X0087000Y0201500D03*
X0083500Y0201500D03*
X0083500Y0205000D03*
X0080000Y0205000D03*
X0080000Y0201500D03*
X0090500Y0201500D03*
X0094000Y0201500D03*
X0097500Y0201500D03*
X0090500Y0174200D03*
X0084000Y0174200D03*
X0084000Y0165500D03*
X0090500Y0165500D03*
X0090500Y0158000D03*
X0084000Y0158000D03*
X0084000Y0150500D03*
X0090500Y0150500D03*
X0090500Y0138500D03*
X0084000Y0138500D03*
X0084000Y0129500D03*
X0090500Y0129500D03*
X0090500Y0120500D03*
X0084000Y0120500D03*
X0058000Y0141500D03*
X0058000Y0147500D03*
X0055000Y0219500D03*
X0055000Y0223000D03*
X0148500Y0167500D03*
X0155000Y0167500D03*
X0155000Y0159500D03*
X0148500Y0159500D03*
X0148500Y0147500D03*
X0155000Y0147500D03*
X0155000Y0137500D03*
X0155000Y0131000D03*
X0148500Y0131000D03*
X0148500Y0137500D03*
X0160500Y0137500D03*
X0189400Y0142400D03*
X0189500Y0095200D03*
X0165300Y0055600D03*
X0161800Y0055600D03*
X0158300Y0055600D03*
X0158200Y0047800D03*
X0161700Y0047800D03*
X0165200Y0047800D03*
X0052700Y0027800D03*
M02*
