G75*
%MOIN*%
%OFA0B0*%
%FSLAX25Y25*%
%IPPOS*%
%LPD*%
%AMOC8*
5,1,8,0,0,1.08239X$1,22.5*
%
%ADD10C,0.01000*%
%ADD11R,0.02362X0.03543*%
%ADD12R,0.06299X0.03543*%
%ADD13R,0.03543X0.06299*%
%ADD14R,0.03543X0.02362*%
%ADD15R,0.10827X0.03937*%
%ADD16C,0.00000*%
%ADD17R,0.24409X0.03937*%
%ADD18R,0.11811X0.06299*%
%ADD19R,0.05906X0.01181*%
%ADD20R,0.07874X0.04331*%
%ADD21R,0.07874X0.12992*%
%ADD22R,0.12598X0.06299*%
%ADD23R,0.06299X0.12598*%
%ADD24R,0.04200X0.08500*%
%ADD25C,0.00500*%
D10*
X0001500Y0038000D02*
X0042500Y0038000D01*
X0042500Y0001500D01*
X0201000Y0001500D01*
X0201242Y0001503D01*
X0201483Y0001512D01*
X0201724Y0001526D01*
X0201965Y0001547D01*
X0202205Y0001573D01*
X0202445Y0001605D01*
X0202684Y0001643D01*
X0202921Y0001686D01*
X0203158Y0001736D01*
X0203393Y0001791D01*
X0203627Y0001851D01*
X0203859Y0001918D01*
X0204090Y0001989D01*
X0204319Y0002067D01*
X0204546Y0002150D01*
X0204771Y0002238D01*
X0204994Y0002332D01*
X0205214Y0002431D01*
X0205432Y0002536D01*
X0205647Y0002645D01*
X0205860Y0002760D01*
X0206070Y0002880D01*
X0206276Y0003005D01*
X0206480Y0003135D01*
X0206681Y0003270D01*
X0206878Y0003410D01*
X0207072Y0003554D01*
X0207262Y0003703D01*
X0207448Y0003857D01*
X0207631Y0004015D01*
X0207810Y0004177D01*
X0207985Y0004344D01*
X0208156Y0004515D01*
X0208323Y0004690D01*
X0208485Y0004869D01*
X0208643Y0005052D01*
X0208797Y0005238D01*
X0208946Y0005428D01*
X0209090Y0005622D01*
X0209230Y0005819D01*
X0209365Y0006020D01*
X0209495Y0006224D01*
X0209620Y0006430D01*
X0209740Y0006640D01*
X0209855Y0006853D01*
X0209964Y0007068D01*
X0210069Y0007286D01*
X0210168Y0007506D01*
X0210262Y0007729D01*
X0210350Y0007954D01*
X0210433Y0008181D01*
X0210511Y0008410D01*
X0210582Y0008641D01*
X0210649Y0008873D01*
X0210709Y0009107D01*
X0210764Y0009342D01*
X0210814Y0009579D01*
X0210857Y0009816D01*
X0210895Y0010055D01*
X0210927Y0010295D01*
X0210953Y0010535D01*
X0210974Y0010776D01*
X0210988Y0011017D01*
X0210997Y0011258D01*
X0211000Y0011500D01*
X0211000Y0240000D01*
X0210997Y0240242D01*
X0210988Y0240483D01*
X0210974Y0240724D01*
X0210953Y0240965D01*
X0210927Y0241205D01*
X0210895Y0241445D01*
X0210857Y0241684D01*
X0210814Y0241921D01*
X0210764Y0242158D01*
X0210709Y0242393D01*
X0210649Y0242627D01*
X0210582Y0242859D01*
X0210511Y0243090D01*
X0210433Y0243319D01*
X0210350Y0243546D01*
X0210262Y0243771D01*
X0210168Y0243994D01*
X0210069Y0244214D01*
X0209964Y0244432D01*
X0209855Y0244647D01*
X0209740Y0244860D01*
X0209620Y0245070D01*
X0209495Y0245276D01*
X0209365Y0245480D01*
X0209230Y0245681D01*
X0209090Y0245878D01*
X0208946Y0246072D01*
X0208797Y0246262D01*
X0208643Y0246448D01*
X0208485Y0246631D01*
X0208323Y0246810D01*
X0208156Y0246985D01*
X0207985Y0247156D01*
X0207810Y0247323D01*
X0207631Y0247485D01*
X0207448Y0247643D01*
X0207262Y0247797D01*
X0207072Y0247946D01*
X0206878Y0248090D01*
X0206681Y0248230D01*
X0206480Y0248365D01*
X0206276Y0248495D01*
X0206070Y0248620D01*
X0205860Y0248740D01*
X0205647Y0248855D01*
X0205432Y0248964D01*
X0205214Y0249069D01*
X0204994Y0249168D01*
X0204771Y0249262D01*
X0204546Y0249350D01*
X0204319Y0249433D01*
X0204090Y0249511D01*
X0203859Y0249582D01*
X0203627Y0249649D01*
X0203393Y0249709D01*
X0203158Y0249764D01*
X0202921Y0249814D01*
X0202684Y0249857D01*
X0202445Y0249895D01*
X0202205Y0249927D01*
X0201965Y0249953D01*
X0201724Y0249974D01*
X0201483Y0249988D01*
X0201242Y0249997D01*
X0201000Y0250000D01*
X0011500Y0250000D01*
X0011258Y0249997D01*
X0011017Y0249988D01*
X0010776Y0249974D01*
X0010535Y0249953D01*
X0010295Y0249927D01*
X0010055Y0249895D01*
X0009816Y0249857D01*
X0009579Y0249814D01*
X0009342Y0249764D01*
X0009107Y0249709D01*
X0008873Y0249649D01*
X0008641Y0249582D01*
X0008410Y0249511D01*
X0008181Y0249433D01*
X0007954Y0249350D01*
X0007729Y0249262D01*
X0007506Y0249168D01*
X0007286Y0249069D01*
X0007068Y0248964D01*
X0006853Y0248855D01*
X0006640Y0248740D01*
X0006430Y0248620D01*
X0006224Y0248495D01*
X0006020Y0248365D01*
X0005819Y0248230D01*
X0005622Y0248090D01*
X0005428Y0247946D01*
X0005238Y0247797D01*
X0005052Y0247643D01*
X0004869Y0247485D01*
X0004690Y0247323D01*
X0004515Y0247156D01*
X0004344Y0246985D01*
X0004177Y0246810D01*
X0004015Y0246631D01*
X0003857Y0246448D01*
X0003703Y0246262D01*
X0003554Y0246072D01*
X0003410Y0245878D01*
X0003270Y0245681D01*
X0003135Y0245480D01*
X0003005Y0245276D01*
X0002880Y0245070D01*
X0002760Y0244860D01*
X0002645Y0244647D01*
X0002536Y0244432D01*
X0002431Y0244214D01*
X0002332Y0243994D01*
X0002238Y0243771D01*
X0002150Y0243546D01*
X0002067Y0243319D01*
X0001989Y0243090D01*
X0001918Y0242859D01*
X0001851Y0242627D01*
X0001791Y0242393D01*
X0001736Y0242158D01*
X0001686Y0241921D01*
X0001643Y0241684D01*
X0001605Y0241445D01*
X0001573Y0241205D01*
X0001547Y0240965D01*
X0001526Y0240724D01*
X0001512Y0240483D01*
X0001503Y0240242D01*
X0001500Y0240000D01*
X0001500Y0038000D01*
D11*
X0087547Y0120500D03*
X0093453Y0120500D03*
X0093453Y0129500D03*
X0087547Y0129500D03*
X0087547Y0138500D03*
X0093453Y0138500D03*
X0093453Y0150500D03*
X0087547Y0150500D03*
X0087547Y0158000D03*
X0093453Y0158000D03*
X0093453Y0165500D03*
X0087547Y0165500D03*
X0087547Y0174200D03*
X0093453Y0174200D03*
X0067953Y0147500D03*
X0062047Y0147500D03*
X0062047Y0141500D03*
X0067953Y0141500D03*
X0088047Y0226500D03*
X0093953Y0226500D03*
X0140047Y0228500D03*
X0145953Y0228500D03*
X0145547Y0167500D03*
X0151453Y0167500D03*
X0151453Y0159500D03*
X0145547Y0159500D03*
X0145547Y0147500D03*
X0151453Y0147500D03*
X0151453Y0137500D03*
X0151453Y0131000D03*
X0145547Y0131000D03*
X0145547Y0137500D03*
D12*
X0115000Y0202791D03*
X0115000Y0214209D03*
X0095000Y0218709D03*
X0095000Y0207291D03*
D13*
X0096709Y0234500D03*
X0085291Y0234500D03*
X0137291Y0236500D03*
X0148709Y0236500D03*
D14*
X0123000Y0211453D03*
X0123000Y0205547D03*
X0086000Y0210047D03*
X0086000Y0215953D03*
X0160500Y0133953D03*
X0160500Y0128047D03*
X0048200Y0045753D03*
X0048200Y0039847D03*
X0048200Y0033753D03*
X0048200Y0027847D03*
D15*
X0181134Y0079382D03*
X0181134Y0087256D03*
X0181134Y0095130D03*
X0181134Y0103004D03*
X0181134Y0110878D03*
X0181134Y0118752D03*
X0181134Y0126626D03*
X0181134Y0134500D03*
X0181134Y0142374D03*
X0181134Y0150248D03*
X0181134Y0158122D03*
X0181134Y0165996D03*
X0181134Y0173870D03*
X0181134Y0181744D03*
X0181134Y0189618D03*
X0197866Y0189618D03*
X0197866Y0181744D03*
X0197866Y0173870D03*
X0197866Y0165996D03*
X0197866Y0158122D03*
X0197866Y0150248D03*
X0197866Y0142374D03*
X0197866Y0134500D03*
X0197866Y0126626D03*
X0197866Y0118752D03*
X0197866Y0110878D03*
X0197866Y0103004D03*
X0197866Y0095130D03*
X0197866Y0087256D03*
X0197866Y0079382D03*
D16*
X0187531Y0083319D02*
X0187533Y0083407D01*
X0187539Y0083495D01*
X0187549Y0083583D01*
X0187563Y0083671D01*
X0187580Y0083757D01*
X0187602Y0083843D01*
X0187627Y0083927D01*
X0187657Y0084011D01*
X0187689Y0084093D01*
X0187726Y0084173D01*
X0187766Y0084252D01*
X0187810Y0084329D01*
X0187857Y0084404D01*
X0187907Y0084476D01*
X0187961Y0084547D01*
X0188017Y0084614D01*
X0188077Y0084680D01*
X0188139Y0084742D01*
X0188205Y0084802D01*
X0188272Y0084858D01*
X0188343Y0084912D01*
X0188415Y0084962D01*
X0188490Y0085009D01*
X0188567Y0085053D01*
X0188646Y0085093D01*
X0188726Y0085130D01*
X0188808Y0085162D01*
X0188892Y0085192D01*
X0188976Y0085217D01*
X0189062Y0085239D01*
X0189148Y0085256D01*
X0189236Y0085270D01*
X0189324Y0085280D01*
X0189412Y0085286D01*
X0189500Y0085288D01*
X0189588Y0085286D01*
X0189676Y0085280D01*
X0189764Y0085270D01*
X0189852Y0085256D01*
X0189938Y0085239D01*
X0190024Y0085217D01*
X0190108Y0085192D01*
X0190192Y0085162D01*
X0190274Y0085130D01*
X0190354Y0085093D01*
X0190433Y0085053D01*
X0190510Y0085009D01*
X0190585Y0084962D01*
X0190657Y0084912D01*
X0190728Y0084858D01*
X0190795Y0084802D01*
X0190861Y0084742D01*
X0190923Y0084680D01*
X0190983Y0084614D01*
X0191039Y0084547D01*
X0191093Y0084476D01*
X0191143Y0084404D01*
X0191190Y0084329D01*
X0191234Y0084252D01*
X0191274Y0084173D01*
X0191311Y0084093D01*
X0191343Y0084011D01*
X0191373Y0083927D01*
X0191398Y0083843D01*
X0191420Y0083757D01*
X0191437Y0083671D01*
X0191451Y0083583D01*
X0191461Y0083495D01*
X0191467Y0083407D01*
X0191469Y0083319D01*
X0191467Y0083231D01*
X0191461Y0083143D01*
X0191451Y0083055D01*
X0191437Y0082967D01*
X0191420Y0082881D01*
X0191398Y0082795D01*
X0191373Y0082711D01*
X0191343Y0082627D01*
X0191311Y0082545D01*
X0191274Y0082465D01*
X0191234Y0082386D01*
X0191190Y0082309D01*
X0191143Y0082234D01*
X0191093Y0082162D01*
X0191039Y0082091D01*
X0190983Y0082024D01*
X0190923Y0081958D01*
X0190861Y0081896D01*
X0190795Y0081836D01*
X0190728Y0081780D01*
X0190657Y0081726D01*
X0190585Y0081676D01*
X0190510Y0081629D01*
X0190433Y0081585D01*
X0190354Y0081545D01*
X0190274Y0081508D01*
X0190192Y0081476D01*
X0190108Y0081446D01*
X0190024Y0081421D01*
X0189938Y0081399D01*
X0189852Y0081382D01*
X0189764Y0081368D01*
X0189676Y0081358D01*
X0189588Y0081352D01*
X0189500Y0081350D01*
X0189412Y0081352D01*
X0189324Y0081358D01*
X0189236Y0081368D01*
X0189148Y0081382D01*
X0189062Y0081399D01*
X0188976Y0081421D01*
X0188892Y0081446D01*
X0188808Y0081476D01*
X0188726Y0081508D01*
X0188646Y0081545D01*
X0188567Y0081585D01*
X0188490Y0081629D01*
X0188415Y0081676D01*
X0188343Y0081726D01*
X0188272Y0081780D01*
X0188205Y0081836D01*
X0188139Y0081896D01*
X0188077Y0081958D01*
X0188017Y0082024D01*
X0187961Y0082091D01*
X0187907Y0082162D01*
X0187857Y0082234D01*
X0187810Y0082309D01*
X0187766Y0082386D01*
X0187726Y0082465D01*
X0187689Y0082545D01*
X0187657Y0082627D01*
X0187627Y0082711D01*
X0187602Y0082795D01*
X0187580Y0082881D01*
X0187563Y0082967D01*
X0187549Y0083055D01*
X0187539Y0083143D01*
X0187533Y0083231D01*
X0187531Y0083319D01*
X0187531Y0185681D02*
X0187533Y0185769D01*
X0187539Y0185857D01*
X0187549Y0185945D01*
X0187563Y0186033D01*
X0187580Y0186119D01*
X0187602Y0186205D01*
X0187627Y0186289D01*
X0187657Y0186373D01*
X0187689Y0186455D01*
X0187726Y0186535D01*
X0187766Y0186614D01*
X0187810Y0186691D01*
X0187857Y0186766D01*
X0187907Y0186838D01*
X0187961Y0186909D01*
X0188017Y0186976D01*
X0188077Y0187042D01*
X0188139Y0187104D01*
X0188205Y0187164D01*
X0188272Y0187220D01*
X0188343Y0187274D01*
X0188415Y0187324D01*
X0188490Y0187371D01*
X0188567Y0187415D01*
X0188646Y0187455D01*
X0188726Y0187492D01*
X0188808Y0187524D01*
X0188892Y0187554D01*
X0188976Y0187579D01*
X0189062Y0187601D01*
X0189148Y0187618D01*
X0189236Y0187632D01*
X0189324Y0187642D01*
X0189412Y0187648D01*
X0189500Y0187650D01*
X0189588Y0187648D01*
X0189676Y0187642D01*
X0189764Y0187632D01*
X0189852Y0187618D01*
X0189938Y0187601D01*
X0190024Y0187579D01*
X0190108Y0187554D01*
X0190192Y0187524D01*
X0190274Y0187492D01*
X0190354Y0187455D01*
X0190433Y0187415D01*
X0190510Y0187371D01*
X0190585Y0187324D01*
X0190657Y0187274D01*
X0190728Y0187220D01*
X0190795Y0187164D01*
X0190861Y0187104D01*
X0190923Y0187042D01*
X0190983Y0186976D01*
X0191039Y0186909D01*
X0191093Y0186838D01*
X0191143Y0186766D01*
X0191190Y0186691D01*
X0191234Y0186614D01*
X0191274Y0186535D01*
X0191311Y0186455D01*
X0191343Y0186373D01*
X0191373Y0186289D01*
X0191398Y0186205D01*
X0191420Y0186119D01*
X0191437Y0186033D01*
X0191451Y0185945D01*
X0191461Y0185857D01*
X0191467Y0185769D01*
X0191469Y0185681D01*
X0191467Y0185593D01*
X0191461Y0185505D01*
X0191451Y0185417D01*
X0191437Y0185329D01*
X0191420Y0185243D01*
X0191398Y0185157D01*
X0191373Y0185073D01*
X0191343Y0184989D01*
X0191311Y0184907D01*
X0191274Y0184827D01*
X0191234Y0184748D01*
X0191190Y0184671D01*
X0191143Y0184596D01*
X0191093Y0184524D01*
X0191039Y0184453D01*
X0190983Y0184386D01*
X0190923Y0184320D01*
X0190861Y0184258D01*
X0190795Y0184198D01*
X0190728Y0184142D01*
X0190657Y0184088D01*
X0190585Y0184038D01*
X0190510Y0183991D01*
X0190433Y0183947D01*
X0190354Y0183907D01*
X0190274Y0183870D01*
X0190192Y0183838D01*
X0190108Y0183808D01*
X0190024Y0183783D01*
X0189938Y0183761D01*
X0189852Y0183744D01*
X0189764Y0183730D01*
X0189676Y0183720D01*
X0189588Y0183714D01*
X0189500Y0183712D01*
X0189412Y0183714D01*
X0189324Y0183720D01*
X0189236Y0183730D01*
X0189148Y0183744D01*
X0189062Y0183761D01*
X0188976Y0183783D01*
X0188892Y0183808D01*
X0188808Y0183838D01*
X0188726Y0183870D01*
X0188646Y0183907D01*
X0188567Y0183947D01*
X0188490Y0183991D01*
X0188415Y0184038D01*
X0188343Y0184088D01*
X0188272Y0184142D01*
X0188205Y0184198D01*
X0188139Y0184258D01*
X0188077Y0184320D01*
X0188017Y0184386D01*
X0187961Y0184453D01*
X0187907Y0184524D01*
X0187857Y0184596D01*
X0187810Y0184671D01*
X0187766Y0184748D01*
X0187726Y0184827D01*
X0187689Y0184907D01*
X0187657Y0184989D01*
X0187627Y0185073D01*
X0187602Y0185157D01*
X0187580Y0185243D01*
X0187563Y0185329D01*
X0187549Y0185417D01*
X0187539Y0185505D01*
X0187533Y0185593D01*
X0187531Y0185681D01*
D17*
X0184500Y0055685D03*
X0184500Y0047811D03*
X0184500Y0039937D03*
X0184500Y0032063D03*
X0184500Y0024189D03*
X0184500Y0016315D03*
D18*
X0193949Y0006866D03*
X0193949Y0065134D03*
D19*
X0135248Y0125862D03*
X0135248Y0127831D03*
X0135248Y0129799D03*
X0135248Y0131768D03*
X0135248Y0133736D03*
X0135248Y0135705D03*
X0135248Y0137673D03*
X0135248Y0139642D03*
X0135248Y0141610D03*
X0135248Y0143579D03*
X0135248Y0145547D03*
X0135248Y0147516D03*
X0135248Y0149484D03*
X0135248Y0151453D03*
X0135248Y0153421D03*
X0135248Y0155390D03*
X0135248Y0157358D03*
X0135248Y0159327D03*
X0135248Y0161295D03*
X0135248Y0163264D03*
X0135248Y0165232D03*
X0135248Y0167201D03*
X0135248Y0169169D03*
X0135248Y0171138D03*
X0103752Y0171138D03*
X0103752Y0169169D03*
X0103752Y0167201D03*
X0103752Y0165232D03*
X0103752Y0163264D03*
X0103752Y0161295D03*
X0103752Y0159327D03*
X0103752Y0157358D03*
X0103752Y0155390D03*
X0103752Y0153421D03*
X0103752Y0151453D03*
X0103752Y0149484D03*
X0103752Y0147516D03*
X0103752Y0145547D03*
X0103752Y0143579D03*
X0103752Y0141610D03*
X0103752Y0139642D03*
X0103752Y0137673D03*
X0103752Y0135705D03*
X0103752Y0133736D03*
X0103752Y0131768D03*
X0103752Y0129799D03*
X0103752Y0127831D03*
X0103752Y0125862D03*
D20*
X0133000Y0199445D03*
X0133000Y0208500D03*
X0133000Y0217555D03*
D21*
X0156228Y0208500D03*
D22*
X0173370Y0213000D03*
X0194630Y0213000D03*
D23*
X0150000Y0037630D03*
X0150000Y0016370D03*
D24*
X0065000Y0235600D03*
X0055000Y0235600D03*
X0045000Y0235600D03*
D25*
X0040600Y0205300D02*
X0040600Y0185300D01*
X0035750Y0185300D01*
X0035750Y0180800D01*
X0074250Y0180800D01*
X0074250Y0185300D01*
X0069400Y0185300D01*
X0069400Y0205300D01*
X0040600Y0205300D01*
X0040600Y0204893D02*
X0069400Y0204893D01*
X0069400Y0204394D02*
X0040600Y0204394D01*
X0040600Y0203896D02*
X0069400Y0203896D01*
X0069400Y0203397D02*
X0040600Y0203397D01*
X0040600Y0202899D02*
X0069400Y0202899D01*
X0069400Y0202400D02*
X0040600Y0202400D01*
X0040600Y0201902D02*
X0069400Y0201902D01*
X0069400Y0201403D02*
X0040600Y0201403D01*
X0040600Y0200905D02*
X0069400Y0200905D01*
X0069400Y0200406D02*
X0040600Y0200406D01*
X0040600Y0199908D02*
X0069400Y0199908D01*
X0069400Y0199409D02*
X0040600Y0199409D01*
X0040600Y0198910D02*
X0069400Y0198910D01*
X0069400Y0198412D02*
X0040600Y0198412D01*
X0040600Y0197913D02*
X0069400Y0197913D01*
X0069400Y0197415D02*
X0040600Y0197415D01*
X0040600Y0196916D02*
X0069400Y0196916D01*
X0069400Y0196418D02*
X0040600Y0196418D01*
X0040600Y0195919D02*
X0069400Y0195919D01*
X0069400Y0195421D02*
X0040600Y0195421D01*
X0040600Y0194922D02*
X0069400Y0194922D01*
X0069400Y0194424D02*
X0040600Y0194424D01*
X0040600Y0193925D02*
X0069400Y0193925D01*
X0069400Y0193427D02*
X0040600Y0193427D01*
X0040600Y0192928D02*
X0069400Y0192928D01*
X0069400Y0192430D02*
X0040600Y0192430D01*
X0040600Y0191931D02*
X0069400Y0191931D01*
X0069400Y0191433D02*
X0040600Y0191433D01*
X0040600Y0190934D02*
X0069400Y0190934D01*
X0069400Y0190436D02*
X0040600Y0190436D01*
X0040600Y0189937D02*
X0069400Y0189937D01*
X0069400Y0189439D02*
X0040600Y0189439D01*
X0040600Y0188940D02*
X0069400Y0188940D01*
X0069400Y0188442D02*
X0040600Y0188442D01*
X0040600Y0187943D02*
X0069400Y0187943D01*
X0069400Y0187445D02*
X0040600Y0187445D01*
X0040600Y0186946D02*
X0069400Y0186946D01*
X0069400Y0186448D02*
X0040600Y0186448D01*
X0040600Y0185949D02*
X0069400Y0185949D01*
X0069400Y0185451D02*
X0040600Y0185451D01*
X0035750Y0184952D02*
X0074250Y0184952D01*
X0074250Y0184454D02*
X0035750Y0184454D01*
X0035750Y0183955D02*
X0074250Y0183955D01*
X0074250Y0183457D02*
X0035750Y0183457D01*
X0035750Y0182958D02*
X0074250Y0182958D01*
X0074250Y0182460D02*
X0035750Y0182460D01*
X0035750Y0181961D02*
X0074250Y0181961D01*
X0074250Y0181463D02*
X0035750Y0181463D01*
X0035750Y0180964D02*
X0074250Y0180964D01*
M02*
